G04 EAGLE Gerber RS-274X export*
G75*
%MOMM*%
%FSLAX34Y34*%
%LPD*%
%INTop Copper*%
%IPPOS*%
%AMOC8*
5,1,8,0,0,1.08239X$1,22.5*%
G01*
%ADD10C,1.879600*%
%ADD11C,4.800000*%
%ADD12C,1.530000*%
%ADD13R,1.530000X1.530000*%
%ADD14C,1.308000*%
%ADD15C,0.508000*%

G36*
X562299Y11943D02*
X562299Y11943D01*
X562323Y11940D01*
X562420Y11962D01*
X562518Y11979D01*
X562540Y11990D01*
X562563Y11995D01*
X562648Y12047D01*
X562736Y12094D01*
X562752Y12111D01*
X562773Y12124D01*
X562837Y12200D01*
X562905Y12272D01*
X562915Y12294D01*
X562931Y12312D01*
X562967Y12405D01*
X563009Y12495D01*
X563011Y12519D01*
X563020Y12541D01*
X563025Y12641D01*
X563036Y12739D01*
X563031Y12763D01*
X563032Y12787D01*
X563005Y12882D01*
X562984Y12980D01*
X562971Y13001D01*
X562965Y13024D01*
X562908Y13105D01*
X562857Y13191D01*
X562839Y13207D01*
X562825Y13226D01*
X562746Y13286D01*
X562670Y13351D01*
X562648Y13360D01*
X562629Y13374D01*
X562473Y13435D01*
X561402Y13722D01*
X555437Y17166D01*
X550566Y22037D01*
X547122Y28002D01*
X545339Y34656D01*
X545339Y41544D01*
X547122Y48198D01*
X550566Y54163D01*
X555437Y59034D01*
X561402Y62478D01*
X568056Y64261D01*
X574944Y64261D01*
X581598Y62478D01*
X587563Y59034D01*
X592434Y54163D01*
X594719Y50205D01*
X594749Y50168D01*
X594772Y50126D01*
X594827Y50074D01*
X594875Y50015D01*
X594915Y49990D01*
X594950Y49956D01*
X595019Y49925D01*
X595083Y49884D01*
X595130Y49873D01*
X595173Y49853D01*
X595248Y49845D01*
X595322Y49827D01*
X595370Y49831D01*
X595417Y49826D01*
X595492Y49842D01*
X595567Y49849D01*
X595611Y49868D01*
X595658Y49878D01*
X595723Y49917D01*
X595792Y49947D01*
X595828Y49980D01*
X595869Y50004D01*
X595918Y50062D01*
X595974Y50113D01*
X595998Y50155D01*
X596029Y50191D01*
X596057Y50261D01*
X596094Y50328D01*
X596103Y50375D01*
X596121Y50419D01*
X596135Y50548D01*
X596139Y50569D01*
X596138Y50576D01*
X596139Y50586D01*
X596139Y749514D01*
X596132Y749561D01*
X596133Y749609D01*
X596112Y749682D01*
X596100Y749757D01*
X596077Y749799D01*
X596063Y749845D01*
X596020Y749907D01*
X595984Y749974D01*
X595950Y750007D01*
X595922Y750046D01*
X595861Y750091D01*
X595806Y750144D01*
X595763Y750164D01*
X595724Y750192D01*
X595652Y750215D01*
X595583Y750247D01*
X595535Y750252D01*
X595490Y750267D01*
X595414Y750266D01*
X595339Y750274D01*
X595292Y750264D01*
X595244Y750263D01*
X595172Y750238D01*
X595098Y750222D01*
X595057Y750197D01*
X595012Y750181D01*
X594952Y750135D01*
X594887Y750096D01*
X594856Y750059D01*
X594818Y750030D01*
X594742Y749926D01*
X594727Y749909D01*
X594725Y749903D01*
X594719Y749895D01*
X592434Y745937D01*
X587563Y741066D01*
X581598Y737622D01*
X574944Y735839D01*
X568056Y735839D01*
X561402Y737622D01*
X555437Y741066D01*
X550566Y745937D01*
X547122Y751902D01*
X545339Y758556D01*
X545339Y765444D01*
X547122Y772098D01*
X550566Y778063D01*
X555437Y782934D01*
X561402Y786378D01*
X562473Y786665D01*
X562495Y786675D01*
X562518Y786679D01*
X562606Y786725D01*
X562697Y786766D01*
X562714Y786782D01*
X562736Y786794D01*
X562804Y786866D01*
X562877Y786933D01*
X562888Y786954D01*
X562905Y786972D01*
X562947Y787062D01*
X562994Y787149D01*
X562999Y787173D01*
X563009Y787195D01*
X563020Y787294D01*
X563037Y787392D01*
X563033Y787416D01*
X563036Y787439D01*
X563015Y787537D01*
X563000Y787635D01*
X562989Y787656D01*
X562984Y787680D01*
X562932Y787765D01*
X562887Y787854D01*
X562870Y787870D01*
X562857Y787891D01*
X562782Y787956D01*
X562710Y788025D01*
X562689Y788035D01*
X562670Y788051D01*
X562578Y788088D01*
X562489Y788131D01*
X562465Y788134D01*
X562442Y788143D01*
X562276Y788161D01*
X47324Y788161D01*
X47301Y788157D01*
X47277Y788160D01*
X47180Y788138D01*
X47082Y788122D01*
X47060Y788110D01*
X47037Y788105D01*
X46952Y788053D01*
X46864Y788006D01*
X46848Y787989D01*
X46827Y787976D01*
X46763Y787900D01*
X46695Y787828D01*
X46685Y787806D01*
X46669Y787788D01*
X46633Y787695D01*
X46591Y787605D01*
X46589Y787581D01*
X46580Y787559D01*
X46575Y787459D01*
X46564Y787361D01*
X46569Y787337D01*
X46568Y787313D01*
X46595Y787217D01*
X46616Y787120D01*
X46629Y787100D01*
X46635Y787076D01*
X46692Y786994D01*
X46743Y786909D01*
X46761Y786893D01*
X46775Y786874D01*
X46854Y786814D01*
X46930Y786749D01*
X46952Y786740D01*
X46971Y786726D01*
X47127Y786665D01*
X48198Y786378D01*
X54163Y782934D01*
X59034Y778063D01*
X62478Y772098D01*
X64261Y765444D01*
X64261Y758556D01*
X62478Y751902D01*
X59034Y745937D01*
X54163Y741066D01*
X48198Y737622D01*
X41544Y735839D01*
X34656Y735839D01*
X28002Y737622D01*
X22037Y741066D01*
X17166Y745937D01*
X13722Y751902D01*
X13435Y752973D01*
X13425Y752995D01*
X13422Y753018D01*
X13375Y753106D01*
X13334Y753197D01*
X13318Y753214D01*
X13306Y753236D01*
X13235Y753304D01*
X13167Y753377D01*
X13146Y753388D01*
X13128Y753405D01*
X13038Y753447D01*
X12951Y753494D01*
X12927Y753499D01*
X12905Y753509D01*
X12806Y753520D01*
X12708Y753537D01*
X12684Y753533D01*
X12661Y753536D01*
X12564Y753515D01*
X12465Y753500D01*
X12444Y753489D01*
X12420Y753484D01*
X12335Y753433D01*
X12247Y753387D01*
X12230Y753370D01*
X12209Y753357D01*
X12144Y753282D01*
X12075Y753210D01*
X12065Y753189D01*
X12049Y753170D01*
X12012Y753078D01*
X11969Y752989D01*
X11966Y752965D01*
X11957Y752942D01*
X11939Y752776D01*
X11939Y47324D01*
X11943Y47301D01*
X11940Y47277D01*
X11962Y47180D01*
X11979Y47082D01*
X11990Y47060D01*
X11995Y47037D01*
X12047Y46952D01*
X12094Y46864D01*
X12111Y46848D01*
X12124Y46827D01*
X12200Y46763D01*
X12272Y46695D01*
X12294Y46685D01*
X12312Y46669D01*
X12405Y46633D01*
X12495Y46591D01*
X12519Y46589D01*
X12541Y46580D01*
X12641Y46575D01*
X12739Y46564D01*
X12763Y46569D01*
X12787Y46568D01*
X12882Y46595D01*
X12980Y46616D01*
X13001Y46629D01*
X13024Y46635D01*
X13105Y46692D01*
X13191Y46743D01*
X13207Y46761D01*
X13226Y46775D01*
X13286Y46854D01*
X13351Y46930D01*
X13360Y46952D01*
X13374Y46971D01*
X13435Y47127D01*
X13722Y48198D01*
X17166Y54163D01*
X22037Y59034D01*
X28002Y62478D01*
X34656Y64261D01*
X41544Y64261D01*
X48198Y62478D01*
X54163Y59034D01*
X59034Y54163D01*
X62478Y48198D01*
X64261Y41544D01*
X64261Y34656D01*
X62478Y28002D01*
X59034Y22037D01*
X54163Y17166D01*
X48198Y13722D01*
X47127Y13435D01*
X47105Y13425D01*
X47082Y13422D01*
X46994Y13375D01*
X46903Y13334D01*
X46886Y13318D01*
X46864Y13306D01*
X46796Y13235D01*
X46723Y13167D01*
X46712Y13146D01*
X46695Y13128D01*
X46653Y13038D01*
X46606Y12951D01*
X46601Y12927D01*
X46591Y12905D01*
X46580Y12806D01*
X46563Y12708D01*
X46567Y12684D01*
X46564Y12661D01*
X46585Y12564D01*
X46600Y12465D01*
X46611Y12444D01*
X46616Y12420D01*
X46667Y12335D01*
X46713Y12247D01*
X46730Y12230D01*
X46743Y12209D01*
X46818Y12144D01*
X46890Y12075D01*
X46911Y12065D01*
X46930Y12049D01*
X47022Y12012D01*
X47111Y11969D01*
X47135Y11966D01*
X47158Y11957D01*
X47324Y11939D01*
X562276Y11939D01*
X562299Y11943D01*
G37*
%LPC*%
G36*
X341296Y106235D02*
X341296Y106235D01*
X338332Y107463D01*
X336798Y108996D01*
X336724Y109049D01*
X336655Y109109D01*
X336625Y109121D01*
X336599Y109140D01*
X336512Y109167D01*
X336427Y109201D01*
X336386Y109205D01*
X336364Y109212D01*
X336331Y109211D01*
X336260Y109219D01*
X332239Y109219D01*
X329905Y110186D01*
X328011Y112080D01*
X282133Y157958D01*
X227910Y212180D01*
X227852Y212222D01*
X227800Y212272D01*
X227753Y212294D01*
X227711Y212324D01*
X227642Y212345D01*
X227577Y212375D01*
X227525Y212381D01*
X227475Y212396D01*
X227404Y212394D01*
X227333Y212402D01*
X227282Y212391D01*
X227230Y212390D01*
X227162Y212365D01*
X227092Y212350D01*
X227047Y212323D01*
X226999Y212306D01*
X226943Y212261D01*
X226881Y212224D01*
X226847Y212184D01*
X226807Y212152D01*
X226768Y212092D01*
X226721Y212037D01*
X226702Y211989D01*
X226674Y211945D01*
X226656Y211875D01*
X226629Y211809D01*
X226621Y211738D01*
X226613Y211706D01*
X226615Y211683D01*
X226611Y211642D01*
X226611Y205641D01*
X223351Y197772D01*
X217328Y191749D01*
X209459Y188489D01*
X200941Y188489D01*
X193072Y191749D01*
X187049Y197772D01*
X183789Y205641D01*
X183789Y214159D01*
X187049Y222028D01*
X193072Y228051D01*
X199372Y230661D01*
X199455Y230712D01*
X199541Y230758D01*
X199559Y230777D01*
X199581Y230790D01*
X199643Y230865D01*
X199710Y230936D01*
X199721Y230960D01*
X199738Y230980D01*
X199773Y231071D01*
X199814Y231159D01*
X199817Y231185D01*
X199826Y231209D01*
X199830Y231307D01*
X199841Y231403D01*
X199835Y231429D01*
X199836Y231455D01*
X199809Y231549D01*
X199789Y231644D01*
X199775Y231666D01*
X199768Y231691D01*
X199712Y231771D01*
X199662Y231855D01*
X199643Y231872D01*
X199628Y231893D01*
X199549Y231952D01*
X199475Y232015D01*
X199451Y232025D01*
X199430Y232040D01*
X199338Y232070D01*
X199247Y232107D01*
X199215Y232110D01*
X199196Y232116D01*
X199163Y232116D01*
X199081Y232125D01*
X194918Y232125D01*
X194025Y233018D01*
X194025Y249582D01*
X194918Y250475D01*
X202769Y250475D01*
X202833Y250485D01*
X202899Y250486D01*
X202979Y250509D01*
X203011Y250514D01*
X203028Y250524D01*
X203060Y250533D01*
X203461Y250699D01*
X203570Y250699D01*
X203608Y250705D01*
X203647Y250703D01*
X203811Y250738D01*
X203914Y250772D01*
X204922Y250701D01*
X204942Y250702D01*
X204976Y250699D01*
X205987Y250699D01*
X206088Y250657D01*
X206126Y250648D01*
X206161Y250631D01*
X206326Y250601D01*
X206434Y250593D01*
X206510Y250555D01*
X206598Y250528D01*
X206684Y250493D01*
X206724Y250489D01*
X206745Y250482D01*
X206778Y250483D01*
X206851Y250475D01*
X211482Y250475D01*
X212375Y249582D01*
X212375Y245994D01*
X212389Y245904D01*
X212397Y245813D01*
X212409Y245783D01*
X212414Y245751D01*
X212457Y245670D01*
X212493Y245587D01*
X212519Y245554D01*
X212530Y245534D01*
X212553Y245512D01*
X212598Y245456D01*
X285085Y172969D01*
X285101Y172957D01*
X285113Y172941D01*
X285201Y172885D01*
X285284Y172825D01*
X285303Y172819D01*
X285320Y172808D01*
X285421Y172783D01*
X285520Y172753D01*
X285539Y172753D01*
X285559Y172748D01*
X285662Y172756D01*
X285765Y172759D01*
X285784Y172766D01*
X285804Y172767D01*
X285899Y172808D01*
X285996Y172843D01*
X286012Y172856D01*
X286030Y172864D01*
X286161Y172969D01*
X448777Y335584D01*
X449679Y335958D01*
X449718Y335982D01*
X449761Y335998D01*
X449822Y336046D01*
X449888Y336087D01*
X449917Y336123D01*
X449953Y336151D01*
X449995Y336217D01*
X450045Y336277D01*
X450061Y336320D01*
X450086Y336358D01*
X450105Y336434D01*
X450133Y336506D01*
X450135Y336552D01*
X450146Y336597D01*
X450140Y336674D01*
X450143Y336752D01*
X450130Y336796D01*
X450127Y336842D01*
X450096Y336913D01*
X450075Y336988D01*
X450049Y337026D01*
X450031Y337068D01*
X449945Y337175D01*
X449934Y337190D01*
X449930Y337193D01*
X449926Y337199D01*
X449422Y337703D01*
X448025Y341075D01*
X448025Y344725D01*
X449422Y348097D01*
X452003Y350678D01*
X455375Y352075D01*
X459025Y352075D01*
X462397Y350678D01*
X464978Y348097D01*
X466363Y344753D01*
X466387Y344714D01*
X466403Y344671D01*
X466452Y344610D01*
X466493Y344544D01*
X466528Y344515D01*
X466557Y344479D01*
X466622Y344437D01*
X466682Y344387D01*
X466725Y344371D01*
X466764Y344346D01*
X466839Y344327D01*
X466912Y344299D01*
X466958Y344297D01*
X467002Y344286D01*
X467080Y344292D01*
X467158Y344288D01*
X467202Y344301D01*
X467247Y344305D01*
X467319Y344335D01*
X467394Y344357D01*
X467432Y344383D01*
X467474Y344401D01*
X467580Y344487D01*
X467596Y344497D01*
X467599Y344501D01*
X467605Y344506D01*
X544535Y421436D01*
X546869Y422403D01*
X560537Y422403D01*
X560651Y422422D01*
X560768Y422439D01*
X560773Y422441D01*
X560779Y422442D01*
X560882Y422497D01*
X560987Y422550D01*
X560991Y422555D01*
X560997Y422558D01*
X561077Y422642D01*
X561159Y422726D01*
X561163Y422732D01*
X561166Y422736D01*
X561174Y422753D01*
X561240Y422873D01*
X562240Y425287D01*
X565313Y428360D01*
X569327Y430023D01*
X573673Y430023D01*
X577687Y428360D01*
X580760Y425287D01*
X582423Y421273D01*
X582423Y416927D01*
X580760Y412913D01*
X577687Y409840D01*
X573673Y408177D01*
X569327Y408177D01*
X565788Y409643D01*
X565724Y409658D01*
X565663Y409683D01*
X565581Y409692D01*
X565548Y409699D01*
X565529Y409698D01*
X565497Y409701D01*
X551078Y409701D01*
X550988Y409687D01*
X550897Y409679D01*
X550867Y409667D01*
X550835Y409662D01*
X550754Y409619D01*
X550671Y409583D01*
X550638Y409557D01*
X550618Y409546D01*
X550596Y409523D01*
X550540Y409478D01*
X465877Y324816D01*
X464796Y324368D01*
X464757Y324344D01*
X464713Y324328D01*
X464653Y324280D01*
X464587Y324238D01*
X464557Y324203D01*
X464521Y324174D01*
X464479Y324109D01*
X464430Y324049D01*
X464413Y324006D01*
X464388Y323967D01*
X464369Y323892D01*
X464342Y323819D01*
X464340Y323773D01*
X464328Y323729D01*
X464334Y323651D01*
X464331Y323574D01*
X464344Y323529D01*
X464347Y323484D01*
X464378Y323412D01*
X464400Y323337D01*
X464426Y323300D01*
X464444Y323257D01*
X464529Y323150D01*
X464540Y323135D01*
X464544Y323132D01*
X464549Y323126D01*
X464978Y322697D01*
X466375Y319325D01*
X466375Y315675D01*
X464978Y312303D01*
X462397Y309722D01*
X459025Y308325D01*
X455375Y308325D01*
X452003Y309722D01*
X449422Y312303D01*
X448111Y315467D01*
X448087Y315506D01*
X448071Y315550D01*
X448023Y315610D01*
X447982Y315676D01*
X447946Y315706D01*
X447918Y315742D01*
X447852Y315784D01*
X447792Y315833D01*
X447749Y315850D01*
X447711Y315875D01*
X447635Y315894D01*
X447563Y315921D01*
X447517Y315923D01*
X447472Y315935D01*
X447395Y315929D01*
X447317Y315932D01*
X447273Y315919D01*
X447227Y315916D01*
X447155Y315885D01*
X447081Y315863D01*
X447043Y315837D01*
X447001Y315819D01*
X446894Y315734D01*
X446879Y315723D01*
X446876Y315719D01*
X446870Y315714D01*
X295143Y163987D01*
X295131Y163971D01*
X295115Y163959D01*
X295059Y163871D01*
X294999Y163788D01*
X294993Y163769D01*
X294982Y163752D01*
X294957Y163651D01*
X294927Y163552D01*
X294927Y163533D01*
X294922Y163513D01*
X294930Y163410D01*
X294933Y163307D01*
X294940Y163288D01*
X294941Y163268D01*
X294982Y163173D01*
X295018Y163076D01*
X295030Y163060D01*
X295038Y163042D01*
X295117Y162943D01*
X295121Y162937D01*
X295125Y162933D01*
X295143Y162911D01*
X335910Y122144D01*
X335984Y122091D01*
X336053Y122031D01*
X336083Y122019D01*
X336109Y122000D01*
X336196Y121973D01*
X336281Y121939D01*
X336322Y121935D01*
X336344Y121928D01*
X336377Y121929D01*
X336448Y121921D01*
X338816Y121921D01*
X338868Y121929D01*
X338921Y121928D01*
X339031Y121956D01*
X339056Y121960D01*
X340058Y121926D01*
X340136Y121936D01*
X340214Y121937D01*
X340272Y121954D01*
X340302Y121957D01*
X340327Y121969D01*
X340376Y121984D01*
X341296Y122365D01*
X344504Y122365D01*
X347468Y121137D01*
X349737Y118868D01*
X350965Y115904D01*
X350965Y112696D01*
X349737Y109732D01*
X347468Y107463D01*
X344504Y106235D01*
X341296Y106235D01*
G37*
%LPD*%
%LPC*%
G36*
X455375Y460725D02*
X455375Y460725D01*
X452003Y462122D01*
X449422Y464703D01*
X449148Y465365D01*
X449086Y465465D01*
X449026Y465565D01*
X449021Y465569D01*
X449018Y465574D01*
X448927Y465649D01*
X448839Y465725D01*
X448833Y465727D01*
X448829Y465731D01*
X448720Y465773D01*
X448611Y465817D01*
X448604Y465818D01*
X448599Y465819D01*
X448581Y465820D01*
X448444Y465835D01*
X394977Y465835D01*
X392643Y466802D01*
X213530Y645914D01*
X213493Y645941D01*
X213462Y645975D01*
X213394Y646013D01*
X213331Y646058D01*
X213287Y646071D01*
X213247Y646094D01*
X213170Y646107D01*
X213096Y646130D01*
X213050Y646129D01*
X213004Y646137D01*
X212927Y646126D01*
X212850Y646124D01*
X212806Y646108D01*
X212761Y646101D01*
X212692Y646066D01*
X212619Y646039D01*
X212583Y646011D01*
X212542Y645990D01*
X212487Y645934D01*
X212427Y645886D01*
X212402Y645847D01*
X212370Y645814D01*
X212304Y645695D01*
X212294Y645679D01*
X212292Y645674D01*
X212289Y645667D01*
X210978Y642503D01*
X208397Y639922D01*
X205025Y638525D01*
X201375Y638525D01*
X198003Y639922D01*
X195422Y642503D01*
X194025Y645875D01*
X194025Y649525D01*
X195463Y652997D01*
X195474Y653041D01*
X195493Y653083D01*
X195502Y653160D01*
X195519Y653236D01*
X195515Y653282D01*
X195520Y653327D01*
X195504Y653404D01*
X195496Y653481D01*
X195478Y653523D01*
X195468Y653568D01*
X195428Y653635D01*
X195396Y653706D01*
X195365Y653740D01*
X195342Y653779D01*
X195283Y653830D01*
X195230Y653887D01*
X195190Y653909D01*
X195155Y653939D01*
X195083Y653968D01*
X195014Y654005D01*
X194969Y654014D01*
X194927Y654031D01*
X194791Y654046D01*
X194772Y654049D01*
X194767Y654048D01*
X194760Y654049D01*
X72912Y654049D01*
X72822Y654035D01*
X72731Y654027D01*
X72701Y654015D01*
X72669Y654010D01*
X72588Y653967D01*
X72504Y653931D01*
X72472Y653905D01*
X72452Y653894D01*
X72429Y653871D01*
X72373Y653826D01*
X69687Y651140D01*
X65673Y649477D01*
X61327Y649477D01*
X57313Y651140D01*
X54240Y654213D01*
X52577Y658227D01*
X52577Y662573D01*
X54240Y666587D01*
X57313Y669660D01*
X61327Y671323D01*
X65673Y671323D01*
X69687Y669660D01*
X72373Y666974D01*
X72447Y666921D01*
X72517Y666861D01*
X72547Y666849D01*
X72573Y666830D01*
X72660Y666803D01*
X72745Y666769D01*
X72786Y666765D01*
X72808Y666758D01*
X72840Y666759D01*
X72912Y666751D01*
X194760Y666751D01*
X194805Y666758D01*
X194851Y666756D01*
X194926Y666778D01*
X195003Y666790D01*
X195043Y666812D01*
X195087Y666825D01*
X195151Y666869D01*
X195220Y666906D01*
X195252Y666939D01*
X195289Y666965D01*
X195336Y667028D01*
X195389Y667084D01*
X195409Y667126D01*
X195436Y667162D01*
X195460Y667236D01*
X195493Y667307D01*
X195498Y667353D01*
X195512Y667396D01*
X195512Y667474D01*
X195520Y667551D01*
X195510Y667596D01*
X195510Y667642D01*
X195472Y667774D01*
X195468Y667792D01*
X195465Y667796D01*
X195463Y667803D01*
X194025Y671275D01*
X194025Y674925D01*
X195422Y678297D01*
X198003Y680878D01*
X201375Y682275D01*
X205025Y682275D01*
X208397Y680878D01*
X210978Y678297D01*
X212375Y674925D01*
X212375Y671275D01*
X210978Y667903D01*
X210474Y667399D01*
X210447Y667362D01*
X210414Y667331D01*
X210376Y667263D01*
X210331Y667199D01*
X210317Y667156D01*
X210295Y667115D01*
X210281Y667039D01*
X210258Y666964D01*
X210260Y666918D01*
X210251Y666873D01*
X210263Y666796D01*
X210265Y666718D01*
X210280Y666675D01*
X210287Y666630D01*
X210322Y666561D01*
X210349Y666487D01*
X210378Y666452D01*
X210399Y666411D01*
X210454Y666356D01*
X210503Y666295D01*
X210542Y666271D01*
X210574Y666238D01*
X210694Y666173D01*
X210710Y666162D01*
X210715Y666161D01*
X210721Y666158D01*
X211623Y665784D01*
X398648Y478760D01*
X398722Y478707D01*
X398791Y478647D01*
X398821Y478635D01*
X398847Y478616D01*
X398934Y478589D01*
X399019Y478555D01*
X399060Y478551D01*
X399082Y478544D01*
X399115Y478545D01*
X399186Y478537D01*
X453925Y478537D01*
X453989Y478547D01*
X454055Y478548D01*
X454135Y478571D01*
X454168Y478576D01*
X454185Y478586D01*
X454216Y478595D01*
X455375Y479075D01*
X459025Y479075D01*
X462397Y477678D01*
X464978Y475097D01*
X466375Y471725D01*
X466375Y468075D01*
X464978Y464703D01*
X462397Y462122D01*
X459025Y460725D01*
X455375Y460725D01*
G37*
%LPD*%
%LPC*%
G36*
X341296Y55435D02*
X341296Y55435D01*
X338332Y56663D01*
X336063Y58932D01*
X335944Y59219D01*
X335883Y59318D01*
X335822Y59419D01*
X335818Y59423D01*
X335814Y59428D01*
X335724Y59503D01*
X335636Y59579D01*
X335630Y59581D01*
X335625Y59585D01*
X335517Y59627D01*
X335407Y59671D01*
X335400Y59672D01*
X335395Y59673D01*
X335377Y59674D01*
X335241Y59689D01*
X160535Y59689D01*
X158201Y60656D01*
X117423Y101433D01*
X117388Y101459D01*
X117358Y101491D01*
X117288Y101530D01*
X117224Y101577D01*
X117182Y101590D01*
X117143Y101611D01*
X117065Y101626D01*
X116989Y101649D01*
X116945Y101648D01*
X116902Y101656D01*
X116823Y101645D01*
X116743Y101643D01*
X116702Y101628D01*
X116658Y101622D01*
X116525Y101563D01*
X116512Y101558D01*
X116509Y101556D01*
X116504Y101554D01*
X112452Y99215D01*
X105960Y97475D01*
X99240Y97475D01*
X92748Y99215D01*
X86927Y102575D01*
X82175Y107327D01*
X78815Y113148D01*
X77075Y119640D01*
X77075Y126360D01*
X78815Y132852D01*
X82175Y138673D01*
X86927Y143425D01*
X92748Y146785D01*
X99240Y148525D01*
X105960Y148525D01*
X112452Y146785D01*
X118273Y143425D01*
X123025Y138673D01*
X126385Y132852D01*
X128125Y126360D01*
X128125Y119640D01*
X126385Y113148D01*
X125684Y111933D01*
X125669Y111892D01*
X125645Y111855D01*
X125625Y111778D01*
X125597Y111703D01*
X125595Y111659D01*
X125585Y111617D01*
X125591Y111537D01*
X125588Y111457D01*
X125600Y111415D01*
X125604Y111372D01*
X125635Y111298D01*
X125658Y111221D01*
X125683Y111186D01*
X125700Y111145D01*
X125791Y111032D01*
X125799Y111020D01*
X125802Y111018D01*
X125805Y111014D01*
X164206Y72614D01*
X164280Y72561D01*
X164349Y72501D01*
X164379Y72489D01*
X164405Y72470D01*
X164492Y72443D01*
X164577Y72409D01*
X164618Y72405D01*
X164640Y72398D01*
X164673Y72399D01*
X164744Y72391D01*
X339937Y72391D01*
X339951Y72393D01*
X339973Y72392D01*
X341066Y72444D01*
X341088Y72436D01*
X341135Y72427D01*
X341179Y72409D01*
X341309Y72395D01*
X341330Y72391D01*
X341336Y72392D01*
X341346Y72391D01*
X341369Y72391D01*
X342380Y71972D01*
X342394Y71969D01*
X342414Y71959D01*
X343386Y71610D01*
X343432Y71601D01*
X343476Y71583D01*
X343606Y71569D01*
X343628Y71565D01*
X343634Y71566D01*
X343643Y71565D01*
X344504Y71565D01*
X347468Y70337D01*
X349737Y68068D01*
X350965Y65104D01*
X350965Y61896D01*
X349737Y58932D01*
X347468Y56663D01*
X344504Y55435D01*
X341296Y55435D01*
G37*
%LPD*%
%LPC*%
G36*
X569327Y433577D02*
X569327Y433577D01*
X565313Y435240D01*
X562240Y438313D01*
X560577Y442327D01*
X560577Y446673D01*
X560612Y446758D01*
X560639Y446871D01*
X560668Y446985D01*
X560667Y446991D01*
X560669Y446997D01*
X560658Y447113D01*
X560649Y447230D01*
X560646Y447236D01*
X560646Y447242D01*
X560598Y447349D01*
X560552Y447456D01*
X560548Y447462D01*
X560546Y447467D01*
X560533Y447480D01*
X560447Y447587D01*
X552654Y455381D01*
X551687Y457715D01*
X551687Y512166D01*
X551673Y512256D01*
X551665Y512347D01*
X551653Y512377D01*
X551648Y512409D01*
X551605Y512490D01*
X551569Y512573D01*
X551543Y512606D01*
X551532Y512626D01*
X551509Y512648D01*
X551464Y512704D01*
X467674Y596494D01*
X467616Y596536D01*
X467564Y596586D01*
X467517Y596608D01*
X467475Y596638D01*
X467406Y596659D01*
X467341Y596689D01*
X467289Y596695D01*
X467239Y596710D01*
X467168Y596708D01*
X467097Y596716D01*
X467046Y596705D01*
X466994Y596704D01*
X466926Y596679D01*
X466856Y596664D01*
X466812Y596637D01*
X466763Y596620D01*
X466707Y596575D01*
X466645Y596538D01*
X466611Y596498D01*
X466571Y596466D01*
X466532Y596406D01*
X466485Y596351D01*
X466466Y596303D01*
X466438Y596259D01*
X466420Y596189D01*
X466393Y596123D01*
X466385Y596052D01*
X466377Y596020D01*
X466379Y595997D01*
X466375Y595956D01*
X466375Y595075D01*
X464978Y591703D01*
X462397Y589122D01*
X459025Y587725D01*
X455375Y587725D01*
X452003Y589122D01*
X449422Y591703D01*
X448025Y595075D01*
X448025Y598725D01*
X449422Y602097D01*
X452003Y604678D01*
X455375Y606075D01*
X456256Y606075D01*
X456327Y606086D01*
X456399Y606088D01*
X456448Y606106D01*
X456499Y606114D01*
X456562Y606148D01*
X456630Y606173D01*
X456670Y606205D01*
X456716Y606230D01*
X456766Y606282D01*
X456822Y606326D01*
X456850Y606370D01*
X456886Y606408D01*
X456916Y606473D01*
X456955Y606533D01*
X456967Y606584D01*
X456989Y606631D01*
X456997Y606702D01*
X457015Y606772D01*
X457011Y606824D01*
X457016Y606875D01*
X457001Y606946D01*
X456996Y607017D01*
X456975Y607065D01*
X456964Y607116D01*
X456927Y607177D01*
X456899Y607243D01*
X456854Y607299D01*
X456838Y607327D01*
X456820Y607342D01*
X456794Y607374D01*
X453594Y610575D01*
X452627Y612909D01*
X452627Y613755D01*
X452608Y613870D01*
X452591Y613986D01*
X452589Y613991D01*
X452588Y613998D01*
X452533Y614101D01*
X452480Y614205D01*
X452475Y614209D01*
X452472Y614215D01*
X452388Y614295D01*
X452304Y614377D01*
X452298Y614381D01*
X452294Y614384D01*
X452277Y614392D01*
X452157Y614458D01*
X452003Y614522D01*
X449422Y617103D01*
X448025Y620475D01*
X448025Y624125D01*
X449422Y627497D01*
X452003Y630078D01*
X455375Y631475D01*
X459025Y631475D01*
X462397Y630078D01*
X464978Y627497D01*
X466375Y624125D01*
X466375Y620475D01*
X465387Y618090D01*
X465372Y618026D01*
X465347Y617965D01*
X465338Y617882D01*
X465331Y617850D01*
X465332Y617831D01*
X465329Y617798D01*
X465329Y617118D01*
X465331Y617104D01*
X465330Y617093D01*
X465342Y617036D01*
X465343Y617028D01*
X465351Y616937D01*
X465363Y616907D01*
X465368Y616875D01*
X465411Y616794D01*
X465447Y616711D01*
X465473Y616678D01*
X465484Y616658D01*
X465507Y616636D01*
X465552Y616580D01*
X563422Y518709D01*
X564389Y516375D01*
X564389Y479916D01*
X564396Y479871D01*
X564394Y479825D01*
X564416Y479750D01*
X564428Y479674D01*
X564450Y479633D01*
X564463Y479589D01*
X564507Y479525D01*
X564544Y479456D01*
X564577Y479425D01*
X564603Y479387D01*
X564666Y479340D01*
X564722Y479287D01*
X564764Y479268D01*
X564800Y479240D01*
X564874Y479216D01*
X564945Y479183D01*
X564991Y479178D01*
X565034Y479164D01*
X565112Y479165D01*
X565189Y479156D01*
X565234Y479166D01*
X565280Y479166D01*
X565412Y479204D01*
X565430Y479208D01*
X565434Y479211D01*
X565441Y479213D01*
X569327Y480823D01*
X573673Y480823D01*
X577687Y479160D01*
X580760Y476087D01*
X582423Y472073D01*
X582423Y467727D01*
X580760Y463713D01*
X577687Y460640D01*
X573673Y458977D01*
X569327Y458977D01*
X568924Y459144D01*
X568830Y459166D01*
X568736Y459195D01*
X568710Y459194D01*
X568685Y459200D01*
X568588Y459191D01*
X568490Y459189D01*
X568466Y459180D01*
X568440Y459177D01*
X568351Y459138D01*
X568259Y459104D01*
X568239Y459088D01*
X568215Y459077D01*
X568144Y459011D01*
X568067Y458951D01*
X568053Y458929D01*
X568034Y458911D01*
X567987Y458826D01*
X567934Y458744D01*
X567928Y458718D01*
X567915Y458695D01*
X567898Y458600D01*
X567874Y458505D01*
X567876Y458479D01*
X567872Y458453D01*
X567886Y458357D01*
X567894Y458260D01*
X567904Y458236D01*
X567908Y458210D01*
X567952Y458123D01*
X567990Y458034D01*
X568010Y458008D01*
X568019Y457991D01*
X568043Y457968D01*
X568095Y457903D01*
X570352Y455646D01*
X570426Y455593D01*
X570495Y455533D01*
X570525Y455521D01*
X570551Y455502D01*
X570638Y455475D01*
X570723Y455441D01*
X570764Y455437D01*
X570786Y455430D01*
X570819Y455431D01*
X570890Y455423D01*
X573673Y455423D01*
X577687Y453760D01*
X580760Y450687D01*
X582423Y446673D01*
X582423Y442327D01*
X580760Y438313D01*
X577687Y435240D01*
X573673Y433577D01*
X569327Y433577D01*
G37*
%LPD*%
%LPC*%
G36*
X52240Y127475D02*
X52240Y127475D01*
X45748Y129215D01*
X39927Y132575D01*
X35175Y137327D01*
X31815Y143148D01*
X30075Y149640D01*
X30075Y156360D01*
X31815Y162852D01*
X35175Y168673D01*
X39927Y173425D01*
X45748Y176785D01*
X52240Y178525D01*
X58960Y178525D01*
X65452Y176785D01*
X71273Y173425D01*
X76025Y168673D01*
X79385Y162852D01*
X81125Y156360D01*
X81125Y149640D01*
X79385Y143148D01*
X76025Y137327D01*
X71273Y132575D01*
X65452Y129215D01*
X58960Y127475D01*
X52240Y127475D01*
G37*
%LPD*%
%LPC*%
G36*
X201375Y689325D02*
X201375Y689325D01*
X198003Y690722D01*
X195422Y693303D01*
X194025Y696675D01*
X194025Y700325D01*
X195422Y703697D01*
X198003Y706278D01*
X200443Y707289D01*
X200504Y707327D01*
X200570Y707356D01*
X200608Y707391D01*
X200652Y707418D01*
X200698Y707474D01*
X200751Y707522D01*
X200776Y707568D01*
X200809Y707608D01*
X200835Y707675D01*
X200870Y707738D01*
X200879Y707789D01*
X200897Y707838D01*
X200900Y707909D01*
X200913Y707980D01*
X200906Y708031D01*
X200908Y708083D01*
X200888Y708152D01*
X200877Y708223D01*
X200854Y708270D01*
X200839Y708320D01*
X200798Y708378D01*
X200766Y708442D01*
X200729Y708479D01*
X200699Y708522D01*
X200642Y708564D01*
X200590Y708615D01*
X200528Y708649D01*
X200502Y708668D01*
X200479Y708676D01*
X200443Y708695D01*
X193072Y711749D01*
X187049Y717772D01*
X183789Y725641D01*
X183789Y734159D01*
X187049Y742028D01*
X193072Y748051D01*
X200941Y751311D01*
X209459Y751311D01*
X217328Y748051D01*
X223351Y742028D01*
X226611Y734159D01*
X226611Y725641D01*
X223351Y717772D01*
X217328Y711749D01*
X209459Y708489D01*
X206886Y708489D01*
X206789Y708474D01*
X206693Y708464D01*
X206669Y708454D01*
X206643Y708450D01*
X206557Y708404D01*
X206468Y708364D01*
X206449Y708347D01*
X206425Y708334D01*
X206358Y708264D01*
X206287Y708198D01*
X206274Y708175D01*
X206256Y708156D01*
X206215Y708068D01*
X206168Y707982D01*
X206163Y707957D01*
X206152Y707933D01*
X206142Y707836D01*
X206124Y707740D01*
X206128Y707714D01*
X206125Y707689D01*
X206146Y707593D01*
X206160Y707497D01*
X206172Y707474D01*
X206178Y707448D01*
X206228Y707365D01*
X206272Y707278D01*
X206290Y707259D01*
X206304Y707237D01*
X206378Y707174D01*
X206447Y707106D01*
X206476Y707090D01*
X206491Y707077D01*
X206507Y707071D01*
X206507Y707070D01*
X206523Y707064D01*
X206594Y707025D01*
X208397Y706278D01*
X210978Y703697D01*
X212375Y700325D01*
X212375Y696675D01*
X210978Y693303D01*
X208397Y690722D01*
X205025Y689325D01*
X201375Y689325D01*
G37*
%LPD*%
%LPC*%
G36*
X450941Y188489D02*
X450941Y188489D01*
X443072Y191749D01*
X437049Y197772D01*
X433789Y205641D01*
X433789Y214159D01*
X437049Y222028D01*
X443072Y228051D01*
X450941Y231311D01*
X453514Y231311D01*
X453611Y231326D01*
X453708Y231336D01*
X453731Y231346D01*
X453757Y231350D01*
X453843Y231396D01*
X453932Y231436D01*
X453952Y231453D01*
X453975Y231466D01*
X454042Y231536D01*
X454113Y231602D01*
X454126Y231625D01*
X454144Y231644D01*
X454185Y231732D01*
X454232Y231818D01*
X454237Y231843D01*
X454248Y231867D01*
X454258Y231964D01*
X454276Y232060D01*
X454272Y232086D01*
X454275Y232111D01*
X454254Y232207D01*
X454240Y232303D01*
X454228Y232326D01*
X454222Y232352D01*
X454173Y232435D01*
X454128Y232522D01*
X454110Y232541D01*
X454096Y232563D01*
X454022Y232626D01*
X453953Y232694D01*
X453924Y232710D01*
X453909Y232723D01*
X453879Y232735D01*
X453806Y232775D01*
X452003Y233522D01*
X449422Y236103D01*
X448025Y239475D01*
X448025Y243125D01*
X449422Y246497D01*
X452003Y249078D01*
X455375Y250475D01*
X459025Y250475D01*
X462397Y249078D01*
X464978Y246497D01*
X466375Y243125D01*
X466375Y239475D01*
X464978Y236103D01*
X462397Y233522D01*
X459957Y232511D01*
X459896Y232473D01*
X459830Y232444D01*
X459792Y232409D01*
X459748Y232382D01*
X459702Y232326D01*
X459649Y232278D01*
X459624Y232232D01*
X459591Y232192D01*
X459565Y232125D01*
X459530Y232062D01*
X459521Y232011D01*
X459503Y231962D01*
X459499Y231891D01*
X459487Y231820D01*
X459494Y231769D01*
X459492Y231717D01*
X459512Y231648D01*
X459523Y231577D01*
X459546Y231530D01*
X459561Y231480D01*
X459601Y231422D01*
X459634Y231358D01*
X459671Y231321D01*
X459701Y231278D01*
X459758Y231236D01*
X459810Y231185D01*
X459872Y231151D01*
X459898Y231132D01*
X459921Y231124D01*
X459957Y231105D01*
X467328Y228051D01*
X473351Y222028D01*
X476611Y214159D01*
X476611Y205641D01*
X473351Y197772D01*
X467328Y191749D01*
X459459Y188489D01*
X450941Y188489D01*
G37*
%LPD*%
%LPC*%
G36*
X457199Y698499D02*
X457199Y698499D01*
X457199Y699262D01*
X457196Y699282D01*
X457198Y699301D01*
X457176Y699403D01*
X457159Y699505D01*
X457150Y699522D01*
X457146Y699542D01*
X457093Y699631D01*
X457044Y699722D01*
X457030Y699736D01*
X457020Y699753D01*
X456941Y699820D01*
X456866Y699891D01*
X456848Y699900D01*
X456833Y699913D01*
X456737Y699952D01*
X456643Y699995D01*
X456623Y699997D01*
X456605Y700005D01*
X456438Y700023D01*
X447009Y700023D01*
X447009Y706484D01*
X447182Y707131D01*
X447517Y707710D01*
X447990Y708183D01*
X448195Y708301D01*
X448212Y708315D01*
X448232Y708324D01*
X448307Y708393D01*
X448385Y708457D01*
X448397Y708476D01*
X448413Y708491D01*
X448462Y708580D01*
X448516Y708665D01*
X448521Y708687D01*
X448532Y708706D01*
X448550Y708806D01*
X448573Y708904D01*
X448571Y708926D01*
X448575Y708948D01*
X448561Y709048D01*
X448552Y709149D01*
X448543Y709170D01*
X448539Y709191D01*
X448494Y709282D01*
X448453Y709375D01*
X448438Y709391D01*
X448428Y709411D01*
X448355Y709482D01*
X448287Y709557D01*
X448268Y709567D01*
X448252Y709583D01*
X448105Y709664D01*
X443072Y711749D01*
X437049Y717772D01*
X433789Y725641D01*
X433789Y734159D01*
X437049Y742028D01*
X443072Y748051D01*
X450941Y751311D01*
X459459Y751311D01*
X467328Y748051D01*
X473351Y742028D01*
X476611Y734159D01*
X476611Y725641D01*
X473351Y717772D01*
X467328Y711749D01*
X463481Y710155D01*
X463398Y710104D01*
X463312Y710058D01*
X463294Y710039D01*
X463272Y710026D01*
X463210Y709951D01*
X463143Y709880D01*
X463132Y709856D01*
X463115Y709836D01*
X463080Y709745D01*
X463039Y709657D01*
X463036Y709631D01*
X463027Y709607D01*
X463023Y709509D01*
X463012Y709412D01*
X463018Y709387D01*
X463016Y709361D01*
X463044Y709267D01*
X463064Y709172D01*
X463078Y709150D01*
X463085Y709125D01*
X463140Y709045D01*
X463190Y708961D01*
X463210Y708944D01*
X463225Y708923D01*
X463303Y708864D01*
X463377Y708801D01*
X463402Y708791D01*
X463423Y708776D01*
X463515Y708746D01*
X463606Y708709D01*
X463638Y708706D01*
X463656Y708700D01*
X463690Y708700D01*
X463772Y708691D01*
X465185Y708691D01*
X465831Y708518D01*
X466410Y708183D01*
X466883Y707710D01*
X467218Y707131D01*
X467391Y706484D01*
X467391Y700023D01*
X457962Y700023D01*
X457942Y700020D01*
X457923Y700022D01*
X457821Y700000D01*
X457719Y699983D01*
X457702Y699974D01*
X457682Y699970D01*
X457593Y699917D01*
X457502Y699868D01*
X457488Y699854D01*
X457471Y699844D01*
X457404Y699765D01*
X457333Y699690D01*
X457324Y699672D01*
X457311Y699657D01*
X457273Y699561D01*
X457229Y699467D01*
X457227Y699447D01*
X457219Y699429D01*
X457201Y699262D01*
X457201Y698499D01*
X457199Y698499D01*
G37*
%LPD*%
%LPC*%
G36*
X104123Y183523D02*
X104123Y183523D01*
X104123Y208537D01*
X107053Y208207D01*
X109719Y207598D01*
X109959Y207544D01*
X112773Y206559D01*
X115459Y205266D01*
X117983Y203680D01*
X120313Y201821D01*
X122421Y199713D01*
X124280Y197383D01*
X125866Y194859D01*
X127159Y192173D01*
X128144Y189359D01*
X128807Y186453D01*
X129137Y183523D01*
X104123Y183523D01*
G37*
%LPD*%
%LPC*%
G36*
X104123Y180477D02*
X104123Y180477D01*
X129137Y180477D01*
X128807Y177547D01*
X128144Y174641D01*
X127159Y171827D01*
X125866Y169141D01*
X124280Y166617D01*
X122421Y164287D01*
X120313Y162179D01*
X117983Y160320D01*
X115459Y158734D01*
X112773Y157441D01*
X109959Y156456D01*
X107053Y155793D01*
X104123Y155463D01*
X104123Y180477D01*
G37*
%LPD*%
%LPC*%
G36*
X76063Y183523D02*
X76063Y183523D01*
X76393Y186453D01*
X77056Y189359D01*
X78041Y192173D01*
X79334Y194859D01*
X80920Y197383D01*
X82779Y199713D01*
X84887Y201821D01*
X87217Y203680D01*
X89741Y205266D01*
X92427Y206559D01*
X95241Y207544D01*
X98147Y208207D01*
X101077Y208537D01*
X101077Y183523D01*
X76063Y183523D01*
G37*
%LPD*%
%LPC*%
G36*
X98147Y155793D02*
X98147Y155793D01*
X98132Y155797D01*
X95241Y156456D01*
X92427Y157441D01*
X89741Y158734D01*
X87217Y160320D01*
X84887Y162179D01*
X82779Y164287D01*
X80920Y166617D01*
X79334Y169141D01*
X78041Y171827D01*
X77056Y174641D01*
X76393Y177547D01*
X76063Y180477D01*
X101077Y180477D01*
X101077Y155463D01*
X98147Y155793D01*
G37*
%LPD*%
%LPC*%
G36*
X569327Y382777D02*
X569327Y382777D01*
X565313Y384440D01*
X562240Y387513D01*
X560577Y391527D01*
X560577Y395873D01*
X562240Y399887D01*
X565313Y402960D01*
X569327Y404623D01*
X573673Y404623D01*
X577687Y402960D01*
X580760Y399887D01*
X582423Y395873D01*
X582423Y391527D01*
X580760Y387513D01*
X577687Y384440D01*
X573673Y382777D01*
X569327Y382777D01*
G37*
%LPD*%
%LPC*%
G36*
X61327Y624077D02*
X61327Y624077D01*
X57313Y625740D01*
X54240Y628813D01*
X52577Y632827D01*
X52577Y637173D01*
X54240Y641187D01*
X57313Y644260D01*
X61327Y645923D01*
X65673Y645923D01*
X69687Y644260D01*
X72760Y641187D01*
X74423Y637173D01*
X74423Y632827D01*
X72760Y628813D01*
X69687Y625740D01*
X65673Y624077D01*
X61327Y624077D01*
G37*
%LPD*%
%LPC*%
G36*
X61327Y598677D02*
X61327Y598677D01*
X57313Y600340D01*
X54240Y603413D01*
X52577Y607427D01*
X52577Y611773D01*
X54240Y615787D01*
X57313Y618860D01*
X61327Y620523D01*
X65673Y620523D01*
X69687Y618860D01*
X72760Y615787D01*
X74423Y611773D01*
X74423Y607427D01*
X72760Y603413D01*
X69687Y600340D01*
X65673Y598677D01*
X61327Y598677D01*
G37*
%LPD*%
%LPC*%
G36*
X455375Y282925D02*
X455375Y282925D01*
X452003Y284322D01*
X449422Y286903D01*
X448025Y290275D01*
X448025Y293925D01*
X449422Y297297D01*
X452003Y299878D01*
X455375Y301275D01*
X459025Y301275D01*
X462397Y299878D01*
X464978Y297297D01*
X466375Y293925D01*
X466375Y290275D01*
X464978Y286903D01*
X462397Y284322D01*
X459025Y282925D01*
X455375Y282925D01*
G37*
%LPD*%
%LPC*%
G36*
X455375Y257525D02*
X455375Y257525D01*
X452003Y258922D01*
X449422Y261503D01*
X448025Y264875D01*
X448025Y268525D01*
X449422Y271897D01*
X452003Y274478D01*
X455375Y275875D01*
X459025Y275875D01*
X462397Y274478D01*
X464978Y271897D01*
X466375Y268525D01*
X466375Y264875D01*
X464978Y261503D01*
X462397Y258922D01*
X459025Y257525D01*
X455375Y257525D01*
G37*
%LPD*%
%LPC*%
G36*
X455375Y663925D02*
X455375Y663925D01*
X452003Y665322D01*
X449422Y667903D01*
X448025Y671275D01*
X448025Y674925D01*
X449422Y678297D01*
X452003Y680878D01*
X455375Y682275D01*
X459025Y682275D01*
X462397Y680878D01*
X464978Y678297D01*
X466375Y674925D01*
X466375Y671275D01*
X464978Y667903D01*
X462397Y665322D01*
X459025Y663925D01*
X455375Y663925D01*
G37*
%LPD*%
%LPC*%
G36*
X455375Y638525D02*
X455375Y638525D01*
X452003Y639922D01*
X449422Y642503D01*
X448025Y645875D01*
X448025Y649525D01*
X449422Y652897D01*
X452003Y655478D01*
X455375Y656875D01*
X459025Y656875D01*
X462397Y655478D01*
X464978Y652897D01*
X466375Y649525D01*
X466375Y645875D01*
X464978Y642503D01*
X462397Y639922D01*
X459025Y638525D01*
X455375Y638525D01*
G37*
%LPD*%
%LPC*%
G36*
X201375Y613125D02*
X201375Y613125D01*
X198003Y614522D01*
X195422Y617103D01*
X194025Y620475D01*
X194025Y624125D01*
X195422Y627497D01*
X198003Y630078D01*
X201375Y631475D01*
X205025Y631475D01*
X208397Y630078D01*
X210978Y627497D01*
X212375Y624125D01*
X212375Y620475D01*
X210978Y617103D01*
X208397Y614522D01*
X205025Y613125D01*
X201375Y613125D01*
G37*
%LPD*%
%LPC*%
G36*
X201375Y587725D02*
X201375Y587725D01*
X198003Y589122D01*
X195422Y591703D01*
X194025Y595075D01*
X194025Y598725D01*
X195422Y602097D01*
X198003Y604678D01*
X201375Y606075D01*
X205025Y606075D01*
X208397Y604678D01*
X210978Y602097D01*
X212375Y598725D01*
X212375Y595075D01*
X210978Y591703D01*
X208397Y589122D01*
X205025Y587725D01*
X201375Y587725D01*
G37*
%LPD*%
%LPC*%
G36*
X201375Y257525D02*
X201375Y257525D01*
X198003Y258922D01*
X195422Y261503D01*
X194025Y264875D01*
X194025Y268525D01*
X195422Y271897D01*
X198003Y274478D01*
X201375Y275875D01*
X205025Y275875D01*
X208397Y274478D01*
X210978Y271897D01*
X212375Y268525D01*
X212375Y264875D01*
X210978Y261503D01*
X208397Y258922D01*
X205025Y257525D01*
X201375Y257525D01*
G37*
%LPD*%
%LPC*%
G36*
X201375Y282925D02*
X201375Y282925D01*
X198003Y284322D01*
X195422Y286903D01*
X194025Y290275D01*
X194025Y293925D01*
X195422Y297297D01*
X198003Y299878D01*
X201375Y301275D01*
X205025Y301275D01*
X208397Y299878D01*
X210978Y297297D01*
X212375Y293925D01*
X212375Y290275D01*
X210978Y286903D01*
X208397Y284322D01*
X205025Y282925D01*
X201375Y282925D01*
G37*
%LPD*%
%LPC*%
G36*
X201375Y562325D02*
X201375Y562325D01*
X198003Y563722D01*
X195422Y566303D01*
X194025Y569675D01*
X194025Y573325D01*
X195422Y576697D01*
X198003Y579278D01*
X201375Y580675D01*
X205025Y580675D01*
X208397Y579278D01*
X210978Y576697D01*
X212375Y573325D01*
X212375Y569675D01*
X210978Y566303D01*
X208397Y563722D01*
X205025Y562325D01*
X201375Y562325D01*
G37*
%LPD*%
%LPC*%
G36*
X455375Y562325D02*
X455375Y562325D01*
X452003Y563722D01*
X449422Y566303D01*
X448025Y569675D01*
X448025Y573325D01*
X449422Y576697D01*
X452003Y579278D01*
X455375Y580675D01*
X459025Y580675D01*
X462397Y579278D01*
X464978Y576697D01*
X466375Y573325D01*
X466375Y569675D01*
X464978Y566303D01*
X462397Y563722D01*
X459025Y562325D01*
X455375Y562325D01*
G37*
%LPD*%
%LPC*%
G36*
X201375Y536925D02*
X201375Y536925D01*
X198003Y538322D01*
X195422Y540903D01*
X194025Y544275D01*
X194025Y547925D01*
X195422Y551297D01*
X198003Y553878D01*
X201375Y555275D01*
X205025Y555275D01*
X208397Y553878D01*
X210978Y551297D01*
X212375Y547925D01*
X212375Y544275D01*
X210978Y540903D01*
X208397Y538322D01*
X205025Y536925D01*
X201375Y536925D01*
G37*
%LPD*%
%LPC*%
G36*
X455375Y511525D02*
X455375Y511525D01*
X452003Y512922D01*
X449422Y515503D01*
X448025Y518875D01*
X448025Y522525D01*
X449422Y525897D01*
X452003Y528478D01*
X455375Y529875D01*
X459025Y529875D01*
X462397Y528478D01*
X464978Y525897D01*
X466375Y522525D01*
X466375Y518875D01*
X464978Y515503D01*
X462397Y512922D01*
X459025Y511525D01*
X455375Y511525D01*
G37*
%LPD*%
%LPC*%
G36*
X201375Y511525D02*
X201375Y511525D01*
X198003Y512922D01*
X195422Y515503D01*
X194025Y518875D01*
X194025Y522525D01*
X195422Y525897D01*
X198003Y528478D01*
X201375Y529875D01*
X205025Y529875D01*
X208397Y528478D01*
X210978Y525897D01*
X212375Y522525D01*
X212375Y518875D01*
X210978Y515503D01*
X208397Y512922D01*
X205025Y511525D01*
X201375Y511525D01*
G37*
%LPD*%
%LPC*%
G36*
X455375Y486125D02*
X455375Y486125D01*
X452003Y487522D01*
X449422Y490103D01*
X448025Y493475D01*
X448025Y497125D01*
X449422Y500497D01*
X452003Y503078D01*
X455375Y504475D01*
X459025Y504475D01*
X462397Y503078D01*
X464978Y500497D01*
X466375Y497125D01*
X466375Y493475D01*
X464978Y490103D01*
X462397Y487522D01*
X459025Y486125D01*
X455375Y486125D01*
G37*
%LPD*%
%LPC*%
G36*
X201375Y486125D02*
X201375Y486125D01*
X198003Y487522D01*
X195422Y490103D01*
X194025Y493475D01*
X194025Y497125D01*
X195422Y500497D01*
X198003Y503078D01*
X201375Y504475D01*
X205025Y504475D01*
X208397Y503078D01*
X210978Y500497D01*
X212375Y497125D01*
X212375Y493475D01*
X210978Y490103D01*
X208397Y487522D01*
X205025Y486125D01*
X201375Y486125D01*
G37*
%LPD*%
%LPC*%
G36*
X201375Y460725D02*
X201375Y460725D01*
X198003Y462122D01*
X195422Y464703D01*
X194025Y468075D01*
X194025Y471725D01*
X195422Y475097D01*
X198003Y477678D01*
X201375Y479075D01*
X205025Y479075D01*
X208397Y477678D01*
X210978Y475097D01*
X212375Y471725D01*
X212375Y468075D01*
X210978Y464703D01*
X208397Y462122D01*
X205025Y460725D01*
X201375Y460725D01*
G37*
%LPD*%
%LPC*%
G36*
X201375Y435325D02*
X201375Y435325D01*
X198003Y436722D01*
X195422Y439303D01*
X194025Y442675D01*
X194025Y446325D01*
X195422Y449697D01*
X198003Y452278D01*
X201375Y453675D01*
X205025Y453675D01*
X208397Y452278D01*
X210978Y449697D01*
X212375Y446325D01*
X212375Y442675D01*
X210978Y439303D01*
X208397Y436722D01*
X205025Y435325D01*
X201375Y435325D01*
G37*
%LPD*%
%LPC*%
G36*
X455375Y435325D02*
X455375Y435325D01*
X452003Y436722D01*
X449422Y439303D01*
X448025Y442675D01*
X448025Y446325D01*
X449422Y449697D01*
X452003Y452278D01*
X455375Y453675D01*
X459025Y453675D01*
X462397Y452278D01*
X464978Y449697D01*
X466375Y446325D01*
X466375Y442675D01*
X464978Y439303D01*
X462397Y436722D01*
X459025Y435325D01*
X455375Y435325D01*
G37*
%LPD*%
%LPC*%
G36*
X455375Y409925D02*
X455375Y409925D01*
X452003Y411322D01*
X449422Y413903D01*
X448025Y417275D01*
X448025Y420925D01*
X449422Y424297D01*
X452003Y426878D01*
X455375Y428275D01*
X459025Y428275D01*
X462397Y426878D01*
X464978Y424297D01*
X466375Y420925D01*
X466375Y417275D01*
X464978Y413903D01*
X462397Y411322D01*
X459025Y409925D01*
X455375Y409925D01*
G37*
%LPD*%
%LPC*%
G36*
X201375Y409925D02*
X201375Y409925D01*
X198003Y411322D01*
X195422Y413903D01*
X194025Y417275D01*
X194025Y420925D01*
X195422Y424297D01*
X198003Y426878D01*
X201375Y428275D01*
X205025Y428275D01*
X208397Y426878D01*
X210978Y424297D01*
X212375Y420925D01*
X212375Y417275D01*
X210978Y413903D01*
X208397Y411322D01*
X205025Y409925D01*
X201375Y409925D01*
G37*
%LPD*%
%LPC*%
G36*
X455375Y384525D02*
X455375Y384525D01*
X452003Y385922D01*
X449422Y388503D01*
X448025Y391875D01*
X448025Y395525D01*
X449422Y398897D01*
X452003Y401478D01*
X455375Y402875D01*
X459025Y402875D01*
X462397Y401478D01*
X464978Y398897D01*
X466375Y395525D01*
X466375Y391875D01*
X464978Y388503D01*
X462397Y385922D01*
X459025Y384525D01*
X455375Y384525D01*
G37*
%LPD*%
%LPC*%
G36*
X201375Y384525D02*
X201375Y384525D01*
X198003Y385922D01*
X195422Y388503D01*
X194025Y391875D01*
X194025Y395525D01*
X195422Y398897D01*
X198003Y401478D01*
X201375Y402875D01*
X205025Y402875D01*
X208397Y401478D01*
X210978Y398897D01*
X212375Y395525D01*
X212375Y391875D01*
X210978Y388503D01*
X208397Y385922D01*
X205025Y384525D01*
X201375Y384525D01*
G37*
%LPD*%
%LPC*%
G36*
X455375Y359125D02*
X455375Y359125D01*
X452003Y360522D01*
X449422Y363103D01*
X448025Y366475D01*
X448025Y370125D01*
X449422Y373497D01*
X452003Y376078D01*
X455375Y377475D01*
X459025Y377475D01*
X462397Y376078D01*
X464978Y373497D01*
X466375Y370125D01*
X466375Y366475D01*
X464978Y363103D01*
X462397Y360522D01*
X459025Y359125D01*
X455375Y359125D01*
G37*
%LPD*%
%LPC*%
G36*
X201375Y333725D02*
X201375Y333725D01*
X198003Y335122D01*
X195422Y337703D01*
X194025Y341075D01*
X194025Y344725D01*
X195422Y348097D01*
X198003Y350678D01*
X201375Y352075D01*
X205025Y352075D01*
X208397Y350678D01*
X210978Y348097D01*
X212375Y344725D01*
X212375Y341075D01*
X210978Y337703D01*
X208397Y335122D01*
X205025Y333725D01*
X201375Y333725D01*
G37*
%LPD*%
%LPC*%
G36*
X201375Y308325D02*
X201375Y308325D01*
X198003Y309722D01*
X195422Y312303D01*
X194025Y315675D01*
X194025Y319325D01*
X195422Y322697D01*
X198003Y325278D01*
X201375Y326675D01*
X205025Y326675D01*
X208397Y325278D01*
X210978Y322697D01*
X212375Y319325D01*
X212375Y315675D01*
X210978Y312303D01*
X208397Y309722D01*
X205025Y308325D01*
X201375Y308325D01*
G37*
%LPD*%
%LPC*%
G36*
X65023Y585723D02*
X65023Y585723D01*
X65023Y596046D01*
X66296Y595845D01*
X68083Y595264D01*
X69757Y594411D01*
X71278Y593306D01*
X72606Y591978D01*
X73711Y590457D01*
X74564Y588783D01*
X75145Y586996D01*
X75346Y585723D01*
X65023Y585723D01*
G37*
%LPD*%
%LPC*%
G36*
X573023Y369823D02*
X573023Y369823D01*
X573023Y380146D01*
X574296Y379945D01*
X576083Y379364D01*
X577757Y378511D01*
X579278Y377406D01*
X580606Y376078D01*
X581711Y374557D01*
X582564Y372883D01*
X583145Y371096D01*
X583346Y369823D01*
X573023Y369823D01*
G37*
%LPD*%
%LPC*%
G36*
X51654Y585723D02*
X51654Y585723D01*
X51855Y586996D01*
X52436Y588783D01*
X53289Y590457D01*
X54394Y591978D01*
X55722Y593306D01*
X57243Y594411D01*
X58917Y595264D01*
X60704Y595845D01*
X61977Y596046D01*
X61977Y585723D01*
X51654Y585723D01*
G37*
%LPD*%
%LPC*%
G36*
X573023Y366777D02*
X573023Y366777D01*
X583346Y366777D01*
X583145Y365504D01*
X582564Y363717D01*
X581711Y362043D01*
X580606Y360522D01*
X579278Y359194D01*
X577757Y358089D01*
X576083Y357236D01*
X574296Y356655D01*
X573023Y356454D01*
X573023Y366777D01*
G37*
%LPD*%
%LPC*%
G36*
X559654Y369823D02*
X559654Y369823D01*
X559855Y371096D01*
X560436Y372883D01*
X561289Y374557D01*
X562394Y376078D01*
X563722Y377406D01*
X565243Y378511D01*
X566917Y379364D01*
X568704Y379945D01*
X569977Y380146D01*
X569977Y369823D01*
X559654Y369823D01*
G37*
%LPD*%
%LPC*%
G36*
X65023Y582677D02*
X65023Y582677D01*
X75346Y582677D01*
X75145Y581404D01*
X74564Y579617D01*
X73711Y577943D01*
X72606Y576422D01*
X71278Y575094D01*
X69757Y573989D01*
X68083Y573136D01*
X66296Y572555D01*
X65023Y572354D01*
X65023Y582677D01*
G37*
%LPD*%
%LPC*%
G36*
X568704Y356655D02*
X568704Y356655D01*
X566917Y357236D01*
X565243Y358089D01*
X563722Y359194D01*
X562394Y360522D01*
X561289Y362043D01*
X560436Y363717D01*
X559855Y365504D01*
X559654Y366777D01*
X569977Y366777D01*
X569977Y356454D01*
X568704Y356655D01*
G37*
%LPD*%
%LPC*%
G36*
X60704Y572555D02*
X60704Y572555D01*
X58917Y573136D01*
X57243Y573989D01*
X55722Y575094D01*
X54394Y576422D01*
X53289Y577943D01*
X52436Y579617D01*
X51855Y581404D01*
X51654Y582677D01*
X61977Y582677D01*
X61977Y572354D01*
X60704Y572555D01*
G37*
%LPD*%
%LPC*%
G36*
X458723Y688309D02*
X458723Y688309D01*
X458723Y696977D01*
X467391Y696977D01*
X467391Y690516D01*
X467218Y689869D01*
X466883Y689290D01*
X466410Y688817D01*
X465831Y688482D01*
X465184Y688309D01*
X458723Y688309D01*
G37*
%LPD*%
%LPC*%
G36*
X449216Y688309D02*
X449216Y688309D01*
X448569Y688482D01*
X447990Y688817D01*
X447517Y689290D01*
X447182Y689869D01*
X447009Y690516D01*
X447009Y696977D01*
X455677Y696977D01*
X455677Y688309D01*
X449216Y688309D01*
G37*
%LPD*%
%LPC*%
G36*
X204723Y369823D02*
X204723Y369823D01*
X204723Y378377D01*
X205586Y378240D01*
X207112Y377744D01*
X208541Y377016D01*
X209839Y376073D01*
X210973Y374939D01*
X211916Y373641D01*
X212644Y372212D01*
X213140Y370686D01*
X213277Y369823D01*
X204723Y369823D01*
G37*
%LPD*%
%LPC*%
G36*
X458723Y547623D02*
X458723Y547623D01*
X458723Y556177D01*
X459586Y556040D01*
X461112Y555544D01*
X462541Y554816D01*
X463839Y553873D01*
X464973Y552739D01*
X465916Y551441D01*
X466644Y550012D01*
X467140Y548486D01*
X467277Y547623D01*
X458723Y547623D01*
G37*
%LPD*%
%LPC*%
G36*
X204723Y366777D02*
X204723Y366777D01*
X213277Y366777D01*
X213140Y365914D01*
X212644Y364388D01*
X211916Y362959D01*
X210973Y361661D01*
X209839Y360527D01*
X208541Y359584D01*
X207112Y358856D01*
X205586Y358360D01*
X204723Y358223D01*
X204723Y366777D01*
G37*
%LPD*%
%LPC*%
G36*
X193123Y369823D02*
X193123Y369823D01*
X193260Y370686D01*
X193756Y372212D01*
X194484Y373641D01*
X195427Y374939D01*
X196561Y376073D01*
X197859Y377016D01*
X199288Y377744D01*
X200814Y378240D01*
X201677Y378377D01*
X201677Y369823D01*
X193123Y369823D01*
G37*
%LPD*%
%LPC*%
G36*
X458723Y544577D02*
X458723Y544577D01*
X467277Y544577D01*
X467140Y543714D01*
X466644Y542188D01*
X465916Y540759D01*
X464973Y539461D01*
X463839Y538327D01*
X462541Y537384D01*
X461112Y536656D01*
X459586Y536160D01*
X458723Y536023D01*
X458723Y544577D01*
G37*
%LPD*%
%LPC*%
G36*
X447123Y547623D02*
X447123Y547623D01*
X447260Y548486D01*
X447756Y550012D01*
X448484Y551441D01*
X449427Y552739D01*
X450561Y553873D01*
X451859Y554816D01*
X453288Y555544D01*
X454814Y556040D01*
X455677Y556177D01*
X455677Y547623D01*
X447123Y547623D01*
G37*
%LPD*%
%LPC*%
G36*
X200814Y358360D02*
X200814Y358360D01*
X199288Y358856D01*
X197859Y359584D01*
X196561Y360527D01*
X195427Y361661D01*
X194484Y362959D01*
X193756Y364388D01*
X193260Y365914D01*
X193123Y366777D01*
X201677Y366777D01*
X201677Y358223D01*
X200814Y358360D01*
G37*
%LPD*%
%LPC*%
G36*
X454814Y536160D02*
X454814Y536160D01*
X453288Y536656D01*
X451859Y537384D01*
X450561Y538327D01*
X449427Y539461D01*
X448484Y540759D01*
X447756Y542188D01*
X447260Y543714D01*
X447123Y544577D01*
X455677Y544577D01*
X455677Y536023D01*
X454814Y536160D01*
G37*
%LPD*%
%LPC*%
G36*
X344423Y90423D02*
X344423Y90423D01*
X344423Y97856D01*
X345549Y97632D01*
X347201Y96947D01*
X348689Y95953D01*
X349953Y94689D01*
X350947Y93201D01*
X351632Y91549D01*
X351856Y90423D01*
X344423Y90423D01*
G37*
%LPD*%
%LPC*%
G36*
X333944Y90423D02*
X333944Y90423D01*
X334168Y91549D01*
X334853Y93201D01*
X335847Y94689D01*
X337111Y95953D01*
X338599Y96947D01*
X340251Y97632D01*
X341377Y97856D01*
X341377Y90423D01*
X333944Y90423D01*
G37*
%LPD*%
%LPC*%
G36*
X344423Y87377D02*
X344423Y87377D01*
X351856Y87377D01*
X351632Y86251D01*
X350947Y84599D01*
X349953Y83111D01*
X348689Y81847D01*
X347201Y80853D01*
X345549Y80168D01*
X344423Y79944D01*
X344423Y87377D01*
G37*
%LPD*%
%LPC*%
G36*
X340251Y80168D02*
X340251Y80168D01*
X338599Y80853D01*
X337111Y81847D01*
X335847Y83111D01*
X334853Y84599D01*
X334168Y86251D01*
X333944Y87377D01*
X341377Y87377D01*
X341377Y79944D01*
X340251Y80168D01*
G37*
%LPD*%
%LPC*%
G36*
X203199Y368299D02*
X203199Y368299D01*
X203199Y368301D01*
X203201Y368301D01*
X203201Y368299D01*
X203199Y368299D01*
G37*
%LPD*%
%LPC*%
G36*
X457199Y546099D02*
X457199Y546099D01*
X457199Y546101D01*
X457201Y546101D01*
X457201Y546099D01*
X457199Y546099D01*
G37*
%LPD*%
%LPC*%
G36*
X102599Y181999D02*
X102599Y181999D01*
X102599Y182001D01*
X102601Y182001D01*
X102601Y181999D01*
X102599Y181999D01*
G37*
%LPD*%
%LPC*%
G36*
X571499Y368299D02*
X571499Y368299D01*
X571499Y368301D01*
X571501Y368301D01*
X571501Y368299D01*
X571499Y368299D01*
G37*
%LPD*%
%LPC*%
G36*
X63499Y584199D02*
X63499Y584199D01*
X63499Y584201D01*
X63501Y584201D01*
X63501Y584199D01*
X63499Y584199D01*
G37*
%LPD*%
%LPC*%
G36*
X342899Y88899D02*
X342899Y88899D01*
X342899Y88901D01*
X342901Y88901D01*
X342901Y88899D01*
X342899Y88899D01*
G37*
%LPD*%
D10*
X571500Y368300D03*
X571500Y393700D03*
X571500Y419100D03*
X571500Y444500D03*
X571500Y469900D03*
X63500Y584200D03*
X63500Y609600D03*
X63500Y635000D03*
X63500Y660400D03*
D11*
X55600Y153000D03*
X102600Y123000D03*
X102600Y182000D03*
D12*
X203200Y698500D03*
X203200Y673100D03*
D13*
X203200Y241300D03*
D12*
X203200Y647700D03*
X203200Y622300D03*
X203200Y596900D03*
X203200Y571500D03*
X203200Y546100D03*
X203200Y520700D03*
X203200Y495300D03*
X203200Y469900D03*
X203200Y444500D03*
X203200Y419100D03*
X203200Y393700D03*
X203200Y368300D03*
X203200Y342900D03*
X203200Y317500D03*
X203200Y292100D03*
X203200Y266700D03*
X457200Y241300D03*
X457200Y266700D03*
X457200Y292100D03*
X457200Y317500D03*
X457200Y342900D03*
X457200Y368300D03*
X457200Y393700D03*
X457200Y419100D03*
X457200Y444500D03*
X457200Y469900D03*
X457200Y495300D03*
X457200Y520700D03*
X457200Y546100D03*
X457200Y571500D03*
X457200Y596900D03*
X457200Y622300D03*
X457200Y647700D03*
X457200Y673100D03*
D13*
X457200Y698500D03*
D14*
X342900Y63500D03*
X342900Y88900D03*
X342900Y114300D03*
D15*
X455676Y548132D02*
X455676Y554736D01*
X442468Y567944D01*
X442468Y683514D01*
X455676Y696722D01*
X455676Y548132D02*
X457200Y546100D01*
X455676Y696722D02*
X457200Y698500D01*
X340106Y89154D02*
X198120Y89154D01*
X105664Y181610D01*
X340106Y89154D02*
X342900Y88900D01*
X105664Y181610D02*
X102600Y182000D01*
X201422Y359918D02*
X201422Y366522D01*
X201422Y359918D02*
X105664Y264160D01*
X105664Y184912D01*
X201422Y366522D02*
X203200Y368300D01*
X105664Y184912D02*
X102600Y182000D01*
X66040Y505206D02*
X66040Y581152D01*
X66040Y505206D02*
X201422Y369824D01*
X66040Y581152D02*
X63500Y584200D01*
X201422Y369824D02*
X203200Y368300D01*
X161798Y66040D02*
X340106Y66040D01*
X161798Y66040D02*
X105664Y122174D01*
X340106Y66040D02*
X342900Y63500D01*
X105664Y122174D02*
X102600Y123000D01*
X396240Y472186D02*
X455676Y472186D01*
X396240Y472186D02*
X208026Y660400D01*
X63500Y660400D01*
X455676Y472186D02*
X457200Y469900D01*
X458978Y614172D02*
X458978Y620776D01*
X458978Y614172D02*
X558038Y515112D01*
X558038Y458978D01*
X571246Y445770D01*
X458978Y620776D02*
X457200Y622300D01*
X571246Y445770D02*
X571500Y444500D01*
X340106Y115570D02*
X333502Y115570D01*
X285623Y163449D02*
X204724Y244348D01*
X285623Y163449D02*
X333502Y115570D01*
X340106Y115570D02*
X342900Y114300D01*
X203200Y241300D02*
X204724Y244348D01*
X548132Y416052D02*
X571246Y416052D01*
X548132Y416052D02*
X462280Y330200D01*
X452374Y330200D01*
X285623Y163449D01*
X571246Y416052D02*
X571500Y419100D01*
M02*
