G04 EAGLE Gerber RS-274X export*
G75*
%MOMM*%
%FSLAX34Y34*%
%LPD*%
%INBottom Copper*%
%IPPOS*%
%AMOC8*
5,1,8,0,0,1.08239X$1,22.5*%
G01*
%ADD10C,1.879600*%
%ADD11C,4.800000*%
%ADD12C,1.530000*%
%ADD13R,1.530000X1.530000*%
%ADD14C,1.308000*%
%ADD15C,0.508000*%

G36*
X555298Y12708D02*
X555298Y12708D01*
X555346Y12707D01*
X555418Y12728D01*
X555493Y12740D01*
X555535Y12763D01*
X555582Y12777D01*
X555644Y12820D01*
X555711Y12856D01*
X555744Y12890D01*
X555783Y12918D01*
X555828Y12979D01*
X555880Y13034D01*
X555900Y13077D01*
X555929Y13116D01*
X555952Y13188D01*
X555984Y13257D01*
X555989Y13305D01*
X556003Y13350D01*
X556002Y13426D01*
X556011Y13501D01*
X556000Y13548D01*
X556000Y13596D01*
X555974Y13668D01*
X555958Y13742D01*
X555934Y13783D01*
X555918Y13828D01*
X555871Y13888D01*
X555832Y13953D01*
X555796Y13984D01*
X555766Y14022D01*
X555662Y14098D01*
X555645Y14113D01*
X555639Y14115D01*
X555631Y14121D01*
X553877Y15134D01*
X548534Y20477D01*
X544755Y27022D01*
X542799Y34321D01*
X542799Y41879D01*
X544755Y49178D01*
X548534Y55723D01*
X553877Y61066D01*
X560422Y64845D01*
X567721Y66801D01*
X575279Y66801D01*
X582578Y64845D01*
X589123Y61066D01*
X592300Y57889D01*
X592358Y57847D01*
X592410Y57798D01*
X592457Y57776D01*
X592499Y57746D01*
X592568Y57725D01*
X592633Y57694D01*
X592685Y57689D01*
X592735Y57673D01*
X592806Y57675D01*
X592877Y57667D01*
X592928Y57678D01*
X592980Y57680D01*
X593048Y57704D01*
X593118Y57720D01*
X593163Y57746D01*
X593211Y57764D01*
X593267Y57809D01*
X593329Y57846D01*
X593363Y57885D01*
X593403Y57918D01*
X593442Y57978D01*
X593489Y58033D01*
X593508Y58081D01*
X593536Y58125D01*
X593554Y58194D01*
X593581Y58261D01*
X593589Y58332D01*
X593597Y58363D01*
X593595Y58387D01*
X593599Y58427D01*
X593599Y385479D01*
X593584Y385575D01*
X593574Y385672D01*
X593564Y385696D01*
X593560Y385721D01*
X593514Y385807D01*
X593474Y385896D01*
X593457Y385916D01*
X593444Y385939D01*
X593374Y386006D01*
X593308Y386077D01*
X593285Y386090D01*
X593266Y386108D01*
X593178Y386149D01*
X593092Y386196D01*
X593067Y386201D01*
X593043Y386212D01*
X592946Y386222D01*
X592850Y386240D01*
X592824Y386236D01*
X592799Y386239D01*
X592703Y386218D01*
X592607Y386204D01*
X592584Y386192D01*
X592558Y386187D01*
X592475Y386137D01*
X592388Y386092D01*
X592369Y386074D01*
X592347Y386060D01*
X592284Y385986D01*
X592216Y385917D01*
X592200Y385888D01*
X592187Y385873D01*
X592175Y385843D01*
X592135Y385770D01*
X590234Y381182D01*
X584018Y374966D01*
X582702Y374421D01*
X582660Y374394D01*
X582613Y374377D01*
X582556Y374330D01*
X582493Y374291D01*
X582461Y374253D01*
X582423Y374221D01*
X582383Y374158D01*
X582336Y374101D01*
X582318Y374055D01*
X582292Y374013D01*
X582274Y373941D01*
X582248Y373872D01*
X582246Y373822D01*
X582234Y373774D01*
X582241Y373700D01*
X582238Y373626D01*
X582251Y373578D01*
X582256Y373529D01*
X582299Y373414D01*
X582306Y373390D01*
X582311Y373383D01*
X582315Y373372D01*
X582564Y372883D01*
X583145Y371096D01*
X583346Y369823D01*
X573023Y369823D01*
X573023Y370840D01*
X573020Y370860D01*
X573022Y370879D01*
X573000Y370981D01*
X572983Y371083D01*
X572974Y371100D01*
X572970Y371120D01*
X572917Y371209D01*
X572868Y371300D01*
X572854Y371314D01*
X572844Y371331D01*
X572765Y371398D01*
X572690Y371470D01*
X572672Y371478D01*
X572657Y371491D01*
X572561Y371530D01*
X572467Y371573D01*
X572447Y371575D01*
X572429Y371583D01*
X572262Y371601D01*
X570738Y371601D01*
X570718Y371598D01*
X570699Y371600D01*
X570597Y371578D01*
X570495Y371562D01*
X570478Y371552D01*
X570458Y371548D01*
X570369Y371495D01*
X570278Y371446D01*
X570264Y371432D01*
X570247Y371422D01*
X570180Y371343D01*
X570109Y371268D01*
X570100Y371250D01*
X570087Y371235D01*
X570048Y371139D01*
X570005Y371045D01*
X570003Y371025D01*
X569995Y371007D01*
X569977Y370840D01*
X569977Y369823D01*
X559654Y369823D01*
X559855Y371096D01*
X560436Y372883D01*
X560685Y373372D01*
X560700Y373419D01*
X560724Y373463D01*
X560737Y373536D01*
X560760Y373606D01*
X560759Y373656D01*
X560768Y373705D01*
X560757Y373778D01*
X560756Y373852D01*
X560739Y373899D01*
X560732Y373948D01*
X560699Y374014D01*
X560674Y374084D01*
X560643Y374123D01*
X560621Y374167D01*
X560568Y374219D01*
X560522Y374277D01*
X560481Y374305D01*
X560445Y374340D01*
X560338Y374399D01*
X560317Y374413D01*
X560309Y374415D01*
X560298Y374421D01*
X558982Y374966D01*
X552766Y381182D01*
X549401Y389304D01*
X549401Y396216D01*
X549387Y396306D01*
X549379Y396397D01*
X549367Y396427D01*
X549362Y396459D01*
X549319Y396539D01*
X549283Y396623D01*
X549257Y396655D01*
X549246Y396676D01*
X549223Y396698D01*
X549178Y396754D01*
X520447Y425486D01*
X518126Y431087D01*
X518126Y506739D01*
X518112Y506829D01*
X518104Y506920D01*
X518092Y506950D01*
X518087Y506982D01*
X518044Y507062D01*
X518008Y507146D01*
X517982Y507178D01*
X517971Y507199D01*
X517948Y507221D01*
X517942Y507228D01*
X517934Y507243D01*
X517924Y507251D01*
X517903Y507277D01*
X470369Y554812D01*
X470352Y554823D01*
X470340Y554839D01*
X470253Y554895D01*
X470169Y554955D01*
X470150Y554961D01*
X470133Y554972D01*
X470033Y554997D01*
X469934Y555028D01*
X469914Y555027D01*
X469895Y555032D01*
X469792Y555024D01*
X469688Y555021D01*
X469669Y555014D01*
X469649Y555013D01*
X469554Y554972D01*
X469457Y554937D01*
X469441Y554924D01*
X469423Y554917D01*
X469292Y554812D01*
X468728Y554247D01*
X465891Y553073D01*
X465798Y553015D01*
X465704Y552961D01*
X465694Y552950D01*
X465682Y552943D01*
X465613Y552859D01*
X465540Y552777D01*
X465534Y552764D01*
X465525Y552753D01*
X465486Y552652D01*
X465443Y552551D01*
X465442Y552537D01*
X465437Y552524D01*
X465433Y552415D01*
X465424Y552306D01*
X465427Y552292D01*
X465427Y552278D01*
X465457Y552173D01*
X465484Y552067D01*
X465492Y552052D01*
X465495Y552042D01*
X465512Y552018D01*
X465567Y551922D01*
X465916Y551441D01*
X466644Y550012D01*
X467140Y548486D01*
X467277Y547623D01*
X457962Y547623D01*
X457942Y547620D01*
X457923Y547622D01*
X457821Y547600D01*
X457719Y547583D01*
X457702Y547574D01*
X457682Y547570D01*
X457593Y547517D01*
X457502Y547468D01*
X457488Y547454D01*
X457471Y547444D01*
X457404Y547365D01*
X457333Y547290D01*
X457324Y547272D01*
X457311Y547257D01*
X457273Y547161D01*
X457229Y547067D01*
X457227Y547047D01*
X457219Y547029D01*
X457201Y546862D01*
X457201Y545338D01*
X457204Y545318D01*
X457202Y545299D01*
X457224Y545197D01*
X457241Y545095D01*
X457250Y545078D01*
X457254Y545058D01*
X457307Y544969D01*
X457356Y544878D01*
X457370Y544864D01*
X457380Y544847D01*
X457459Y544780D01*
X457534Y544709D01*
X457552Y544700D01*
X457567Y544687D01*
X457663Y544648D01*
X457757Y544605D01*
X457777Y544603D01*
X457795Y544595D01*
X457962Y544577D01*
X467277Y544577D01*
X467140Y543714D01*
X466644Y542188D01*
X465916Y540759D01*
X465567Y540278D01*
X465518Y540181D01*
X465465Y540085D01*
X465463Y540071D01*
X465456Y540059D01*
X465441Y539951D01*
X465421Y539843D01*
X465423Y539829D01*
X465421Y539815D01*
X465441Y539708D01*
X465457Y539600D01*
X465464Y539587D01*
X465466Y539573D01*
X465519Y539478D01*
X465569Y539381D01*
X465579Y539371D01*
X465586Y539358D01*
X465666Y539285D01*
X465744Y539208D01*
X465759Y539200D01*
X465768Y539193D01*
X465794Y539181D01*
X465891Y539127D01*
X468728Y537953D01*
X474453Y532228D01*
X477551Y524748D01*
X477551Y516652D01*
X474453Y509172D01*
X473819Y508538D01*
X473807Y508522D01*
X473791Y508510D01*
X473735Y508422D01*
X473675Y508339D01*
X473669Y508320D01*
X473658Y508303D01*
X473633Y508202D01*
X473603Y508103D01*
X473603Y508084D01*
X473598Y508064D01*
X473606Y507961D01*
X473609Y507858D01*
X473616Y507839D01*
X473617Y507819D01*
X473658Y507724D01*
X473693Y507627D01*
X473706Y507611D01*
X473714Y507593D01*
X473819Y507462D01*
X474453Y506828D01*
X477551Y499348D01*
X477551Y491252D01*
X474453Y483772D01*
X473819Y483138D01*
X473807Y483122D01*
X473791Y483110D01*
X473735Y483022D01*
X473675Y482939D01*
X473669Y482920D01*
X473658Y482903D01*
X473633Y482802D01*
X473603Y482703D01*
X473603Y482684D01*
X473598Y482664D01*
X473606Y482561D01*
X473609Y482458D01*
X473616Y482439D01*
X473617Y482419D01*
X473658Y482324D01*
X473693Y482227D01*
X473706Y482211D01*
X473714Y482193D01*
X473819Y482062D01*
X474453Y481428D01*
X477551Y473948D01*
X477551Y465852D01*
X474453Y458372D01*
X473819Y457738D01*
X473807Y457722D01*
X473791Y457710D01*
X473735Y457622D01*
X473675Y457539D01*
X473669Y457520D01*
X473658Y457503D01*
X473633Y457402D01*
X473603Y457303D01*
X473603Y457284D01*
X473598Y457264D01*
X473606Y457161D01*
X473609Y457058D01*
X473616Y457039D01*
X473617Y457019D01*
X473658Y456924D01*
X473693Y456827D01*
X473706Y456811D01*
X473714Y456793D01*
X473819Y456662D01*
X474453Y456028D01*
X477551Y448548D01*
X477551Y440452D01*
X474453Y432972D01*
X473819Y432338D01*
X473807Y432322D01*
X473791Y432310D01*
X473735Y432222D01*
X473675Y432139D01*
X473669Y432120D01*
X473658Y432103D01*
X473633Y432002D01*
X473603Y431903D01*
X473603Y431884D01*
X473598Y431864D01*
X473606Y431761D01*
X473609Y431658D01*
X473616Y431639D01*
X473617Y431619D01*
X473658Y431524D01*
X473693Y431427D01*
X473706Y431411D01*
X473714Y431393D01*
X473819Y431262D01*
X474453Y430628D01*
X477551Y423148D01*
X477551Y415052D01*
X474453Y407572D01*
X473819Y406938D01*
X473807Y406922D01*
X473791Y406910D01*
X473735Y406822D01*
X473675Y406739D01*
X473669Y406720D01*
X473658Y406703D01*
X473633Y406602D01*
X473603Y406503D01*
X473603Y406484D01*
X473598Y406464D01*
X473606Y406361D01*
X473609Y406258D01*
X473616Y406239D01*
X473617Y406219D01*
X473658Y406124D01*
X473693Y406027D01*
X473706Y406011D01*
X473714Y405993D01*
X473819Y405862D01*
X474453Y405228D01*
X477551Y397748D01*
X477551Y389652D01*
X474453Y382172D01*
X473819Y381538D01*
X473807Y381522D01*
X473791Y381510D01*
X473735Y381422D01*
X473675Y381339D01*
X473669Y381320D01*
X473658Y381303D01*
X473633Y381202D01*
X473603Y381103D01*
X473603Y381084D01*
X473598Y381064D01*
X473606Y380961D01*
X473609Y380858D01*
X473616Y380839D01*
X473617Y380819D01*
X473658Y380724D01*
X473693Y380627D01*
X473706Y380611D01*
X473714Y380593D01*
X473819Y380462D01*
X474453Y379828D01*
X477551Y372348D01*
X477551Y364252D01*
X474453Y356772D01*
X473819Y356138D01*
X473807Y356122D01*
X473791Y356110D01*
X473735Y356022D01*
X473675Y355939D01*
X473669Y355920D01*
X473658Y355903D01*
X473633Y355802D01*
X473603Y355703D01*
X473603Y355684D01*
X473598Y355664D01*
X473606Y355561D01*
X473609Y355458D01*
X473616Y355439D01*
X473617Y355419D01*
X473658Y355324D01*
X473693Y355227D01*
X473706Y355211D01*
X473714Y355193D01*
X473819Y355062D01*
X474453Y354428D01*
X477551Y346948D01*
X477551Y338852D01*
X474453Y331372D01*
X473819Y330738D01*
X473807Y330722D01*
X473791Y330710D01*
X473735Y330622D01*
X473675Y330539D01*
X473669Y330520D01*
X473658Y330503D01*
X473633Y330402D01*
X473603Y330303D01*
X473603Y330284D01*
X473598Y330264D01*
X473606Y330161D01*
X473609Y330058D01*
X473616Y330039D01*
X473617Y330019D01*
X473658Y329924D01*
X473693Y329827D01*
X473706Y329811D01*
X473714Y329793D01*
X473819Y329662D01*
X474453Y329028D01*
X477551Y321548D01*
X477551Y313452D01*
X474453Y305972D01*
X473819Y305338D01*
X473807Y305322D01*
X473791Y305310D01*
X473735Y305222D01*
X473675Y305139D01*
X473669Y305120D01*
X473658Y305103D01*
X473633Y305002D01*
X473603Y304903D01*
X473603Y304884D01*
X473598Y304864D01*
X473606Y304761D01*
X473609Y304658D01*
X473616Y304639D01*
X473617Y304619D01*
X473658Y304524D01*
X473693Y304427D01*
X473706Y304411D01*
X473714Y304393D01*
X473819Y304262D01*
X474453Y303628D01*
X477551Y296148D01*
X477551Y288052D01*
X474453Y280572D01*
X473819Y279938D01*
X473807Y279922D01*
X473791Y279910D01*
X473735Y279822D01*
X473675Y279739D01*
X473669Y279720D01*
X473658Y279703D01*
X473633Y279602D01*
X473603Y279503D01*
X473603Y279484D01*
X473598Y279464D01*
X473606Y279361D01*
X473609Y279258D01*
X473616Y279239D01*
X473617Y279219D01*
X473658Y279124D01*
X473693Y279027D01*
X473706Y279011D01*
X473714Y278993D01*
X473819Y278862D01*
X474453Y278228D01*
X477551Y270748D01*
X477551Y262652D01*
X474453Y255172D01*
X473819Y254538D01*
X473807Y254522D01*
X473791Y254510D01*
X473761Y254463D01*
X473744Y254445D01*
X473731Y254416D01*
X473675Y254339D01*
X473669Y254320D01*
X473658Y254303D01*
X473633Y254202D01*
X473603Y254103D01*
X473603Y254084D01*
X473598Y254064D01*
X473606Y253961D01*
X473609Y253858D01*
X473616Y253839D01*
X473617Y253819D01*
X473658Y253724D01*
X473693Y253627D01*
X473706Y253611D01*
X473714Y253593D01*
X473819Y253462D01*
X474453Y252828D01*
X477551Y245348D01*
X477551Y237252D01*
X474453Y229772D01*
X472364Y227684D01*
X472353Y227668D01*
X472337Y227655D01*
X472281Y227568D01*
X472221Y227484D01*
X472215Y227465D01*
X472204Y227448D01*
X472179Y227348D01*
X472148Y227249D01*
X472149Y227229D01*
X472144Y227210D01*
X472152Y227107D01*
X472155Y227003D01*
X472161Y226984D01*
X472163Y226965D01*
X472203Y226870D01*
X472239Y226772D01*
X472252Y226757D01*
X472259Y226738D01*
X472364Y226607D01*
X475504Y223467D01*
X479151Y214664D01*
X479151Y205136D01*
X475504Y196333D01*
X468767Y189596D01*
X459964Y185949D01*
X450436Y185949D01*
X441633Y189596D01*
X434896Y196333D01*
X431249Y205136D01*
X431249Y214664D01*
X434896Y223467D01*
X440036Y228607D01*
X440047Y228623D01*
X440063Y228636D01*
X440119Y228723D01*
X440179Y228807D01*
X440185Y228826D01*
X440196Y228843D01*
X440221Y228943D01*
X440252Y229042D01*
X440251Y229062D01*
X440256Y229081D01*
X440248Y229184D01*
X440245Y229288D01*
X440239Y229307D01*
X440237Y229327D01*
X440197Y229422D01*
X440161Y229519D01*
X440148Y229535D01*
X440141Y229553D01*
X440036Y229684D01*
X439947Y229772D01*
X436849Y237252D01*
X436849Y245348D01*
X439947Y252828D01*
X440581Y253462D01*
X440593Y253478D01*
X440609Y253490D01*
X440665Y253578D01*
X440725Y253661D01*
X440731Y253680D01*
X440742Y253697D01*
X440767Y253798D01*
X440797Y253897D01*
X440797Y253916D01*
X440802Y253936D01*
X440794Y254039D01*
X440791Y254142D01*
X440784Y254161D01*
X440783Y254181D01*
X440742Y254276D01*
X440707Y254373D01*
X440694Y254389D01*
X440686Y254407D01*
X440615Y254497D01*
X440608Y254508D01*
X440601Y254514D01*
X440581Y254538D01*
X439947Y255172D01*
X436849Y262652D01*
X436849Y270748D01*
X439947Y278228D01*
X440581Y278862D01*
X440593Y278878D01*
X440609Y278890D01*
X440665Y278978D01*
X440725Y279061D01*
X440731Y279080D01*
X440742Y279097D01*
X440767Y279198D01*
X440797Y279297D01*
X440797Y279316D01*
X440802Y279336D01*
X440794Y279439D01*
X440791Y279542D01*
X440784Y279561D01*
X440783Y279581D01*
X440742Y279676D01*
X440707Y279773D01*
X440694Y279789D01*
X440686Y279807D01*
X440581Y279938D01*
X439947Y280572D01*
X436849Y288052D01*
X436849Y296148D01*
X439947Y303628D01*
X440581Y304262D01*
X440593Y304278D01*
X440609Y304290D01*
X440665Y304378D01*
X440725Y304461D01*
X440731Y304480D01*
X440742Y304497D01*
X440767Y304598D01*
X440797Y304697D01*
X440797Y304716D01*
X440802Y304736D01*
X440794Y304839D01*
X440791Y304942D01*
X440784Y304961D01*
X440783Y304981D01*
X440742Y305076D01*
X440707Y305173D01*
X440694Y305189D01*
X440686Y305207D01*
X440581Y305338D01*
X439947Y305972D01*
X436849Y313452D01*
X436849Y321548D01*
X439947Y329028D01*
X440581Y329662D01*
X440593Y329678D01*
X440609Y329690D01*
X440665Y329778D01*
X440725Y329861D01*
X440731Y329880D01*
X440742Y329897D01*
X440767Y329998D01*
X440797Y330097D01*
X440797Y330116D01*
X440802Y330136D01*
X440794Y330239D01*
X440791Y330342D01*
X440784Y330361D01*
X440783Y330381D01*
X440742Y330476D01*
X440707Y330573D01*
X440694Y330589D01*
X440686Y330607D01*
X440581Y330738D01*
X439947Y331372D01*
X436849Y338852D01*
X436849Y346948D01*
X439947Y354428D01*
X440581Y355062D01*
X440593Y355078D01*
X440609Y355090D01*
X440665Y355178D01*
X440725Y355261D01*
X440731Y355280D01*
X440742Y355297D01*
X440767Y355398D01*
X440797Y355497D01*
X440797Y355516D01*
X440802Y355536D01*
X440794Y355639D01*
X440791Y355742D01*
X440784Y355761D01*
X440783Y355781D01*
X440742Y355876D01*
X440707Y355973D01*
X440694Y355989D01*
X440686Y356007D01*
X440581Y356138D01*
X439947Y356772D01*
X436849Y364252D01*
X436849Y372348D01*
X439947Y379828D01*
X440581Y380462D01*
X440593Y380478D01*
X440609Y380490D01*
X440665Y380578D01*
X440725Y380661D01*
X440731Y380680D01*
X440742Y380697D01*
X440767Y380798D01*
X440797Y380897D01*
X440797Y380916D01*
X440802Y380936D01*
X440794Y381039D01*
X440791Y381142D01*
X440784Y381161D01*
X440783Y381181D01*
X440742Y381276D01*
X440707Y381373D01*
X440694Y381389D01*
X440686Y381407D01*
X440581Y381538D01*
X439947Y382172D01*
X436849Y389652D01*
X436849Y397748D01*
X439947Y405228D01*
X440581Y405862D01*
X440593Y405878D01*
X440609Y405890D01*
X440665Y405978D01*
X440725Y406061D01*
X440731Y406080D01*
X440742Y406097D01*
X440767Y406198D01*
X440797Y406297D01*
X440797Y406316D01*
X440802Y406336D01*
X440794Y406439D01*
X440791Y406542D01*
X440784Y406561D01*
X440783Y406581D01*
X440742Y406676D01*
X440707Y406773D01*
X440694Y406789D01*
X440686Y406807D01*
X440581Y406938D01*
X439947Y407572D01*
X436849Y415052D01*
X436849Y423148D01*
X439947Y430628D01*
X440581Y431262D01*
X440593Y431278D01*
X440609Y431290D01*
X440665Y431378D01*
X440725Y431461D01*
X440731Y431480D01*
X440742Y431497D01*
X440767Y431598D01*
X440797Y431697D01*
X440797Y431716D01*
X440802Y431736D01*
X440794Y431839D01*
X440791Y431942D01*
X440784Y431961D01*
X440783Y431981D01*
X440742Y432076D01*
X440707Y432173D01*
X440694Y432189D01*
X440686Y432207D01*
X440581Y432338D01*
X439947Y432972D01*
X436849Y440452D01*
X436849Y448548D01*
X439947Y456028D01*
X440581Y456662D01*
X440593Y456678D01*
X440609Y456690D01*
X440665Y456778D01*
X440725Y456861D01*
X440731Y456880D01*
X440742Y456897D01*
X440767Y456998D01*
X440797Y457097D01*
X440797Y457116D01*
X440802Y457136D01*
X440794Y457239D01*
X440791Y457342D01*
X440784Y457361D01*
X440783Y457381D01*
X440742Y457476D01*
X440707Y457573D01*
X440694Y457589D01*
X440686Y457607D01*
X440581Y457738D01*
X439947Y458372D01*
X436849Y465852D01*
X436849Y473948D01*
X439947Y481428D01*
X440581Y482062D01*
X440593Y482078D01*
X440609Y482090D01*
X440665Y482178D01*
X440725Y482261D01*
X440731Y482280D01*
X440742Y482297D01*
X440767Y482398D01*
X440797Y482497D01*
X440797Y482516D01*
X440802Y482536D01*
X440794Y482639D01*
X440791Y482742D01*
X440784Y482761D01*
X440783Y482781D01*
X440742Y482876D01*
X440707Y482973D01*
X440694Y482989D01*
X440686Y483007D01*
X440581Y483138D01*
X439947Y483772D01*
X436849Y491252D01*
X436849Y499348D01*
X439947Y506828D01*
X440581Y507462D01*
X440593Y507478D01*
X440609Y507490D01*
X440665Y507578D01*
X440725Y507661D01*
X440731Y507680D01*
X440742Y507697D01*
X440767Y507798D01*
X440797Y507897D01*
X440797Y507916D01*
X440802Y507936D01*
X440794Y508039D01*
X440791Y508142D01*
X440784Y508161D01*
X440783Y508181D01*
X440742Y508276D01*
X440707Y508373D01*
X440694Y508389D01*
X440686Y508407D01*
X440581Y508538D01*
X439947Y509172D01*
X436849Y516652D01*
X436849Y524748D01*
X439947Y532228D01*
X445672Y537953D01*
X448509Y539127D01*
X448602Y539185D01*
X448696Y539239D01*
X448706Y539250D01*
X448718Y539257D01*
X448787Y539341D01*
X448860Y539423D01*
X448866Y539436D01*
X448875Y539447D01*
X448914Y539548D01*
X448957Y539649D01*
X448958Y539663D01*
X448963Y539676D01*
X448967Y539785D01*
X448976Y539894D01*
X448973Y539908D01*
X448973Y539922D01*
X448943Y540027D01*
X448916Y540133D01*
X448908Y540148D01*
X448905Y540158D01*
X448888Y540182D01*
X448833Y540278D01*
X448484Y540759D01*
X447756Y542188D01*
X447260Y543714D01*
X447123Y544577D01*
X456438Y544577D01*
X456458Y544580D01*
X456477Y544578D01*
X456579Y544600D01*
X456681Y544617D01*
X456698Y544626D01*
X456718Y544630D01*
X456807Y544683D01*
X456898Y544732D01*
X456912Y544746D01*
X456929Y544756D01*
X456996Y544835D01*
X457067Y544910D01*
X457076Y544928D01*
X457089Y544943D01*
X457127Y545039D01*
X457171Y545133D01*
X457173Y545153D01*
X457181Y545171D01*
X457199Y545338D01*
X457199Y546862D01*
X457196Y546882D01*
X457198Y546901D01*
X457176Y547003D01*
X457159Y547105D01*
X457150Y547122D01*
X457146Y547142D01*
X457093Y547231D01*
X457044Y547322D01*
X457030Y547336D01*
X457020Y547353D01*
X456941Y547420D01*
X456866Y547491D01*
X456848Y547500D01*
X456833Y547513D01*
X456737Y547552D01*
X456643Y547595D01*
X456623Y547597D01*
X456605Y547605D01*
X456438Y547623D01*
X447123Y547623D01*
X447260Y548486D01*
X447756Y550012D01*
X448484Y551441D01*
X448833Y551922D01*
X448882Y552019D01*
X448935Y552115D01*
X448937Y552129D01*
X448944Y552141D01*
X448959Y552249D01*
X448979Y552357D01*
X448977Y552371D01*
X448979Y552385D01*
X448959Y552492D01*
X448943Y552600D01*
X448936Y552613D01*
X448934Y552627D01*
X448881Y552722D01*
X448831Y552819D01*
X448821Y552829D01*
X448814Y552842D01*
X448734Y552915D01*
X448656Y552992D01*
X448641Y553000D01*
X448632Y553007D01*
X448606Y553019D01*
X448509Y553073D01*
X445672Y554247D01*
X439947Y559972D01*
X436849Y567452D01*
X436849Y575548D01*
X439947Y583028D01*
X440581Y583662D01*
X440593Y583678D01*
X440609Y583690D01*
X440665Y583778D01*
X440725Y583861D01*
X440731Y583880D01*
X440742Y583897D01*
X440767Y583998D01*
X440797Y584097D01*
X440797Y584116D01*
X440802Y584136D01*
X440794Y584239D01*
X440791Y584342D01*
X440784Y584361D01*
X440783Y584381D01*
X440742Y584476D01*
X440707Y584573D01*
X440694Y584589D01*
X440686Y584607D01*
X440581Y584738D01*
X439947Y585372D01*
X436849Y592852D01*
X436849Y600948D01*
X439947Y608428D01*
X440581Y609062D01*
X440593Y609078D01*
X440609Y609090D01*
X440665Y609178D01*
X440725Y609261D01*
X440731Y609280D01*
X440742Y609297D01*
X440767Y609398D01*
X440797Y609497D01*
X440797Y609516D01*
X440802Y609536D01*
X440794Y609639D01*
X440791Y609742D01*
X440784Y609761D01*
X440783Y609781D01*
X440742Y609876D01*
X440707Y609973D01*
X440694Y609989D01*
X440686Y610007D01*
X440581Y610138D01*
X439947Y610772D01*
X436849Y618252D01*
X436849Y626348D01*
X439947Y633828D01*
X440581Y634462D01*
X440593Y634478D01*
X440609Y634490D01*
X440665Y634578D01*
X440725Y634661D01*
X440731Y634680D01*
X440742Y634697D01*
X440767Y634798D01*
X440797Y634897D01*
X440797Y634916D01*
X440802Y634936D01*
X440794Y635039D01*
X440791Y635142D01*
X440784Y635161D01*
X440783Y635181D01*
X440742Y635276D01*
X440707Y635373D01*
X440694Y635389D01*
X440686Y635407D01*
X440581Y635538D01*
X439947Y636172D01*
X436849Y643652D01*
X436849Y651748D01*
X439947Y659228D01*
X440581Y659862D01*
X440593Y659878D01*
X440609Y659890D01*
X440665Y659978D01*
X440725Y660061D01*
X440731Y660080D01*
X440742Y660097D01*
X440767Y660198D01*
X440797Y660297D01*
X440797Y660316D01*
X440802Y660336D01*
X440794Y660439D01*
X440791Y660542D01*
X440784Y660561D01*
X440783Y660581D01*
X440742Y660676D01*
X440707Y660773D01*
X440694Y660789D01*
X440686Y660807D01*
X440581Y660938D01*
X439947Y661572D01*
X436849Y669052D01*
X436849Y677148D01*
X439947Y684628D01*
X445672Y690353D01*
X446539Y690712D01*
X446639Y690774D01*
X446739Y690833D01*
X446743Y690838D01*
X446748Y690841D01*
X446823Y690932D01*
X446899Y691020D01*
X446901Y691026D01*
X446905Y691031D01*
X446947Y691139D01*
X446991Y691248D01*
X446992Y691256D01*
X446993Y691260D01*
X446994Y691279D01*
X447009Y691415D01*
X447009Y696977D01*
X456438Y696977D01*
X456458Y696980D01*
X456477Y696978D01*
X456579Y697000D01*
X456681Y697017D01*
X456698Y697026D01*
X456718Y697030D01*
X456807Y697083D01*
X456898Y697132D01*
X456912Y697146D01*
X456929Y697156D01*
X456996Y697235D01*
X457067Y697310D01*
X457076Y697328D01*
X457089Y697343D01*
X457127Y697439D01*
X457171Y697533D01*
X457173Y697553D01*
X457181Y697571D01*
X457199Y697738D01*
X457199Y699262D01*
X457196Y699282D01*
X457198Y699301D01*
X457176Y699403D01*
X457159Y699505D01*
X457150Y699522D01*
X457146Y699542D01*
X457093Y699631D01*
X457044Y699722D01*
X457030Y699736D01*
X457020Y699753D01*
X456941Y699820D01*
X456866Y699891D01*
X456848Y699900D01*
X456833Y699913D01*
X456737Y699952D01*
X456643Y699995D01*
X456623Y699997D01*
X456605Y700005D01*
X456438Y700023D01*
X447009Y700023D01*
X447009Y706485D01*
X447050Y706635D01*
X447059Y706728D01*
X447076Y706820D01*
X447071Y706850D01*
X447074Y706880D01*
X447053Y706971D01*
X447040Y707063D01*
X447026Y707090D01*
X447019Y707120D01*
X446971Y707199D01*
X446928Y707283D01*
X446907Y707304D01*
X446891Y707330D01*
X446819Y707389D01*
X446753Y707455D01*
X446719Y707473D01*
X446702Y707488D01*
X446672Y707499D01*
X446606Y707536D01*
X441633Y709596D01*
X434896Y716333D01*
X431249Y725136D01*
X431249Y734664D01*
X434896Y743467D01*
X441633Y750204D01*
X450436Y753851D01*
X459964Y753851D01*
X468767Y750204D01*
X475504Y743467D01*
X479151Y734664D01*
X479151Y725136D01*
X475504Y716333D01*
X468767Y709596D01*
X467154Y708928D01*
X467115Y708903D01*
X467072Y708887D01*
X467011Y708839D01*
X466945Y708798D01*
X466916Y708762D01*
X466880Y708734D01*
X466838Y708668D01*
X466788Y708608D01*
X466772Y708565D01*
X466747Y708527D01*
X466728Y708451D01*
X466700Y708379D01*
X466698Y708333D01*
X466687Y708288D01*
X466693Y708211D01*
X466690Y708133D01*
X466703Y708089D01*
X466706Y708043D01*
X466737Y707972D01*
X466758Y707897D01*
X466784Y707859D01*
X466803Y707817D01*
X466871Y707732D01*
X467218Y707131D01*
X467391Y706484D01*
X467391Y700023D01*
X457962Y700023D01*
X457942Y700020D01*
X457923Y700022D01*
X457821Y700000D01*
X457719Y699983D01*
X457702Y699974D01*
X457682Y699970D01*
X457593Y699917D01*
X457502Y699868D01*
X457488Y699854D01*
X457471Y699844D01*
X457404Y699765D01*
X457333Y699690D01*
X457324Y699672D01*
X457311Y699657D01*
X457273Y699561D01*
X457229Y699467D01*
X457227Y699447D01*
X457219Y699429D01*
X457201Y699262D01*
X457201Y697738D01*
X457204Y697718D01*
X457202Y697699D01*
X457224Y697597D01*
X457241Y697495D01*
X457250Y697478D01*
X457254Y697458D01*
X457307Y697369D01*
X457356Y697278D01*
X457370Y697264D01*
X457380Y697247D01*
X457459Y697180D01*
X457534Y697109D01*
X457552Y697100D01*
X457567Y697087D01*
X457663Y697048D01*
X457757Y697005D01*
X457777Y697003D01*
X457795Y696995D01*
X457962Y696977D01*
X467391Y696977D01*
X467391Y691415D01*
X467410Y691300D01*
X467427Y691184D01*
X467429Y691178D01*
X467430Y691172D01*
X467485Y691070D01*
X467538Y690965D01*
X467543Y690960D01*
X467546Y690955D01*
X467630Y690875D01*
X467714Y690793D01*
X467720Y690789D01*
X467724Y690785D01*
X467741Y690778D01*
X467861Y690712D01*
X468728Y690353D01*
X474453Y684628D01*
X477551Y677148D01*
X477551Y669052D01*
X474453Y661572D01*
X473819Y660938D01*
X473807Y660922D01*
X473791Y660910D01*
X473735Y660822D01*
X473675Y660739D01*
X473669Y660720D01*
X473658Y660703D01*
X473633Y660602D01*
X473603Y660503D01*
X473603Y660484D01*
X473598Y660464D01*
X473606Y660361D01*
X473609Y660258D01*
X473616Y660239D01*
X473617Y660219D01*
X473658Y660124D01*
X473693Y660027D01*
X473706Y660011D01*
X473714Y659993D01*
X473819Y659862D01*
X474453Y659228D01*
X477551Y651748D01*
X477551Y643652D01*
X474453Y636172D01*
X473819Y635538D01*
X473807Y635522D01*
X473791Y635510D01*
X473735Y635422D01*
X473675Y635339D01*
X473669Y635320D01*
X473658Y635303D01*
X473633Y635202D01*
X473603Y635103D01*
X473603Y635084D01*
X473598Y635064D01*
X473606Y634961D01*
X473609Y634858D01*
X473616Y634839D01*
X473617Y634819D01*
X473658Y634724D01*
X473693Y634627D01*
X473706Y634611D01*
X473714Y634593D01*
X473819Y634462D01*
X474453Y633828D01*
X477551Y626348D01*
X477551Y618252D01*
X474453Y610772D01*
X473819Y610138D01*
X473807Y610122D01*
X473791Y610110D01*
X473735Y610022D01*
X473675Y609939D01*
X473669Y609920D01*
X473658Y609903D01*
X473633Y609802D01*
X473603Y609703D01*
X473603Y609684D01*
X473598Y609664D01*
X473606Y609561D01*
X473609Y609458D01*
X473616Y609439D01*
X473617Y609419D01*
X473658Y609324D01*
X473693Y609227D01*
X473706Y609211D01*
X473714Y609193D01*
X473819Y609062D01*
X474453Y608428D01*
X477551Y600948D01*
X477551Y592852D01*
X477126Y591826D01*
X477099Y591713D01*
X477071Y591599D01*
X477071Y591593D01*
X477070Y591587D01*
X477081Y591470D01*
X477090Y591354D01*
X477092Y591348D01*
X477093Y591342D01*
X477141Y591234D01*
X477186Y591128D01*
X477191Y591122D01*
X477193Y591117D01*
X477206Y591103D01*
X477291Y590997D01*
X541893Y526395D01*
X546287Y522000D01*
X548608Y516399D01*
X548608Y476207D01*
X548623Y476111D01*
X548633Y476014D01*
X548643Y475990D01*
X548647Y475964D01*
X548693Y475878D01*
X548733Y475789D01*
X548750Y475770D01*
X548763Y475747D01*
X548833Y475680D01*
X548899Y475608D01*
X548922Y475595D01*
X548941Y475577D01*
X549029Y475537D01*
X549115Y475490D01*
X549140Y475485D01*
X549164Y475474D01*
X549261Y475463D01*
X549357Y475446D01*
X549383Y475450D01*
X549408Y475447D01*
X549504Y475467D01*
X549600Y475482D01*
X549623Y475493D01*
X549649Y475499D01*
X549732Y475549D01*
X549819Y475593D01*
X549838Y475612D01*
X549860Y475625D01*
X549923Y475699D01*
X549991Y475769D01*
X550007Y475797D01*
X550020Y475812D01*
X550032Y475843D01*
X550072Y475916D01*
X552766Y482418D01*
X558982Y488634D01*
X567104Y491999D01*
X575896Y491999D01*
X584018Y488634D01*
X590234Y482418D01*
X592135Y477830D01*
X592186Y477747D01*
X592232Y477661D01*
X592251Y477643D01*
X592264Y477621D01*
X592339Y477559D01*
X592410Y477492D01*
X592434Y477481D01*
X592454Y477464D01*
X592545Y477429D01*
X592633Y477388D01*
X592659Y477385D01*
X592683Y477376D01*
X592781Y477372D01*
X592877Y477361D01*
X592903Y477367D01*
X592929Y477366D01*
X593023Y477393D01*
X593118Y477413D01*
X593140Y477427D01*
X593165Y477434D01*
X593245Y477490D01*
X593329Y477540D01*
X593346Y477559D01*
X593367Y477574D01*
X593426Y477653D01*
X593489Y477727D01*
X593499Y477751D01*
X593514Y477772D01*
X593544Y477864D01*
X593581Y477955D01*
X593584Y477987D01*
X593590Y478006D01*
X593590Y478039D01*
X593599Y478121D01*
X593599Y741673D01*
X593588Y741743D01*
X593586Y741815D01*
X593568Y741864D01*
X593560Y741915D01*
X593526Y741979D01*
X593501Y742046D01*
X593469Y742087D01*
X593444Y742133D01*
X593392Y742182D01*
X593348Y742238D01*
X593304Y742266D01*
X593266Y742302D01*
X593201Y742332D01*
X593141Y742371D01*
X593090Y742384D01*
X593043Y742406D01*
X592972Y742414D01*
X592902Y742431D01*
X592850Y742427D01*
X592799Y742433D01*
X592728Y742417D01*
X592657Y742412D01*
X592609Y742392D01*
X592558Y742380D01*
X592497Y742344D01*
X592431Y742316D01*
X592375Y742271D01*
X592347Y742254D01*
X592332Y742237D01*
X592300Y742211D01*
X589123Y739034D01*
X582578Y735255D01*
X575279Y733299D01*
X567721Y733299D01*
X560422Y735255D01*
X553877Y739034D01*
X548534Y744377D01*
X544755Y750922D01*
X542799Y758221D01*
X542799Y765779D01*
X544755Y773078D01*
X548534Y779623D01*
X553877Y784966D01*
X555458Y785879D01*
X555495Y785909D01*
X555537Y785932D01*
X555589Y785986D01*
X555648Y786035D01*
X555674Y786075D01*
X555707Y786110D01*
X555739Y786179D01*
X555779Y786243D01*
X555790Y786290D01*
X555810Y786333D01*
X555819Y786408D01*
X555836Y786482D01*
X555832Y786530D01*
X555837Y786577D01*
X555821Y786652D01*
X555815Y786727D01*
X555795Y786771D01*
X555785Y786818D01*
X555746Y786883D01*
X555716Y786952D01*
X555684Y786988D01*
X555659Y787029D01*
X555601Y787078D01*
X555550Y787134D01*
X555508Y787158D01*
X555472Y787189D01*
X555402Y787217D01*
X555336Y787254D01*
X555288Y787263D01*
X555244Y787281D01*
X555116Y787295D01*
X555094Y787299D01*
X555087Y787298D01*
X555077Y787299D01*
X54523Y787299D01*
X54475Y787292D01*
X54428Y787293D01*
X54355Y787272D01*
X54280Y787260D01*
X54238Y787237D01*
X54192Y787223D01*
X54130Y787180D01*
X54063Y787144D01*
X54030Y787110D01*
X53990Y787082D01*
X53946Y787021D01*
X53893Y786966D01*
X53873Y786923D01*
X53845Y786884D01*
X53822Y786812D01*
X53790Y786743D01*
X53784Y786695D01*
X53770Y786650D01*
X53771Y786574D01*
X53763Y786499D01*
X53773Y786452D01*
X53774Y786404D01*
X53799Y786332D01*
X53815Y786258D01*
X53839Y786217D01*
X53855Y786172D01*
X53902Y786112D01*
X53941Y786047D01*
X53978Y786016D01*
X54007Y785978D01*
X54111Y785902D01*
X54128Y785887D01*
X54134Y785885D01*
X54142Y785879D01*
X55723Y784966D01*
X61066Y779623D01*
X64845Y773078D01*
X66801Y765779D01*
X66801Y758221D01*
X64845Y750922D01*
X61066Y744377D01*
X55723Y739034D01*
X49178Y735255D01*
X41879Y733299D01*
X34321Y733299D01*
X27022Y735255D01*
X20477Y739034D01*
X15134Y744377D01*
X14121Y746131D01*
X14091Y746168D01*
X14068Y746211D01*
X14014Y746263D01*
X13965Y746321D01*
X13925Y746347D01*
X13890Y746380D01*
X13821Y746412D01*
X13757Y746452D01*
X13710Y746463D01*
X13667Y746484D01*
X13592Y746492D01*
X13518Y746510D01*
X13470Y746505D01*
X13423Y746511D01*
X13348Y746495D01*
X13273Y746488D01*
X13229Y746469D01*
X13182Y746458D01*
X13117Y746419D01*
X13048Y746389D01*
X13012Y746357D01*
X12971Y746332D01*
X12922Y746275D01*
X12866Y746224D01*
X12842Y746182D01*
X12811Y746145D01*
X12783Y746075D01*
X12746Y746009D01*
X12737Y745962D01*
X12719Y745917D01*
X12705Y745789D01*
X12701Y745767D01*
X12702Y745760D01*
X12701Y745750D01*
X12701Y54350D01*
X12708Y54302D01*
X12707Y54254D01*
X12728Y54182D01*
X12740Y54107D01*
X12763Y54065D01*
X12777Y54018D01*
X12820Y53956D01*
X12856Y53889D01*
X12890Y53856D01*
X12918Y53817D01*
X12979Y53772D01*
X13034Y53720D01*
X13077Y53700D01*
X13116Y53671D01*
X13188Y53648D01*
X13257Y53616D01*
X13305Y53611D01*
X13350Y53597D01*
X13426Y53598D01*
X13501Y53589D01*
X13548Y53600D01*
X13596Y53600D01*
X13668Y53626D01*
X13742Y53642D01*
X13783Y53666D01*
X13828Y53682D01*
X13888Y53729D01*
X13953Y53768D01*
X13984Y53804D01*
X14022Y53834D01*
X14098Y53938D01*
X14113Y53955D01*
X14115Y53961D01*
X14121Y53969D01*
X15134Y55723D01*
X20477Y61066D01*
X27022Y64845D01*
X34321Y66801D01*
X41879Y66801D01*
X49178Y64845D01*
X55723Y61066D01*
X61066Y55723D01*
X64845Y49178D01*
X66801Y41879D01*
X66801Y34321D01*
X64845Y27022D01*
X61066Y20477D01*
X55723Y15134D01*
X53969Y14121D01*
X53932Y14091D01*
X53889Y14068D01*
X53837Y14014D01*
X53779Y13965D01*
X53753Y13925D01*
X53720Y13890D01*
X53688Y13821D01*
X53648Y13757D01*
X53637Y13710D01*
X53616Y13667D01*
X53608Y13592D01*
X53590Y13518D01*
X53595Y13470D01*
X53589Y13423D01*
X53605Y13348D01*
X53612Y13273D01*
X53631Y13229D01*
X53642Y13182D01*
X53681Y13117D01*
X53711Y13048D01*
X53743Y13012D01*
X53768Y12971D01*
X53825Y12922D01*
X53876Y12866D01*
X53918Y12842D01*
X53955Y12811D01*
X54025Y12783D01*
X54091Y12746D01*
X54138Y12737D01*
X54183Y12719D01*
X54311Y12705D01*
X54333Y12701D01*
X54340Y12702D01*
X54350Y12701D01*
X555250Y12701D01*
X555298Y12708D01*
G37*
%LPC*%
G36*
X97768Y86299D02*
X97768Y86299D01*
X88434Y88800D01*
X80065Y93632D01*
X73232Y100465D01*
X68400Y108834D01*
X66197Y117056D01*
X66189Y117074D01*
X66186Y117094D01*
X66139Y117186D01*
X66096Y117280D01*
X66082Y117295D01*
X66073Y117313D01*
X65999Y117385D01*
X65929Y117460D01*
X65911Y117470D01*
X65897Y117484D01*
X65804Y117528D01*
X65713Y117578D01*
X65693Y117581D01*
X65675Y117590D01*
X65572Y117602D01*
X65470Y117620D01*
X65451Y117617D01*
X65431Y117620D01*
X65265Y117594D01*
X60432Y116299D01*
X50768Y116299D01*
X41434Y118800D01*
X33065Y123632D01*
X26232Y130465D01*
X21400Y138834D01*
X18899Y148168D01*
X18899Y157832D01*
X21400Y167166D01*
X26232Y175535D01*
X33065Y182368D01*
X41434Y187200D01*
X50768Y189701D01*
X60432Y189701D01*
X69766Y187200D01*
X75060Y184143D01*
X75110Y184124D01*
X75155Y184097D01*
X75224Y184081D01*
X75290Y184056D01*
X75343Y184054D01*
X75395Y184042D01*
X75465Y184049D01*
X75536Y184047D01*
X75587Y184062D01*
X75640Y184067D01*
X75704Y184097D01*
X75772Y184117D01*
X75815Y184147D01*
X75864Y184169D01*
X75915Y184217D01*
X75973Y184258D01*
X76005Y184301D01*
X76044Y184337D01*
X76077Y184399D01*
X76119Y184456D01*
X76135Y184507D01*
X76160Y184553D01*
X76185Y184663D01*
X76194Y184691D01*
X76194Y184701D01*
X76197Y184717D01*
X76393Y186453D01*
X77056Y189359D01*
X78041Y192173D01*
X79334Y194859D01*
X80920Y197383D01*
X82779Y199713D01*
X84887Y201821D01*
X87217Y203680D01*
X89741Y205266D01*
X92427Y206559D01*
X95241Y207544D01*
X98147Y208207D01*
X101077Y208537D01*
X101077Y182762D01*
X101080Y182742D01*
X101078Y182723D01*
X101100Y182621D01*
X101117Y182519D01*
X101126Y182502D01*
X101130Y182482D01*
X101183Y182393D01*
X101232Y182302D01*
X101246Y182288D01*
X101256Y182271D01*
X101335Y182204D01*
X101410Y182133D01*
X101428Y182124D01*
X101443Y182111D01*
X101539Y182073D01*
X101633Y182029D01*
X101653Y182027D01*
X101671Y182019D01*
X101838Y182001D01*
X103362Y182001D01*
X103382Y182004D01*
X103401Y182002D01*
X103503Y182024D01*
X103605Y182041D01*
X103622Y182050D01*
X103642Y182054D01*
X103731Y182107D01*
X103822Y182156D01*
X103836Y182170D01*
X103853Y182180D01*
X103920Y182259D01*
X103991Y182334D01*
X104000Y182352D01*
X104013Y182367D01*
X104052Y182463D01*
X104095Y182557D01*
X104097Y182577D01*
X104105Y182595D01*
X104123Y182762D01*
X104123Y208537D01*
X107053Y208207D01*
X109716Y207599D01*
X109959Y207544D01*
X112773Y206559D01*
X115459Y205266D01*
X115673Y205131D01*
X115774Y205088D01*
X115873Y205042D01*
X115887Y205041D01*
X115900Y205035D01*
X116009Y205027D01*
X116117Y205015D01*
X116131Y205018D01*
X116145Y205017D01*
X116251Y205044D01*
X116358Y205067D01*
X116370Y205075D01*
X116383Y205078D01*
X116475Y205137D01*
X116569Y205194D01*
X116578Y205204D01*
X116590Y205212D01*
X116658Y205297D01*
X116729Y205381D01*
X116734Y205394D01*
X116743Y205404D01*
X116780Y205507D01*
X116821Y205609D01*
X116823Y205625D01*
X116826Y205636D01*
X116827Y205664D01*
X116839Y205775D01*
X116839Y528296D01*
X116825Y528386D01*
X116817Y528477D01*
X116805Y528507D01*
X116800Y528539D01*
X116757Y528619D01*
X116721Y528703D01*
X116695Y528735D01*
X116684Y528756D01*
X116661Y528778D01*
X116616Y528834D01*
X71204Y574246D01*
X71136Y574295D01*
X71074Y574351D01*
X71037Y574366D01*
X71004Y574390D01*
X70924Y574414D01*
X70848Y574447D01*
X70808Y574450D01*
X70769Y574462D01*
X70686Y574460D01*
X70603Y574467D01*
X70564Y574457D01*
X70523Y574456D01*
X70445Y574427D01*
X70364Y574407D01*
X70318Y574381D01*
X70292Y574371D01*
X70269Y574353D01*
X70218Y574324D01*
X69757Y573989D01*
X68083Y573136D01*
X66296Y572555D01*
X65023Y572354D01*
X65023Y580112D01*
X65008Y580202D01*
X65001Y580293D01*
X64989Y580323D01*
X64983Y580355D01*
X64941Y580435D01*
X64905Y580519D01*
X64879Y580551D01*
X64868Y580572D01*
X64845Y580594D01*
X64800Y580650D01*
X63276Y582174D01*
X63218Y582216D01*
X63166Y582265D01*
X63119Y582287D01*
X63077Y582318D01*
X63008Y582339D01*
X62943Y582369D01*
X62891Y582375D01*
X62841Y582390D01*
X62770Y582388D01*
X62699Y582396D01*
X62648Y582385D01*
X62596Y582384D01*
X62528Y582359D01*
X62458Y582344D01*
X62414Y582317D01*
X62365Y582299D01*
X62309Y582254D01*
X62247Y582218D01*
X62213Y582178D01*
X62173Y582145D01*
X62134Y582085D01*
X62087Y582031D01*
X62068Y581982D01*
X62040Y581939D01*
X62022Y581869D01*
X61995Y581803D01*
X61987Y581731D01*
X61979Y581700D01*
X61981Y581677D01*
X61977Y581636D01*
X61977Y572354D01*
X60704Y572555D01*
X58917Y573136D01*
X57243Y573989D01*
X55722Y575094D01*
X54394Y576422D01*
X53289Y577943D01*
X52436Y579617D01*
X51855Y581404D01*
X51654Y582677D01*
X60936Y582677D01*
X61007Y582688D01*
X61078Y582690D01*
X61127Y582708D01*
X61179Y582717D01*
X61242Y582750D01*
X61309Y582775D01*
X61350Y582807D01*
X61396Y582832D01*
X61445Y582884D01*
X61501Y582928D01*
X61529Y582972D01*
X61565Y583010D01*
X61595Y583075D01*
X61634Y583135D01*
X61647Y583186D01*
X61669Y583233D01*
X61677Y583304D01*
X61694Y583374D01*
X61690Y583426D01*
X61696Y583477D01*
X61681Y583548D01*
X61675Y583619D01*
X61655Y583667D01*
X61644Y583718D01*
X61607Y583779D01*
X61579Y583845D01*
X61534Y583901D01*
X61518Y583929D01*
X61500Y583944D01*
X61474Y583976D01*
X59950Y585500D01*
X59876Y585553D01*
X59807Y585613D01*
X59777Y585625D01*
X59750Y585644D01*
X59663Y585671D01*
X59579Y585705D01*
X59538Y585709D01*
X59515Y585716D01*
X59483Y585715D01*
X59412Y585723D01*
X51654Y585723D01*
X51855Y586996D01*
X52436Y588783D01*
X52685Y589272D01*
X52700Y589319D01*
X52724Y589363D01*
X52737Y589436D01*
X52760Y589506D01*
X52759Y589556D01*
X52768Y589605D01*
X52757Y589678D01*
X52756Y589752D01*
X52739Y589799D01*
X52732Y589848D01*
X52699Y589914D01*
X52674Y589984D01*
X52643Y590023D01*
X52621Y590067D01*
X52568Y590119D01*
X52522Y590177D01*
X52481Y590205D01*
X52445Y590240D01*
X52338Y590299D01*
X52317Y590313D01*
X52309Y590315D01*
X52298Y590321D01*
X50982Y590866D01*
X44766Y597082D01*
X41401Y605204D01*
X41401Y613996D01*
X44720Y622009D01*
X44741Y622097D01*
X44769Y622184D01*
X44769Y622217D01*
X44777Y622248D01*
X44768Y622339D01*
X44767Y622430D01*
X44756Y622470D01*
X44753Y622493D01*
X44740Y622522D01*
X44720Y622591D01*
X41401Y630604D01*
X41401Y639396D01*
X44720Y647409D01*
X44741Y647497D01*
X44769Y647584D01*
X44769Y647617D01*
X44777Y647648D01*
X44768Y647739D01*
X44767Y647830D01*
X44756Y647870D01*
X44753Y647893D01*
X44740Y647922D01*
X44720Y647991D01*
X41401Y656004D01*
X41401Y664796D01*
X44766Y672918D01*
X50982Y679134D01*
X59104Y682499D01*
X67896Y682499D01*
X76018Y679134D01*
X82234Y672918D01*
X85599Y664796D01*
X85599Y656004D01*
X82280Y647991D01*
X82259Y647903D01*
X82231Y647816D01*
X82231Y647783D01*
X82223Y647752D01*
X82232Y647661D01*
X82233Y647570D01*
X82244Y647530D01*
X82247Y647507D01*
X82260Y647478D01*
X82280Y647409D01*
X85599Y639396D01*
X85599Y630604D01*
X82280Y622591D01*
X82259Y622503D01*
X82231Y622416D01*
X82231Y622383D01*
X82223Y622352D01*
X82232Y622261D01*
X82233Y622170D01*
X82244Y622130D01*
X82247Y622107D01*
X82260Y622078D01*
X82280Y622009D01*
X85599Y613996D01*
X85599Y605204D01*
X85136Y604086D01*
X85109Y603973D01*
X85080Y603859D01*
X85081Y603853D01*
X85080Y603847D01*
X85091Y603731D01*
X85100Y603614D01*
X85102Y603608D01*
X85103Y603602D01*
X85150Y603495D01*
X85196Y603388D01*
X85201Y603382D01*
X85203Y603377D01*
X85215Y603364D01*
X85301Y603257D01*
X140606Y547952D01*
X145000Y543557D01*
X147321Y537956D01*
X147321Y148860D01*
X145000Y143259D01*
X137556Y135814D01*
X137516Y135759D01*
X137469Y135711D01*
X137445Y135660D01*
X137412Y135614D01*
X137392Y135550D01*
X137363Y135489D01*
X137357Y135433D01*
X137340Y135379D01*
X137342Y135312D01*
X137334Y135245D01*
X137346Y135166D01*
X137346Y135134D01*
X137354Y135114D01*
X137359Y135079D01*
X139301Y127832D01*
X139301Y118168D01*
X136800Y108834D01*
X131968Y100465D01*
X125135Y93632D01*
X116766Y88800D01*
X107432Y86299D01*
X97768Y86299D01*
G37*
%LPD*%
%LPC*%
G36*
X200436Y185949D02*
X200436Y185949D01*
X191633Y189596D01*
X184896Y196333D01*
X181249Y205136D01*
X181249Y214664D01*
X184896Y223467D01*
X185795Y224367D01*
X185807Y224383D01*
X185822Y224395D01*
X185878Y224482D01*
X185939Y224566D01*
X185945Y224585D01*
X185955Y224602D01*
X185981Y224703D01*
X186011Y224801D01*
X186011Y224821D01*
X186015Y224841D01*
X186007Y224944D01*
X186005Y225047D01*
X185998Y225066D01*
X185996Y225086D01*
X185956Y225181D01*
X185920Y225278D01*
X185908Y225294D01*
X185900Y225312D01*
X185795Y225443D01*
X184783Y226456D01*
X182849Y231124D01*
X182849Y251476D01*
X184783Y256144D01*
X184962Y256324D01*
X185029Y256417D01*
X185100Y256512D01*
X185102Y256518D01*
X185105Y256523D01*
X185140Y256634D01*
X185176Y256746D01*
X185176Y256752D01*
X185178Y256758D01*
X185175Y256875D01*
X185174Y256992D01*
X185172Y256999D01*
X185171Y257004D01*
X185165Y257022D01*
X185127Y257153D01*
X182849Y262652D01*
X182849Y270748D01*
X185947Y278228D01*
X186581Y278862D01*
X186593Y278878D01*
X186609Y278890D01*
X186665Y278978D01*
X186725Y279061D01*
X186731Y279080D01*
X186742Y279097D01*
X186767Y279198D01*
X186797Y279297D01*
X186797Y279316D01*
X186802Y279336D01*
X186794Y279439D01*
X186791Y279542D01*
X186784Y279561D01*
X186783Y279581D01*
X186742Y279676D01*
X186707Y279773D01*
X186694Y279789D01*
X186686Y279807D01*
X186581Y279938D01*
X185947Y280572D01*
X182849Y288052D01*
X182849Y296148D01*
X185947Y303628D01*
X186581Y304262D01*
X186593Y304278D01*
X186609Y304290D01*
X186665Y304378D01*
X186725Y304461D01*
X186731Y304480D01*
X186742Y304497D01*
X186767Y304598D01*
X186797Y304697D01*
X186797Y304716D01*
X186802Y304736D01*
X186794Y304839D01*
X186791Y304942D01*
X186784Y304961D01*
X186783Y304981D01*
X186742Y305076D01*
X186707Y305173D01*
X186694Y305189D01*
X186686Y305207D01*
X186581Y305338D01*
X185947Y305972D01*
X182849Y313452D01*
X182849Y321548D01*
X185947Y329028D01*
X186581Y329662D01*
X186593Y329678D01*
X186609Y329690D01*
X186665Y329778D01*
X186725Y329861D01*
X186731Y329880D01*
X186742Y329897D01*
X186767Y329998D01*
X186797Y330097D01*
X186797Y330116D01*
X186802Y330136D01*
X186794Y330239D01*
X186791Y330342D01*
X186784Y330361D01*
X186783Y330381D01*
X186742Y330476D01*
X186707Y330573D01*
X186694Y330589D01*
X186686Y330607D01*
X186581Y330738D01*
X185947Y331372D01*
X182849Y338852D01*
X182849Y346948D01*
X185947Y354428D01*
X191672Y360153D01*
X194509Y361327D01*
X194602Y361385D01*
X194696Y361439D01*
X194706Y361450D01*
X194718Y361457D01*
X194787Y361541D01*
X194860Y361623D01*
X194866Y361636D01*
X194875Y361647D01*
X194914Y361748D01*
X194957Y361849D01*
X194958Y361863D01*
X194963Y361876D01*
X194967Y361985D01*
X194976Y362094D01*
X194973Y362108D01*
X194973Y362122D01*
X194943Y362227D01*
X194916Y362333D01*
X194908Y362348D01*
X194905Y362358D01*
X194888Y362382D01*
X194833Y362478D01*
X194484Y362959D01*
X193756Y364388D01*
X193260Y365914D01*
X193123Y366777D01*
X202438Y366777D01*
X202458Y366780D01*
X202477Y366778D01*
X202579Y366800D01*
X202681Y366817D01*
X202698Y366826D01*
X202718Y366830D01*
X202807Y366883D01*
X202898Y366932D01*
X202912Y366946D01*
X202929Y366956D01*
X202996Y367035D01*
X203067Y367110D01*
X203076Y367128D01*
X203089Y367143D01*
X203127Y367239D01*
X203171Y367333D01*
X203173Y367353D01*
X203181Y367371D01*
X203199Y367538D01*
X203199Y369062D01*
X203196Y369082D01*
X203198Y369101D01*
X203176Y369203D01*
X203159Y369305D01*
X203150Y369322D01*
X203146Y369342D01*
X203093Y369431D01*
X203044Y369522D01*
X203030Y369536D01*
X203020Y369553D01*
X202941Y369620D01*
X202866Y369691D01*
X202848Y369700D01*
X202833Y369713D01*
X202737Y369752D01*
X202643Y369795D01*
X202623Y369797D01*
X202605Y369805D01*
X202438Y369823D01*
X193123Y369823D01*
X193260Y370686D01*
X193756Y372212D01*
X194484Y373641D01*
X194833Y374122D01*
X194882Y374219D01*
X194935Y374315D01*
X194937Y374329D01*
X194944Y374341D01*
X194959Y374449D01*
X194979Y374557D01*
X194977Y374571D01*
X194979Y374585D01*
X194959Y374692D01*
X194943Y374800D01*
X194936Y374813D01*
X194934Y374827D01*
X194881Y374922D01*
X194831Y375019D01*
X194821Y375029D01*
X194814Y375042D01*
X194734Y375115D01*
X194656Y375192D01*
X194641Y375200D01*
X194632Y375207D01*
X194606Y375219D01*
X194509Y375273D01*
X191672Y376447D01*
X185947Y382172D01*
X182849Y389652D01*
X182849Y397748D01*
X185947Y405228D01*
X186581Y405862D01*
X186593Y405878D01*
X186609Y405890D01*
X186665Y405978D01*
X186725Y406061D01*
X186731Y406080D01*
X186742Y406097D01*
X186767Y406198D01*
X186797Y406297D01*
X186797Y406316D01*
X186802Y406336D01*
X186794Y406439D01*
X186791Y406542D01*
X186784Y406561D01*
X186783Y406581D01*
X186742Y406676D01*
X186707Y406773D01*
X186694Y406789D01*
X186686Y406807D01*
X186581Y406938D01*
X185947Y407572D01*
X182849Y415052D01*
X182849Y423148D01*
X185947Y430628D01*
X186581Y431262D01*
X186593Y431278D01*
X186609Y431290D01*
X186665Y431378D01*
X186725Y431461D01*
X186731Y431480D01*
X186742Y431497D01*
X186767Y431598D01*
X186797Y431697D01*
X186797Y431716D01*
X186802Y431736D01*
X186794Y431839D01*
X186791Y431942D01*
X186784Y431961D01*
X186783Y431981D01*
X186742Y432076D01*
X186707Y432173D01*
X186694Y432189D01*
X186686Y432207D01*
X186581Y432338D01*
X185947Y432972D01*
X182849Y440452D01*
X182849Y448548D01*
X185947Y456028D01*
X186581Y456662D01*
X186593Y456678D01*
X186609Y456690D01*
X186665Y456778D01*
X186725Y456861D01*
X186731Y456880D01*
X186742Y456897D01*
X186767Y456998D01*
X186797Y457097D01*
X186797Y457116D01*
X186802Y457136D01*
X186794Y457239D01*
X186791Y457342D01*
X186784Y457361D01*
X186783Y457381D01*
X186742Y457476D01*
X186707Y457573D01*
X186694Y457589D01*
X186686Y457607D01*
X186581Y457738D01*
X185947Y458372D01*
X182849Y465852D01*
X182849Y473948D01*
X185947Y481428D01*
X186581Y482062D01*
X186593Y482078D01*
X186609Y482090D01*
X186665Y482178D01*
X186725Y482261D01*
X186731Y482280D01*
X186742Y482297D01*
X186767Y482398D01*
X186797Y482497D01*
X186797Y482516D01*
X186802Y482536D01*
X186794Y482639D01*
X186791Y482742D01*
X186784Y482761D01*
X186783Y482781D01*
X186742Y482876D01*
X186707Y482973D01*
X186694Y482989D01*
X186686Y483007D01*
X186581Y483138D01*
X185947Y483772D01*
X182849Y491252D01*
X182849Y499348D01*
X185947Y506828D01*
X186581Y507462D01*
X186593Y507478D01*
X186609Y507490D01*
X186665Y507578D01*
X186725Y507661D01*
X186731Y507680D01*
X186742Y507697D01*
X186767Y507798D01*
X186797Y507897D01*
X186797Y507916D01*
X186802Y507936D01*
X186794Y508039D01*
X186791Y508142D01*
X186784Y508161D01*
X186783Y508181D01*
X186742Y508276D01*
X186707Y508373D01*
X186694Y508389D01*
X186686Y508407D01*
X186581Y508538D01*
X185947Y509172D01*
X182849Y516652D01*
X182849Y524748D01*
X185947Y532228D01*
X186581Y532862D01*
X186593Y532878D01*
X186609Y532890D01*
X186637Y532935D01*
X186668Y532968D01*
X186688Y533010D01*
X186725Y533061D01*
X186731Y533080D01*
X186742Y533097D01*
X186757Y533159D01*
X186772Y533191D01*
X186776Y533227D01*
X186797Y533297D01*
X186797Y533316D01*
X186802Y533336D01*
X186796Y533408D01*
X186799Y533435D01*
X186793Y533463D01*
X186791Y533542D01*
X186784Y533561D01*
X186783Y533581D01*
X186751Y533654D01*
X186747Y533676D01*
X186735Y533695D01*
X186707Y533773D01*
X186694Y533789D01*
X186686Y533807D01*
X186581Y533938D01*
X185947Y534572D01*
X182849Y542052D01*
X182849Y550148D01*
X185947Y557628D01*
X186581Y558262D01*
X186593Y558278D01*
X186609Y558290D01*
X186665Y558378D01*
X186725Y558461D01*
X186731Y558480D01*
X186742Y558497D01*
X186767Y558598D01*
X186797Y558697D01*
X186797Y558716D01*
X186802Y558736D01*
X186794Y558839D01*
X186791Y558942D01*
X186784Y558961D01*
X186783Y558981D01*
X186742Y559076D01*
X186707Y559173D01*
X186694Y559189D01*
X186686Y559207D01*
X186581Y559338D01*
X185947Y559972D01*
X182849Y567452D01*
X182849Y575548D01*
X185947Y583028D01*
X186581Y583662D01*
X186593Y583678D01*
X186609Y583690D01*
X186665Y583778D01*
X186725Y583861D01*
X186731Y583880D01*
X186742Y583897D01*
X186767Y583998D01*
X186797Y584097D01*
X186797Y584116D01*
X186802Y584136D01*
X186794Y584239D01*
X186791Y584342D01*
X186784Y584361D01*
X186783Y584381D01*
X186742Y584476D01*
X186707Y584573D01*
X186694Y584589D01*
X186686Y584607D01*
X186581Y584738D01*
X185947Y585372D01*
X182849Y592852D01*
X182849Y600948D01*
X185947Y608428D01*
X186581Y609062D01*
X186593Y609078D01*
X186609Y609090D01*
X186665Y609178D01*
X186725Y609261D01*
X186731Y609280D01*
X186742Y609297D01*
X186767Y609398D01*
X186797Y609497D01*
X186797Y609516D01*
X186802Y609536D01*
X186794Y609639D01*
X186791Y609742D01*
X186784Y609761D01*
X186783Y609781D01*
X186742Y609876D01*
X186707Y609973D01*
X186694Y609989D01*
X186686Y610007D01*
X186581Y610138D01*
X185947Y610772D01*
X182849Y618252D01*
X182849Y626348D01*
X185947Y633828D01*
X186581Y634462D01*
X186593Y634478D01*
X186609Y634490D01*
X186665Y634578D01*
X186725Y634661D01*
X186731Y634680D01*
X186742Y634697D01*
X186767Y634798D01*
X186797Y634897D01*
X186797Y634916D01*
X186802Y634936D01*
X186794Y635039D01*
X186791Y635142D01*
X186784Y635161D01*
X186783Y635181D01*
X186742Y635276D01*
X186707Y635373D01*
X186694Y635389D01*
X186686Y635407D01*
X186581Y635538D01*
X185947Y636172D01*
X182849Y643652D01*
X182849Y651748D01*
X185947Y659228D01*
X186581Y659862D01*
X186593Y659878D01*
X186609Y659890D01*
X186665Y659978D01*
X186725Y660061D01*
X186731Y660080D01*
X186742Y660097D01*
X186767Y660198D01*
X186797Y660297D01*
X186797Y660316D01*
X186802Y660336D01*
X186794Y660439D01*
X186791Y660542D01*
X186784Y660561D01*
X186783Y660581D01*
X186742Y660676D01*
X186707Y660773D01*
X186694Y660789D01*
X186686Y660807D01*
X186581Y660938D01*
X185947Y661572D01*
X182849Y669052D01*
X182849Y677148D01*
X185947Y684628D01*
X186581Y685262D01*
X186593Y685278D01*
X186609Y685290D01*
X186665Y685378D01*
X186725Y685461D01*
X186731Y685480D01*
X186742Y685497D01*
X186767Y685598D01*
X186797Y685697D01*
X186797Y685716D01*
X186802Y685736D01*
X186794Y685839D01*
X186791Y685942D01*
X186784Y685961D01*
X186783Y685981D01*
X186742Y686076D01*
X186707Y686173D01*
X186694Y686189D01*
X186686Y686207D01*
X186581Y686338D01*
X185947Y686972D01*
X182849Y694452D01*
X182849Y702548D01*
X185947Y710028D01*
X188036Y712116D01*
X188047Y712132D01*
X188063Y712145D01*
X188119Y712232D01*
X188179Y712316D01*
X188185Y712335D01*
X188196Y712352D01*
X188221Y712452D01*
X188252Y712551D01*
X188251Y712571D01*
X188256Y712590D01*
X188248Y712693D01*
X188245Y712797D01*
X188239Y712816D01*
X188237Y712835D01*
X188197Y712930D01*
X188161Y713028D01*
X188148Y713043D01*
X188141Y713062D01*
X188036Y713193D01*
X184896Y716333D01*
X181249Y725136D01*
X181249Y734664D01*
X184896Y743467D01*
X191633Y750204D01*
X200436Y753851D01*
X209964Y753851D01*
X218767Y750204D01*
X225504Y743467D01*
X229151Y734664D01*
X229151Y725136D01*
X225504Y716333D01*
X220364Y711193D01*
X220353Y711177D01*
X220337Y711164D01*
X220281Y711077D01*
X220221Y710993D01*
X220215Y710974D01*
X220204Y710957D01*
X220179Y710857D01*
X220148Y710758D01*
X220149Y710738D01*
X220144Y710719D01*
X220152Y710616D01*
X220155Y710512D01*
X220161Y710493D01*
X220163Y710473D01*
X220203Y710378D01*
X220239Y710281D01*
X220252Y710265D01*
X220259Y710247D01*
X220364Y710116D01*
X220453Y710028D01*
X223551Y702548D01*
X223551Y694452D01*
X220453Y686972D01*
X219819Y686338D01*
X219807Y686322D01*
X219791Y686310D01*
X219735Y686222D01*
X219675Y686139D01*
X219669Y686120D01*
X219658Y686103D01*
X219633Y686002D01*
X219603Y685903D01*
X219603Y685884D01*
X219598Y685864D01*
X219606Y685761D01*
X219609Y685658D01*
X219616Y685639D01*
X219617Y685619D01*
X219658Y685524D01*
X219693Y685427D01*
X219706Y685411D01*
X219714Y685393D01*
X219819Y685262D01*
X220453Y684628D01*
X223551Y677148D01*
X223551Y669052D01*
X220453Y661572D01*
X219819Y660938D01*
X219807Y660922D01*
X219791Y660910D01*
X219735Y660822D01*
X219675Y660739D01*
X219669Y660720D01*
X219658Y660703D01*
X219633Y660602D01*
X219603Y660503D01*
X219603Y660484D01*
X219598Y660464D01*
X219606Y660361D01*
X219609Y660258D01*
X219616Y660239D01*
X219617Y660219D01*
X219658Y660124D01*
X219693Y660027D01*
X219706Y660011D01*
X219714Y659993D01*
X219819Y659862D01*
X220453Y659228D01*
X223551Y651748D01*
X223551Y643652D01*
X220453Y636172D01*
X219819Y635538D01*
X219807Y635522D01*
X219791Y635510D01*
X219735Y635422D01*
X219675Y635339D01*
X219669Y635320D01*
X219658Y635303D01*
X219633Y635202D01*
X219603Y635103D01*
X219603Y635084D01*
X219598Y635064D01*
X219606Y634961D01*
X219609Y634858D01*
X219616Y634839D01*
X219617Y634819D01*
X219658Y634724D01*
X219693Y634627D01*
X219706Y634611D01*
X219714Y634593D01*
X219819Y634462D01*
X220453Y633828D01*
X223551Y626348D01*
X223551Y618252D01*
X220453Y610772D01*
X219819Y610138D01*
X219807Y610122D01*
X219791Y610110D01*
X219735Y610022D01*
X219675Y609939D01*
X219669Y609920D01*
X219658Y609903D01*
X219633Y609802D01*
X219603Y609703D01*
X219603Y609684D01*
X219598Y609664D01*
X219606Y609561D01*
X219609Y609458D01*
X219616Y609439D01*
X219617Y609419D01*
X219658Y609324D01*
X219693Y609227D01*
X219706Y609211D01*
X219714Y609193D01*
X219819Y609062D01*
X220453Y608428D01*
X223551Y600948D01*
X223551Y592852D01*
X220453Y585372D01*
X219819Y584738D01*
X219807Y584722D01*
X219791Y584710D01*
X219735Y584622D01*
X219675Y584539D01*
X219669Y584520D01*
X219658Y584503D01*
X219633Y584402D01*
X219603Y584303D01*
X219603Y584284D01*
X219598Y584264D01*
X219606Y584161D01*
X219609Y584058D01*
X219616Y584039D01*
X219617Y584019D01*
X219658Y583924D01*
X219693Y583827D01*
X219706Y583811D01*
X219714Y583793D01*
X219819Y583662D01*
X220453Y583028D01*
X223551Y575548D01*
X223551Y567452D01*
X220453Y559972D01*
X219819Y559338D01*
X219807Y559322D01*
X219791Y559310D01*
X219735Y559222D01*
X219675Y559139D01*
X219669Y559120D01*
X219658Y559103D01*
X219633Y559002D01*
X219603Y558903D01*
X219603Y558884D01*
X219598Y558864D01*
X219606Y558761D01*
X219609Y558658D01*
X219616Y558639D01*
X219617Y558619D01*
X219658Y558524D01*
X219693Y558427D01*
X219706Y558411D01*
X219714Y558393D01*
X219819Y558262D01*
X220453Y557628D01*
X223551Y550148D01*
X223551Y542052D01*
X220453Y534572D01*
X219819Y533938D01*
X219807Y533922D01*
X219791Y533910D01*
X219746Y533838D01*
X219732Y533824D01*
X219723Y533806D01*
X219675Y533739D01*
X219669Y533720D01*
X219658Y533703D01*
X219638Y533623D01*
X219628Y533601D01*
X219625Y533578D01*
X219603Y533503D01*
X219603Y533484D01*
X219598Y533464D01*
X219604Y533387D01*
X219601Y533356D01*
X219607Y533327D01*
X219609Y533258D01*
X219616Y533239D01*
X219617Y533219D01*
X219645Y533155D01*
X219653Y533116D01*
X219673Y533083D01*
X219693Y533027D01*
X219706Y533011D01*
X219714Y532993D01*
X219765Y532928D01*
X219779Y532905D01*
X219794Y532892D01*
X219819Y532862D01*
X220453Y532228D01*
X223551Y524748D01*
X223551Y516652D01*
X220453Y509172D01*
X219819Y508538D01*
X219807Y508522D01*
X219791Y508510D01*
X219735Y508422D01*
X219675Y508339D01*
X219669Y508320D01*
X219658Y508303D01*
X219633Y508202D01*
X219603Y508103D01*
X219603Y508084D01*
X219598Y508064D01*
X219606Y507961D01*
X219609Y507858D01*
X219616Y507839D01*
X219617Y507819D01*
X219658Y507724D01*
X219693Y507627D01*
X219706Y507611D01*
X219714Y507593D01*
X219819Y507462D01*
X220453Y506828D01*
X223551Y499348D01*
X223551Y491252D01*
X220453Y483772D01*
X219819Y483138D01*
X219807Y483122D01*
X219791Y483110D01*
X219735Y483022D01*
X219675Y482939D01*
X219669Y482920D01*
X219658Y482903D01*
X219633Y482802D01*
X219603Y482703D01*
X219603Y482684D01*
X219598Y482664D01*
X219606Y482561D01*
X219609Y482458D01*
X219616Y482439D01*
X219617Y482419D01*
X219658Y482324D01*
X219693Y482227D01*
X219706Y482211D01*
X219714Y482193D01*
X219819Y482062D01*
X220453Y481428D01*
X223551Y473948D01*
X223551Y465852D01*
X220453Y458372D01*
X219819Y457738D01*
X219807Y457722D01*
X219791Y457710D01*
X219735Y457622D01*
X219675Y457539D01*
X219669Y457520D01*
X219658Y457503D01*
X219633Y457402D01*
X219603Y457303D01*
X219603Y457284D01*
X219598Y457264D01*
X219606Y457161D01*
X219609Y457058D01*
X219616Y457039D01*
X219617Y457019D01*
X219658Y456924D01*
X219693Y456827D01*
X219706Y456811D01*
X219714Y456793D01*
X219819Y456662D01*
X220453Y456028D01*
X223551Y448548D01*
X223551Y440452D01*
X220453Y432972D01*
X219819Y432338D01*
X219807Y432322D01*
X219791Y432310D01*
X219735Y432222D01*
X219675Y432139D01*
X219669Y432120D01*
X219658Y432103D01*
X219633Y432002D01*
X219603Y431903D01*
X219603Y431884D01*
X219598Y431864D01*
X219606Y431761D01*
X219609Y431658D01*
X219616Y431639D01*
X219617Y431619D01*
X219658Y431524D01*
X219693Y431427D01*
X219706Y431411D01*
X219714Y431393D01*
X219819Y431262D01*
X220453Y430628D01*
X223551Y423148D01*
X223551Y415052D01*
X220453Y407572D01*
X219819Y406938D01*
X219807Y406922D01*
X219791Y406910D01*
X219735Y406822D01*
X219675Y406739D01*
X219669Y406720D01*
X219658Y406703D01*
X219633Y406602D01*
X219603Y406503D01*
X219603Y406484D01*
X219598Y406464D01*
X219606Y406361D01*
X219609Y406258D01*
X219616Y406239D01*
X219617Y406219D01*
X219658Y406124D01*
X219693Y406027D01*
X219706Y406011D01*
X219714Y405993D01*
X219819Y405862D01*
X220453Y405228D01*
X223551Y397748D01*
X223551Y389652D01*
X220453Y382172D01*
X214728Y376447D01*
X211891Y375273D01*
X211798Y375215D01*
X211704Y375161D01*
X211694Y375150D01*
X211682Y375143D01*
X211613Y375059D01*
X211540Y374977D01*
X211534Y374964D01*
X211525Y374953D01*
X211486Y374852D01*
X211443Y374751D01*
X211442Y374737D01*
X211437Y374724D01*
X211433Y374615D01*
X211424Y374506D01*
X211427Y374492D01*
X211427Y374478D01*
X211457Y374373D01*
X211484Y374267D01*
X211492Y374252D01*
X211495Y374242D01*
X211512Y374218D01*
X211567Y374122D01*
X211916Y373641D01*
X212644Y372212D01*
X213140Y370686D01*
X213277Y369823D01*
X203962Y369823D01*
X203942Y369820D01*
X203923Y369822D01*
X203821Y369800D01*
X203719Y369783D01*
X203702Y369774D01*
X203682Y369770D01*
X203593Y369717D01*
X203502Y369668D01*
X203488Y369654D01*
X203471Y369644D01*
X203404Y369565D01*
X203333Y369490D01*
X203324Y369472D01*
X203311Y369457D01*
X203273Y369361D01*
X203229Y369267D01*
X203227Y369247D01*
X203219Y369229D01*
X203201Y369062D01*
X203201Y367538D01*
X203204Y367518D01*
X203202Y367499D01*
X203224Y367397D01*
X203241Y367295D01*
X203250Y367278D01*
X203254Y367258D01*
X203307Y367169D01*
X203356Y367078D01*
X203370Y367064D01*
X203380Y367047D01*
X203459Y366980D01*
X203534Y366909D01*
X203552Y366900D01*
X203567Y366887D01*
X203663Y366848D01*
X203757Y366805D01*
X203777Y366803D01*
X203795Y366795D01*
X203962Y366777D01*
X213277Y366777D01*
X213140Y365914D01*
X212644Y364388D01*
X211916Y362959D01*
X211567Y362478D01*
X211518Y362381D01*
X211465Y362285D01*
X211463Y362271D01*
X211456Y362259D01*
X211441Y362151D01*
X211421Y362043D01*
X211423Y362029D01*
X211421Y362015D01*
X211441Y361908D01*
X211457Y361800D01*
X211464Y361787D01*
X211466Y361773D01*
X211519Y361678D01*
X211569Y361581D01*
X211579Y361571D01*
X211586Y361558D01*
X211666Y361485D01*
X211744Y361408D01*
X211759Y361400D01*
X211768Y361393D01*
X211794Y361381D01*
X211891Y361327D01*
X214728Y360153D01*
X220453Y354428D01*
X223551Y346948D01*
X223551Y338852D01*
X220453Y331372D01*
X219819Y330738D01*
X219807Y330722D01*
X219791Y330710D01*
X219735Y330622D01*
X219675Y330539D01*
X219669Y330520D01*
X219658Y330503D01*
X219633Y330402D01*
X219603Y330303D01*
X219603Y330284D01*
X219598Y330264D01*
X219606Y330161D01*
X219609Y330058D01*
X219616Y330039D01*
X219617Y330019D01*
X219658Y329924D01*
X219693Y329827D01*
X219706Y329811D01*
X219714Y329793D01*
X219819Y329662D01*
X220453Y329028D01*
X223551Y321548D01*
X223551Y313452D01*
X220453Y305972D01*
X219819Y305338D01*
X219807Y305322D01*
X219791Y305310D01*
X219735Y305222D01*
X219675Y305139D01*
X219669Y305120D01*
X219658Y305103D01*
X219633Y305002D01*
X219603Y304903D01*
X219603Y304884D01*
X219598Y304864D01*
X219606Y304761D01*
X219609Y304658D01*
X219616Y304639D01*
X219617Y304619D01*
X219658Y304524D01*
X219693Y304427D01*
X219706Y304411D01*
X219714Y304393D01*
X219819Y304262D01*
X220453Y303628D01*
X223551Y296148D01*
X223551Y288052D01*
X220453Y280572D01*
X219819Y279938D01*
X219807Y279922D01*
X219791Y279910D01*
X219735Y279822D01*
X219675Y279739D01*
X219669Y279720D01*
X219658Y279703D01*
X219633Y279602D01*
X219603Y279503D01*
X219603Y279484D01*
X219598Y279464D01*
X219606Y279361D01*
X219609Y279258D01*
X219616Y279239D01*
X219617Y279219D01*
X219658Y279124D01*
X219693Y279027D01*
X219706Y279011D01*
X219714Y278993D01*
X219819Y278862D01*
X220453Y278228D01*
X223551Y270748D01*
X223551Y262652D01*
X221273Y257153D01*
X221246Y257040D01*
X221218Y256926D01*
X221218Y256920D01*
X221217Y256914D01*
X221228Y256797D01*
X221237Y256681D01*
X221239Y256675D01*
X221240Y256669D01*
X221288Y256561D01*
X221333Y256454D01*
X221338Y256449D01*
X221340Y256444D01*
X221353Y256430D01*
X221438Y256324D01*
X221617Y256144D01*
X223551Y251476D01*
X223551Y231124D01*
X222075Y227561D01*
X222048Y227447D01*
X222020Y227334D01*
X222020Y227328D01*
X222019Y227322D01*
X222030Y227205D01*
X222039Y227089D01*
X222041Y227083D01*
X222042Y227077D01*
X222090Y226969D01*
X222135Y226862D01*
X222140Y226856D01*
X222142Y226852D01*
X222154Y226838D01*
X222240Y226731D01*
X225504Y223467D01*
X229151Y214664D01*
X229151Y205136D01*
X225504Y196333D01*
X218767Y189596D01*
X209964Y185949D01*
X200436Y185949D01*
G37*
%LPD*%
%LPC*%
G36*
X339073Y44259D02*
X339073Y44259D01*
X332001Y47189D01*
X326589Y52601D01*
X323659Y59673D01*
X323659Y67327D01*
X326589Y74399D01*
X332001Y79811D01*
X336001Y81468D01*
X336040Y81493D01*
X336083Y81508D01*
X336144Y81557D01*
X336210Y81598D01*
X336239Y81633D01*
X336275Y81662D01*
X336317Y81728D01*
X336367Y81787D01*
X336383Y81830D01*
X336408Y81869D01*
X336427Y81944D01*
X336455Y82017D01*
X336457Y82063D01*
X336468Y82107D01*
X336462Y82185D01*
X336465Y82263D01*
X336453Y82307D01*
X336449Y82353D01*
X336419Y82424D01*
X336397Y82499D01*
X336371Y82537D01*
X336353Y82579D01*
X336267Y82686D01*
X336257Y82701D01*
X336253Y82704D01*
X336248Y82710D01*
X335847Y83111D01*
X334853Y84599D01*
X334168Y86251D01*
X333944Y87377D01*
X342138Y87377D01*
X342158Y87380D01*
X342177Y87378D01*
X342279Y87400D01*
X342381Y87417D01*
X342398Y87426D01*
X342418Y87430D01*
X342507Y87483D01*
X342598Y87532D01*
X342612Y87546D01*
X342629Y87556D01*
X342696Y87635D01*
X342767Y87710D01*
X342776Y87728D01*
X342789Y87743D01*
X342827Y87839D01*
X342871Y87933D01*
X342873Y87953D01*
X342881Y87971D01*
X342899Y88138D01*
X342899Y89662D01*
X342896Y89682D01*
X342898Y89701D01*
X342876Y89803D01*
X342859Y89905D01*
X342850Y89922D01*
X342846Y89942D01*
X342793Y90031D01*
X342744Y90122D01*
X342730Y90136D01*
X342720Y90153D01*
X342641Y90220D01*
X342566Y90291D01*
X342548Y90300D01*
X342533Y90313D01*
X342437Y90352D01*
X342343Y90395D01*
X342323Y90397D01*
X342305Y90405D01*
X342138Y90423D01*
X333944Y90423D01*
X334168Y91549D01*
X334853Y93201D01*
X335847Y94689D01*
X336248Y95090D01*
X336275Y95127D01*
X336309Y95158D01*
X336346Y95227D01*
X336392Y95290D01*
X336405Y95334D01*
X336427Y95374D01*
X336441Y95450D01*
X336464Y95525D01*
X336463Y95571D01*
X336471Y95616D01*
X336460Y95693D01*
X336458Y95771D01*
X336442Y95814D01*
X336435Y95859D01*
X336400Y95929D01*
X336373Y96002D01*
X336344Y96038D01*
X336324Y96079D01*
X336268Y96133D01*
X336219Y96194D01*
X336181Y96219D01*
X336148Y96251D01*
X336028Y96317D01*
X336012Y96327D01*
X336008Y96328D01*
X336001Y96332D01*
X332001Y97989D01*
X326589Y103401D01*
X323659Y110473D01*
X323659Y118127D01*
X326589Y125199D01*
X332001Y130611D01*
X339073Y133541D01*
X346727Y133541D01*
X353799Y130611D01*
X359211Y125199D01*
X362141Y118127D01*
X362141Y110473D01*
X359211Y103401D01*
X353799Y97989D01*
X349799Y96332D01*
X349760Y96307D01*
X349717Y96292D01*
X349656Y96243D01*
X349590Y96202D01*
X349561Y96167D01*
X349525Y96138D01*
X349483Y96072D01*
X349433Y96013D01*
X349417Y95970D01*
X349392Y95931D01*
X349373Y95856D01*
X349345Y95783D01*
X349343Y95737D01*
X349332Y95693D01*
X349338Y95615D01*
X349335Y95537D01*
X349347Y95493D01*
X349351Y95447D01*
X349381Y95376D01*
X349403Y95301D01*
X349429Y95263D01*
X349447Y95221D01*
X349533Y95114D01*
X349543Y95099D01*
X349547Y95096D01*
X349552Y95090D01*
X349953Y94689D01*
X350947Y93201D01*
X351632Y91549D01*
X351856Y90423D01*
X343662Y90423D01*
X343642Y90420D01*
X343623Y90422D01*
X343521Y90400D01*
X343419Y90383D01*
X343402Y90374D01*
X343382Y90370D01*
X343293Y90317D01*
X343202Y90268D01*
X343188Y90254D01*
X343171Y90244D01*
X343104Y90165D01*
X343033Y90090D01*
X343024Y90072D01*
X343011Y90057D01*
X342973Y89961D01*
X342929Y89867D01*
X342927Y89847D01*
X342919Y89829D01*
X342901Y89662D01*
X342901Y88138D01*
X342904Y88118D01*
X342902Y88099D01*
X342924Y87997D01*
X342941Y87895D01*
X342950Y87878D01*
X342954Y87858D01*
X343007Y87769D01*
X343056Y87678D01*
X343070Y87664D01*
X343080Y87647D01*
X343159Y87580D01*
X343234Y87509D01*
X343252Y87500D01*
X343267Y87487D01*
X343363Y87448D01*
X343457Y87405D01*
X343477Y87403D01*
X343495Y87395D01*
X343662Y87377D01*
X351856Y87377D01*
X351632Y86251D01*
X350947Y84599D01*
X349953Y83111D01*
X349552Y82710D01*
X349525Y82673D01*
X349491Y82642D01*
X349454Y82573D01*
X349408Y82510D01*
X349395Y82466D01*
X349373Y82426D01*
X349359Y82350D01*
X349336Y82275D01*
X349337Y82229D01*
X349329Y82184D01*
X349340Y82107D01*
X349342Y82029D01*
X349358Y81986D01*
X349365Y81941D01*
X349400Y81871D01*
X349427Y81798D01*
X349456Y81762D01*
X349476Y81721D01*
X349532Y81667D01*
X349581Y81606D01*
X349619Y81581D01*
X349652Y81549D01*
X349772Y81483D01*
X349788Y81473D01*
X349792Y81472D01*
X349799Y81468D01*
X353799Y79811D01*
X359211Y74399D01*
X362141Y67327D01*
X362141Y59673D01*
X359211Y52601D01*
X353799Y47189D01*
X346727Y44259D01*
X339073Y44259D01*
G37*
%LPD*%
%LPC*%
G36*
X573023Y366777D02*
X573023Y366777D01*
X583346Y366777D01*
X583145Y365504D01*
X582564Y363717D01*
X581711Y362043D01*
X580606Y360522D01*
X579278Y359194D01*
X577757Y358089D01*
X576083Y357236D01*
X574296Y356655D01*
X573023Y356454D01*
X573023Y366777D01*
G37*
%LPD*%
%LPC*%
G36*
X568704Y356655D02*
X568704Y356655D01*
X566917Y357236D01*
X565243Y358089D01*
X563722Y359194D01*
X562394Y360522D01*
X561289Y362043D01*
X560436Y363717D01*
X559855Y365504D01*
X559654Y366777D01*
X569977Y366777D01*
X569977Y356454D01*
X568704Y356655D01*
G37*
%LPD*%
%LPC*%
G36*
X571499Y368299D02*
X571499Y368299D01*
X571499Y368301D01*
X571501Y368301D01*
X571501Y368299D01*
X571499Y368299D01*
G37*
%LPD*%
D10*
X571500Y368300D03*
X571500Y393700D03*
X571500Y419100D03*
X571500Y444500D03*
X571500Y469900D03*
X63500Y584200D03*
X63500Y609600D03*
X63500Y635000D03*
X63500Y660400D03*
D11*
X55600Y153000D03*
X102600Y123000D03*
X102600Y182000D03*
D12*
X203200Y698500D03*
X203200Y673100D03*
D13*
X203200Y241300D03*
D12*
X203200Y647700D03*
X203200Y622300D03*
X203200Y596900D03*
X203200Y571500D03*
X203200Y546100D03*
X203200Y520700D03*
X203200Y495300D03*
X203200Y469900D03*
X203200Y444500D03*
X203200Y419100D03*
X203200Y393700D03*
X203200Y368300D03*
X203200Y342900D03*
X203200Y317500D03*
X203200Y292100D03*
X203200Y266700D03*
X457200Y241300D03*
X457200Y266700D03*
X457200Y292100D03*
X457200Y317500D03*
X457200Y342900D03*
X457200Y368300D03*
X457200Y393700D03*
X457200Y419100D03*
X457200Y444500D03*
X457200Y469900D03*
X457200Y495300D03*
X457200Y520700D03*
X457200Y546100D03*
X457200Y571500D03*
X457200Y596900D03*
X457200Y622300D03*
X457200Y647700D03*
X457200Y673100D03*
D13*
X457200Y698500D03*
D14*
X342900Y63500D03*
X342900Y88900D03*
X342900Y114300D03*
D15*
X487045Y454025D02*
X472186Y468884D01*
X487045Y454025D02*
X571246Y369824D01*
X472186Y468884D02*
X472186Y531622D01*
X458978Y544830D01*
X571246Y369824D02*
X571500Y368300D01*
X458978Y544830D02*
X457200Y546100D01*
X487045Y454025D02*
X465582Y432562D01*
X267462Y432562D01*
X203200Y368300D01*
X66040Y600964D02*
X66040Y607568D01*
X66040Y600964D02*
X132080Y534924D01*
X132080Y151892D01*
X105664Y125476D01*
X66040Y607568D02*
X63500Y609600D01*
X105664Y125476D02*
X102600Y123000D01*
X458978Y587756D02*
X458978Y594360D01*
X458978Y587756D02*
X533367Y513367D01*
X458978Y594360D02*
X457200Y596900D01*
X571246Y396240D02*
X571500Y393700D01*
X533367Y434119D02*
X533367Y513367D01*
X533367Y434119D02*
X571246Y396240D01*
X571500Y419100D02*
X558038Y432562D01*
X558038Y455676D02*
X571246Y468884D01*
X571500Y469900D01*
X558038Y455676D02*
X558038Y432562D01*
M02*
