G04 EAGLE Gerber RS-274X export*
G75*
%MOMM*%
%FSLAX34Y34*%
%LPD*%
%INSilkscreen Top*%
%IPPOS*%
%AMOC8*
5,1,8,0,0,1.08239X$1,22.5*%
G01*
%ADD10C,0.050800*%
%ADD11C,0.076200*%
%ADD12C,0.203200*%
%ADD13C,0.127000*%
%ADD14C,0.101600*%


D10*
X25210Y584510D02*
X26142Y584510D01*
X26142Y581406D01*
X24279Y581406D01*
X24209Y581408D01*
X24140Y581414D01*
X24071Y581424D01*
X24003Y581437D01*
X23935Y581455D01*
X23869Y581476D01*
X23804Y581501D01*
X23740Y581529D01*
X23678Y581561D01*
X23618Y581596D01*
X23560Y581635D01*
X23505Y581677D01*
X23451Y581722D01*
X23401Y581770D01*
X23353Y581820D01*
X23308Y581874D01*
X23266Y581929D01*
X23227Y581987D01*
X23192Y582047D01*
X23160Y582109D01*
X23132Y582173D01*
X23107Y582238D01*
X23086Y582304D01*
X23068Y582372D01*
X23055Y582440D01*
X23045Y582509D01*
X23039Y582578D01*
X23037Y582648D01*
X23037Y585752D01*
X23039Y585822D01*
X23045Y585891D01*
X23055Y585960D01*
X23068Y586028D01*
X23086Y586096D01*
X23107Y586162D01*
X23132Y586227D01*
X23160Y586291D01*
X23192Y586353D01*
X23227Y586413D01*
X23266Y586471D01*
X23308Y586526D01*
X23353Y586580D01*
X23401Y586630D01*
X23451Y586678D01*
X23505Y586723D01*
X23560Y586765D01*
X23618Y586804D01*
X23678Y586839D01*
X23740Y586871D01*
X23804Y586899D01*
X23869Y586924D01*
X23935Y586945D01*
X24003Y586963D01*
X24071Y586976D01*
X24140Y586986D01*
X24209Y586992D01*
X24279Y586994D01*
X26142Y586994D01*
X28889Y586994D02*
X28889Y581406D01*
X31994Y581406D02*
X28889Y586994D01*
X31994Y586994D02*
X31994Y581406D01*
X34742Y581406D02*
X34742Y586994D01*
X36294Y586994D01*
X36370Y586992D01*
X36446Y586987D01*
X36522Y586977D01*
X36597Y586964D01*
X36671Y586947D01*
X36745Y586927D01*
X36817Y586903D01*
X36888Y586876D01*
X36958Y586845D01*
X37026Y586811D01*
X37092Y586773D01*
X37156Y586732D01*
X37219Y586689D01*
X37279Y586642D01*
X37336Y586592D01*
X37391Y586539D01*
X37444Y586484D01*
X37494Y586427D01*
X37541Y586367D01*
X37584Y586304D01*
X37625Y586240D01*
X37663Y586174D01*
X37697Y586106D01*
X37728Y586036D01*
X37755Y585965D01*
X37779Y585892D01*
X37799Y585819D01*
X37816Y585745D01*
X37829Y585670D01*
X37839Y585594D01*
X37844Y585518D01*
X37846Y585442D01*
X37846Y582958D01*
X37844Y582879D01*
X37838Y582801D01*
X37828Y582723D01*
X37814Y582646D01*
X37796Y582569D01*
X37775Y582493D01*
X37749Y582419D01*
X37720Y582346D01*
X37687Y582275D01*
X37651Y582205D01*
X37611Y582137D01*
X37568Y582071D01*
X37521Y582008D01*
X37472Y581947D01*
X37419Y581889D01*
X37363Y581833D01*
X37305Y581780D01*
X37244Y581731D01*
X37181Y581684D01*
X37115Y581641D01*
X37047Y581601D01*
X36978Y581565D01*
X36906Y581532D01*
X36833Y581503D01*
X36759Y581477D01*
X36683Y581456D01*
X36606Y581438D01*
X36529Y581424D01*
X36451Y581414D01*
X36373Y581408D01*
X36294Y581406D01*
X34742Y581406D01*
X21021Y608979D02*
X17296Y608979D01*
X19158Y607116D02*
X19158Y610842D01*
X23458Y611152D02*
X25011Y612394D01*
X25011Y606806D01*
X26563Y606806D02*
X23458Y606806D01*
X30652Y612394D02*
X30725Y612392D01*
X30798Y612386D01*
X30871Y612377D01*
X30942Y612363D01*
X31014Y612346D01*
X31084Y612326D01*
X31153Y612301D01*
X31220Y612273D01*
X31286Y612242D01*
X31351Y612207D01*
X31413Y612169D01*
X31473Y612127D01*
X31531Y612083D01*
X31587Y612035D01*
X31640Y611985D01*
X31690Y611932D01*
X31738Y611876D01*
X31782Y611818D01*
X31824Y611758D01*
X31862Y611696D01*
X31897Y611631D01*
X31928Y611565D01*
X31956Y611498D01*
X31981Y611429D01*
X32001Y611359D01*
X32018Y611287D01*
X32032Y611216D01*
X32041Y611143D01*
X32047Y611070D01*
X32049Y610997D01*
X30652Y612394D02*
X30568Y612392D01*
X30485Y612386D01*
X30402Y612377D01*
X30320Y612363D01*
X30238Y612346D01*
X30157Y612324D01*
X30077Y612299D01*
X29999Y612271D01*
X29921Y612239D01*
X29846Y612203D01*
X29772Y612164D01*
X29700Y612121D01*
X29630Y612075D01*
X29563Y612026D01*
X29497Y611973D01*
X29435Y611918D01*
X29375Y611860D01*
X29317Y611799D01*
X29263Y611736D01*
X29211Y611670D01*
X29163Y611602D01*
X29118Y611531D01*
X29076Y611459D01*
X29038Y611384D01*
X29003Y611308D01*
X28972Y611231D01*
X28944Y611152D01*
X31583Y609911D02*
X31637Y609964D01*
X31688Y610021D01*
X31736Y610080D01*
X31781Y610141D01*
X31822Y610204D01*
X31861Y610270D01*
X31896Y610337D01*
X31928Y610406D01*
X31956Y610477D01*
X31980Y610548D01*
X32001Y610621D01*
X32018Y610695D01*
X32032Y610770D01*
X32041Y610845D01*
X32047Y610921D01*
X32049Y610997D01*
X31584Y609910D02*
X28945Y606806D01*
X32049Y606806D01*
X35983Y606806D02*
X34121Y612394D01*
X37846Y612394D02*
X35983Y606806D01*
X20932Y632206D02*
X20932Y637794D01*
X19380Y637794D02*
X22484Y637794D01*
X26053Y637794D02*
X24190Y632206D01*
X27915Y632206D02*
X26053Y637794D01*
X27450Y633603D02*
X24656Y633603D01*
X31212Y632206D02*
X32454Y632206D01*
X31212Y632206D02*
X31142Y632208D01*
X31073Y632214D01*
X31004Y632224D01*
X30936Y632237D01*
X30868Y632255D01*
X30802Y632276D01*
X30737Y632301D01*
X30673Y632329D01*
X30611Y632361D01*
X30551Y632396D01*
X30493Y632435D01*
X30438Y632477D01*
X30384Y632522D01*
X30334Y632570D01*
X30286Y632620D01*
X30241Y632674D01*
X30199Y632729D01*
X30160Y632787D01*
X30125Y632847D01*
X30093Y632909D01*
X30065Y632973D01*
X30040Y633038D01*
X30019Y633104D01*
X30001Y633172D01*
X29988Y633240D01*
X29978Y633309D01*
X29972Y633378D01*
X29970Y633448D01*
X29970Y636552D01*
X29972Y636622D01*
X29978Y636691D01*
X29988Y636760D01*
X30001Y636828D01*
X30019Y636896D01*
X30040Y636962D01*
X30065Y637027D01*
X30093Y637091D01*
X30125Y637153D01*
X30160Y637213D01*
X30199Y637271D01*
X30241Y637326D01*
X30286Y637380D01*
X30334Y637430D01*
X30384Y637478D01*
X30438Y637523D01*
X30493Y637565D01*
X30551Y637604D01*
X30611Y637639D01*
X30673Y637671D01*
X30737Y637699D01*
X30802Y637724D01*
X30868Y637745D01*
X30936Y637763D01*
X31004Y637776D01*
X31073Y637786D01*
X31142Y637792D01*
X31212Y637794D01*
X32454Y637794D01*
X34742Y637794D02*
X34742Y632206D01*
X34742Y635310D02*
X37846Y635310D01*
X37846Y637794D02*
X37846Y632206D01*
X21713Y657606D02*
X21713Y663194D01*
X23265Y663194D01*
X23342Y663192D01*
X23420Y663186D01*
X23496Y663177D01*
X23573Y663163D01*
X23648Y663146D01*
X23722Y663125D01*
X23796Y663100D01*
X23868Y663072D01*
X23938Y663040D01*
X24007Y663005D01*
X24074Y662966D01*
X24139Y662924D01*
X24202Y662879D01*
X24263Y662831D01*
X24321Y662780D01*
X24376Y662726D01*
X24429Y662669D01*
X24478Y662610D01*
X24525Y662548D01*
X24569Y662484D01*
X24609Y662418D01*
X24646Y662350D01*
X24680Y662280D01*
X24710Y662209D01*
X24736Y662136D01*
X24759Y662062D01*
X24778Y661987D01*
X24793Y661912D01*
X24805Y661835D01*
X24813Y661758D01*
X24817Y661681D01*
X24817Y661603D01*
X24813Y661526D01*
X24805Y661449D01*
X24793Y661372D01*
X24778Y661297D01*
X24759Y661222D01*
X24736Y661148D01*
X24710Y661075D01*
X24680Y661004D01*
X24646Y660934D01*
X24609Y660866D01*
X24569Y660800D01*
X24525Y660736D01*
X24478Y660674D01*
X24429Y660615D01*
X24376Y660558D01*
X24321Y660504D01*
X24263Y660453D01*
X24202Y660405D01*
X24139Y660360D01*
X24074Y660318D01*
X24007Y660279D01*
X23938Y660244D01*
X23868Y660212D01*
X23796Y660184D01*
X23722Y660159D01*
X23648Y660138D01*
X23573Y660121D01*
X23496Y660107D01*
X23420Y660098D01*
X23342Y660092D01*
X23265Y660090D01*
X21713Y660090D01*
X26733Y663194D02*
X27975Y657606D01*
X29217Y661331D01*
X30459Y657606D01*
X31700Y663194D01*
X34121Y663194D02*
X34121Y657606D01*
X35983Y660090D02*
X34121Y663194D01*
X35983Y660090D02*
X37846Y663194D01*
X37846Y657606D01*
X50550Y561594D02*
X50550Y556006D01*
X52412Y558490D02*
X50550Y561594D01*
X52412Y558490D02*
X54275Y561594D01*
X54275Y556006D01*
X56895Y557558D02*
X56895Y560042D01*
X56897Y560119D01*
X56903Y560197D01*
X56912Y560273D01*
X56926Y560350D01*
X56943Y560425D01*
X56964Y560499D01*
X56989Y560573D01*
X57017Y560645D01*
X57049Y560715D01*
X57084Y560784D01*
X57123Y560851D01*
X57165Y560916D01*
X57210Y560979D01*
X57258Y561040D01*
X57309Y561098D01*
X57363Y561153D01*
X57420Y561206D01*
X57479Y561255D01*
X57541Y561302D01*
X57605Y561346D01*
X57671Y561386D01*
X57739Y561423D01*
X57809Y561457D01*
X57880Y561487D01*
X57953Y561513D01*
X58027Y561536D01*
X58102Y561555D01*
X58177Y561570D01*
X58254Y561582D01*
X58331Y561590D01*
X58408Y561594D01*
X58486Y561594D01*
X58563Y561590D01*
X58640Y561582D01*
X58717Y561570D01*
X58792Y561555D01*
X58867Y561536D01*
X58941Y561513D01*
X59014Y561487D01*
X59085Y561457D01*
X59155Y561423D01*
X59223Y561386D01*
X59289Y561346D01*
X59353Y561302D01*
X59415Y561255D01*
X59474Y561206D01*
X59531Y561153D01*
X59585Y561098D01*
X59636Y561040D01*
X59684Y560979D01*
X59729Y560916D01*
X59771Y560851D01*
X59810Y560784D01*
X59845Y560715D01*
X59877Y560645D01*
X59905Y560573D01*
X59930Y560499D01*
X59951Y560425D01*
X59968Y560350D01*
X59982Y560273D01*
X59991Y560197D01*
X59997Y560119D01*
X59999Y560042D01*
X59999Y557558D01*
X59997Y557481D01*
X59991Y557403D01*
X59982Y557327D01*
X59968Y557250D01*
X59951Y557175D01*
X59930Y557101D01*
X59905Y557027D01*
X59877Y556955D01*
X59845Y556885D01*
X59810Y556816D01*
X59771Y556749D01*
X59729Y556684D01*
X59684Y556621D01*
X59636Y556560D01*
X59585Y556502D01*
X59531Y556447D01*
X59474Y556394D01*
X59415Y556345D01*
X59353Y556298D01*
X59289Y556254D01*
X59223Y556214D01*
X59155Y556177D01*
X59085Y556143D01*
X59014Y556113D01*
X58941Y556087D01*
X58867Y556064D01*
X58792Y556045D01*
X58717Y556030D01*
X58640Y556018D01*
X58563Y556010D01*
X58486Y556006D01*
X58408Y556006D01*
X58331Y556010D01*
X58254Y556018D01*
X58177Y556030D01*
X58102Y556045D01*
X58027Y556064D01*
X57953Y556087D01*
X57880Y556113D01*
X57809Y556143D01*
X57739Y556177D01*
X57671Y556214D01*
X57605Y556254D01*
X57541Y556298D01*
X57479Y556345D01*
X57420Y556394D01*
X57363Y556447D01*
X57309Y556502D01*
X57258Y556560D01*
X57210Y556621D01*
X57165Y556684D01*
X57123Y556749D01*
X57084Y556816D01*
X57049Y556885D01*
X57017Y556955D01*
X56989Y557027D01*
X56964Y557101D01*
X56943Y557175D01*
X56926Y557250D01*
X56912Y557327D01*
X56903Y557403D01*
X56897Y557481D01*
X56895Y557558D01*
X63568Y556006D02*
X63568Y561594D01*
X62016Y561594D02*
X65120Y561594D01*
X67136Y560042D02*
X67136Y557558D01*
X67136Y560042D02*
X67138Y560119D01*
X67144Y560197D01*
X67153Y560273D01*
X67167Y560350D01*
X67184Y560425D01*
X67205Y560499D01*
X67230Y560573D01*
X67258Y560645D01*
X67290Y560715D01*
X67325Y560784D01*
X67364Y560851D01*
X67406Y560916D01*
X67451Y560979D01*
X67499Y561040D01*
X67550Y561098D01*
X67604Y561153D01*
X67661Y561206D01*
X67720Y561255D01*
X67782Y561302D01*
X67846Y561346D01*
X67912Y561386D01*
X67980Y561423D01*
X68050Y561457D01*
X68121Y561487D01*
X68194Y561513D01*
X68268Y561536D01*
X68343Y561555D01*
X68418Y561570D01*
X68495Y561582D01*
X68572Y561590D01*
X68649Y561594D01*
X68727Y561594D01*
X68804Y561590D01*
X68881Y561582D01*
X68958Y561570D01*
X69033Y561555D01*
X69108Y561536D01*
X69182Y561513D01*
X69255Y561487D01*
X69326Y561457D01*
X69396Y561423D01*
X69464Y561386D01*
X69530Y561346D01*
X69594Y561302D01*
X69656Y561255D01*
X69715Y561206D01*
X69772Y561153D01*
X69826Y561098D01*
X69877Y561040D01*
X69925Y560979D01*
X69970Y560916D01*
X70012Y560851D01*
X70051Y560784D01*
X70086Y560715D01*
X70118Y560645D01*
X70146Y560573D01*
X70171Y560499D01*
X70192Y560425D01*
X70209Y560350D01*
X70223Y560273D01*
X70232Y560197D01*
X70238Y560119D01*
X70240Y560042D01*
X70241Y560042D02*
X70241Y557558D01*
X70240Y557558D02*
X70238Y557481D01*
X70232Y557403D01*
X70223Y557327D01*
X70209Y557250D01*
X70192Y557175D01*
X70171Y557101D01*
X70146Y557027D01*
X70118Y556955D01*
X70086Y556885D01*
X70051Y556816D01*
X70012Y556749D01*
X69970Y556684D01*
X69925Y556621D01*
X69877Y556560D01*
X69826Y556502D01*
X69772Y556447D01*
X69715Y556394D01*
X69656Y556345D01*
X69594Y556298D01*
X69530Y556254D01*
X69464Y556214D01*
X69396Y556177D01*
X69326Y556143D01*
X69255Y556113D01*
X69182Y556087D01*
X69108Y556064D01*
X69033Y556045D01*
X68958Y556030D01*
X68881Y556018D01*
X68804Y556010D01*
X68727Y556006D01*
X68649Y556006D01*
X68572Y556010D01*
X68495Y556018D01*
X68418Y556030D01*
X68343Y556045D01*
X68268Y556064D01*
X68194Y556087D01*
X68121Y556113D01*
X68050Y556143D01*
X67980Y556177D01*
X67912Y556214D01*
X67846Y556254D01*
X67782Y556298D01*
X67720Y556345D01*
X67661Y556394D01*
X67604Y556447D01*
X67550Y556502D01*
X67499Y556560D01*
X67451Y556621D01*
X67406Y556684D01*
X67364Y556749D01*
X67325Y556816D01*
X67290Y556885D01*
X67258Y556955D01*
X67230Y557027D01*
X67205Y557101D01*
X67184Y557175D01*
X67167Y557250D01*
X67153Y557327D01*
X67144Y557403D01*
X67138Y557481D01*
X67136Y557558D01*
X72842Y556006D02*
X72842Y561594D01*
X74394Y561594D01*
X74471Y561592D01*
X74549Y561586D01*
X74625Y561577D01*
X74702Y561563D01*
X74777Y561546D01*
X74851Y561525D01*
X74925Y561500D01*
X74997Y561472D01*
X75067Y561440D01*
X75136Y561405D01*
X75203Y561366D01*
X75268Y561324D01*
X75331Y561279D01*
X75392Y561231D01*
X75450Y561180D01*
X75505Y561126D01*
X75558Y561069D01*
X75607Y561010D01*
X75654Y560948D01*
X75698Y560884D01*
X75738Y560818D01*
X75775Y560750D01*
X75809Y560680D01*
X75839Y560609D01*
X75865Y560536D01*
X75888Y560462D01*
X75907Y560387D01*
X75922Y560312D01*
X75934Y560235D01*
X75942Y560158D01*
X75946Y560081D01*
X75946Y560003D01*
X75942Y559926D01*
X75934Y559849D01*
X75922Y559772D01*
X75907Y559697D01*
X75888Y559622D01*
X75865Y559548D01*
X75839Y559475D01*
X75809Y559404D01*
X75775Y559334D01*
X75738Y559266D01*
X75698Y559200D01*
X75654Y559136D01*
X75607Y559074D01*
X75558Y559015D01*
X75505Y558958D01*
X75450Y558904D01*
X75392Y558853D01*
X75331Y558805D01*
X75268Y558760D01*
X75203Y558718D01*
X75136Y558679D01*
X75067Y558644D01*
X74997Y558612D01*
X74925Y558584D01*
X74851Y558559D01*
X74777Y558538D01*
X74702Y558521D01*
X74625Y558507D01*
X74549Y558498D01*
X74471Y558492D01*
X74394Y558490D01*
X72842Y558490D01*
X74704Y558490D02*
X75946Y556006D01*
X533210Y368610D02*
X534142Y368610D01*
X534142Y365506D01*
X532279Y365506D01*
X532209Y365508D01*
X532140Y365514D01*
X532071Y365524D01*
X532003Y365537D01*
X531935Y365555D01*
X531869Y365576D01*
X531804Y365601D01*
X531740Y365629D01*
X531678Y365661D01*
X531618Y365696D01*
X531560Y365735D01*
X531505Y365777D01*
X531451Y365822D01*
X531401Y365870D01*
X531353Y365920D01*
X531308Y365974D01*
X531266Y366029D01*
X531227Y366087D01*
X531192Y366147D01*
X531160Y366209D01*
X531132Y366273D01*
X531107Y366338D01*
X531086Y366404D01*
X531068Y366472D01*
X531055Y366540D01*
X531045Y366609D01*
X531039Y366678D01*
X531037Y366748D01*
X531037Y369852D01*
X531039Y369922D01*
X531045Y369991D01*
X531055Y370060D01*
X531068Y370128D01*
X531086Y370196D01*
X531107Y370262D01*
X531132Y370327D01*
X531160Y370391D01*
X531192Y370453D01*
X531227Y370513D01*
X531266Y370571D01*
X531308Y370626D01*
X531353Y370680D01*
X531401Y370730D01*
X531451Y370778D01*
X531505Y370823D01*
X531560Y370865D01*
X531618Y370904D01*
X531678Y370939D01*
X531740Y370971D01*
X531804Y370999D01*
X531869Y371024D01*
X531935Y371045D01*
X532003Y371063D01*
X532071Y371076D01*
X532140Y371086D01*
X532209Y371092D01*
X532279Y371094D01*
X534142Y371094D01*
X536889Y371094D02*
X536889Y365506D01*
X539994Y365506D02*
X536889Y371094D01*
X539994Y371094D02*
X539994Y365506D01*
X542742Y365506D02*
X542742Y371094D01*
X544294Y371094D01*
X544370Y371092D01*
X544446Y371087D01*
X544522Y371077D01*
X544597Y371064D01*
X544671Y371047D01*
X544745Y371027D01*
X544817Y371003D01*
X544888Y370976D01*
X544958Y370945D01*
X545026Y370911D01*
X545092Y370873D01*
X545156Y370832D01*
X545219Y370789D01*
X545279Y370742D01*
X545336Y370692D01*
X545391Y370639D01*
X545444Y370584D01*
X545494Y370527D01*
X545541Y370467D01*
X545584Y370404D01*
X545625Y370340D01*
X545663Y370274D01*
X545697Y370206D01*
X545728Y370136D01*
X545755Y370065D01*
X545779Y369992D01*
X545799Y369919D01*
X545816Y369845D01*
X545829Y369770D01*
X545839Y369694D01*
X545844Y369618D01*
X545846Y369542D01*
X545846Y367058D01*
X545844Y366979D01*
X545838Y366901D01*
X545828Y366823D01*
X545814Y366746D01*
X545796Y366669D01*
X545775Y366593D01*
X545749Y366519D01*
X545720Y366446D01*
X545687Y366375D01*
X545651Y366305D01*
X545611Y366237D01*
X545568Y366171D01*
X545521Y366108D01*
X545472Y366047D01*
X545419Y365989D01*
X545363Y365933D01*
X545305Y365880D01*
X545244Y365831D01*
X545181Y365784D01*
X545115Y365741D01*
X545047Y365701D01*
X544978Y365665D01*
X544906Y365632D01*
X544833Y365603D01*
X544759Y365577D01*
X544683Y365556D01*
X544606Y365538D01*
X544529Y365524D01*
X544451Y365514D01*
X544373Y365508D01*
X544294Y365506D01*
X542742Y365506D01*
X538863Y390906D02*
X538863Y396494D01*
X537311Y396494D02*
X540415Y396494D01*
X545846Y396494D02*
X542121Y390906D01*
X545846Y390906D02*
X542121Y396494D01*
X534508Y418479D02*
X530782Y418479D01*
X532645Y416616D02*
X532645Y420342D01*
X536945Y416306D02*
X538807Y416306D01*
X538877Y416308D01*
X538946Y416314D01*
X539015Y416324D01*
X539083Y416337D01*
X539151Y416355D01*
X539217Y416376D01*
X539282Y416401D01*
X539346Y416429D01*
X539408Y416461D01*
X539468Y416496D01*
X539526Y416535D01*
X539581Y416577D01*
X539635Y416622D01*
X539685Y416670D01*
X539733Y416720D01*
X539778Y416774D01*
X539820Y416829D01*
X539859Y416887D01*
X539894Y416947D01*
X539926Y417009D01*
X539954Y417073D01*
X539979Y417138D01*
X540000Y417204D01*
X540018Y417272D01*
X540031Y417340D01*
X540041Y417409D01*
X540047Y417478D01*
X540049Y417548D01*
X540049Y418169D01*
X540047Y418239D01*
X540041Y418308D01*
X540031Y418377D01*
X540018Y418445D01*
X540000Y418513D01*
X539979Y418579D01*
X539954Y418644D01*
X539926Y418708D01*
X539894Y418770D01*
X539859Y418830D01*
X539820Y418888D01*
X539778Y418943D01*
X539733Y418997D01*
X539685Y419047D01*
X539635Y419095D01*
X539581Y419140D01*
X539526Y419182D01*
X539468Y419221D01*
X539408Y419256D01*
X539346Y419288D01*
X539282Y419316D01*
X539217Y419341D01*
X539151Y419362D01*
X539083Y419380D01*
X539015Y419393D01*
X538946Y419403D01*
X538877Y419409D01*
X538807Y419411D01*
X538807Y419410D02*
X536945Y419410D01*
X536945Y421894D01*
X540049Y421894D01*
X542121Y421894D02*
X543983Y416306D01*
X545846Y421894D01*
X536981Y441706D02*
X536981Y447294D01*
X538533Y447294D01*
X538610Y447292D01*
X538688Y447286D01*
X538764Y447277D01*
X538841Y447263D01*
X538916Y447246D01*
X538990Y447225D01*
X539064Y447200D01*
X539136Y447172D01*
X539206Y447140D01*
X539275Y447105D01*
X539342Y447066D01*
X539407Y447024D01*
X539470Y446979D01*
X539531Y446931D01*
X539589Y446880D01*
X539644Y446826D01*
X539697Y446769D01*
X539746Y446710D01*
X539793Y446648D01*
X539837Y446584D01*
X539877Y446518D01*
X539914Y446450D01*
X539948Y446380D01*
X539978Y446309D01*
X540004Y446236D01*
X540027Y446162D01*
X540046Y446087D01*
X540061Y446012D01*
X540073Y445935D01*
X540081Y445858D01*
X540085Y445781D01*
X540085Y445703D01*
X540081Y445626D01*
X540073Y445549D01*
X540061Y445472D01*
X540046Y445397D01*
X540027Y445322D01*
X540004Y445248D01*
X539978Y445175D01*
X539948Y445104D01*
X539914Y445034D01*
X539877Y444966D01*
X539837Y444900D01*
X539793Y444836D01*
X539746Y444774D01*
X539697Y444715D01*
X539644Y444658D01*
X539589Y444604D01*
X539531Y444553D01*
X539470Y444505D01*
X539407Y444460D01*
X539342Y444418D01*
X539275Y444379D01*
X539206Y444344D01*
X539136Y444312D01*
X539064Y444284D01*
X538990Y444259D01*
X538916Y444238D01*
X538841Y444221D01*
X538764Y444207D01*
X538688Y444198D01*
X538610Y444192D01*
X538533Y444190D01*
X536981Y444190D01*
X538844Y444190D02*
X540085Y441706D01*
X542121Y441706D02*
X545846Y447294D01*
X542121Y447294D02*
X545846Y441706D01*
X530727Y467106D02*
X530727Y472694D01*
X532590Y469590D01*
X534452Y472694D01*
X534452Y467106D01*
X537072Y468658D02*
X537072Y471142D01*
X537073Y471142D02*
X537075Y471219D01*
X537081Y471297D01*
X537090Y471373D01*
X537104Y471450D01*
X537121Y471525D01*
X537142Y471599D01*
X537167Y471673D01*
X537195Y471745D01*
X537227Y471815D01*
X537262Y471884D01*
X537301Y471951D01*
X537343Y472016D01*
X537388Y472079D01*
X537436Y472140D01*
X537487Y472198D01*
X537541Y472253D01*
X537598Y472306D01*
X537657Y472355D01*
X537719Y472402D01*
X537783Y472446D01*
X537849Y472486D01*
X537917Y472523D01*
X537987Y472557D01*
X538058Y472587D01*
X538131Y472613D01*
X538205Y472636D01*
X538280Y472655D01*
X538355Y472670D01*
X538432Y472682D01*
X538509Y472690D01*
X538586Y472694D01*
X538664Y472694D01*
X538741Y472690D01*
X538818Y472682D01*
X538895Y472670D01*
X538970Y472655D01*
X539045Y472636D01*
X539119Y472613D01*
X539192Y472587D01*
X539263Y472557D01*
X539333Y472523D01*
X539401Y472486D01*
X539467Y472446D01*
X539531Y472402D01*
X539593Y472355D01*
X539652Y472306D01*
X539709Y472253D01*
X539763Y472198D01*
X539814Y472140D01*
X539862Y472079D01*
X539907Y472016D01*
X539949Y471951D01*
X539988Y471884D01*
X540023Y471815D01*
X540055Y471745D01*
X540083Y471673D01*
X540108Y471599D01*
X540129Y471525D01*
X540146Y471450D01*
X540160Y471373D01*
X540169Y471297D01*
X540175Y471219D01*
X540177Y471142D01*
X540177Y468658D01*
X540175Y468581D01*
X540169Y468503D01*
X540160Y468427D01*
X540146Y468350D01*
X540129Y468275D01*
X540108Y468201D01*
X540083Y468127D01*
X540055Y468055D01*
X540023Y467985D01*
X539988Y467916D01*
X539949Y467849D01*
X539907Y467784D01*
X539862Y467721D01*
X539814Y467660D01*
X539763Y467602D01*
X539709Y467547D01*
X539652Y467494D01*
X539593Y467445D01*
X539531Y467398D01*
X539467Y467354D01*
X539401Y467314D01*
X539333Y467277D01*
X539263Y467243D01*
X539192Y467213D01*
X539119Y467187D01*
X539045Y467164D01*
X538970Y467145D01*
X538895Y467130D01*
X538818Y467118D01*
X538741Y467110D01*
X538664Y467106D01*
X538586Y467106D01*
X538509Y467110D01*
X538432Y467118D01*
X538355Y467130D01*
X538280Y467145D01*
X538205Y467164D01*
X538131Y467187D01*
X538058Y467213D01*
X537987Y467243D01*
X537917Y467277D01*
X537849Y467314D01*
X537783Y467354D01*
X537719Y467398D01*
X537657Y467445D01*
X537598Y467494D01*
X537541Y467547D01*
X537487Y467602D01*
X537436Y467660D01*
X537388Y467721D01*
X537343Y467784D01*
X537301Y467849D01*
X537262Y467916D01*
X537227Y467985D01*
X537195Y468055D01*
X537167Y468127D01*
X537142Y468201D01*
X537121Y468275D01*
X537104Y468350D01*
X537090Y468427D01*
X537081Y468503D01*
X537075Y468581D01*
X537073Y468658D01*
X542742Y467106D02*
X542742Y472694D01*
X544294Y472694D01*
X544370Y472692D01*
X544446Y472687D01*
X544522Y472677D01*
X544597Y472664D01*
X544671Y472647D01*
X544745Y472627D01*
X544817Y472603D01*
X544888Y472576D01*
X544958Y472545D01*
X545026Y472511D01*
X545092Y472473D01*
X545156Y472432D01*
X545219Y472389D01*
X545279Y472342D01*
X545336Y472292D01*
X545391Y472239D01*
X545444Y472184D01*
X545494Y472127D01*
X545541Y472067D01*
X545584Y472004D01*
X545625Y471940D01*
X545663Y471874D01*
X545697Y471806D01*
X545728Y471736D01*
X545755Y471665D01*
X545779Y471592D01*
X545799Y471519D01*
X545816Y471445D01*
X545829Y471370D01*
X545839Y471294D01*
X545844Y471218D01*
X545846Y471142D01*
X545846Y468658D01*
X545844Y468579D01*
X545838Y468501D01*
X545828Y468423D01*
X545814Y468346D01*
X545796Y468269D01*
X545775Y468193D01*
X545749Y468119D01*
X545720Y468046D01*
X545687Y467975D01*
X545651Y467905D01*
X545611Y467837D01*
X545568Y467771D01*
X545521Y467708D01*
X545472Y467647D01*
X545419Y467589D01*
X545363Y467533D01*
X545305Y467480D01*
X545244Y467431D01*
X545181Y467384D01*
X545115Y467341D01*
X545047Y467301D01*
X544978Y467265D01*
X544906Y467232D01*
X544833Y467203D01*
X544759Y467177D01*
X544683Y467156D01*
X544606Y467138D01*
X544529Y467124D01*
X544451Y467114D01*
X544373Y467108D01*
X544294Y467106D01*
X542742Y467106D01*
X525767Y345694D02*
X523904Y340106D01*
X527629Y340106D02*
X525767Y345694D01*
X527164Y341503D02*
X524370Y341503D01*
X530156Y340106D02*
X530156Y345694D01*
X529535Y340106D02*
X530777Y340106D01*
X530777Y345694D02*
X529535Y345694D01*
X533212Y345694D02*
X533212Y340106D01*
X533212Y345694D02*
X534764Y345694D01*
X534841Y345692D01*
X534919Y345686D01*
X534995Y345677D01*
X535072Y345663D01*
X535147Y345646D01*
X535221Y345625D01*
X535295Y345600D01*
X535367Y345572D01*
X535437Y345540D01*
X535506Y345505D01*
X535573Y345466D01*
X535638Y345424D01*
X535701Y345379D01*
X535762Y345331D01*
X535820Y345280D01*
X535875Y345226D01*
X535928Y345169D01*
X535977Y345110D01*
X536024Y345048D01*
X536068Y344984D01*
X536108Y344918D01*
X536145Y344850D01*
X536179Y344780D01*
X536209Y344709D01*
X536235Y344636D01*
X536258Y344562D01*
X536277Y344487D01*
X536292Y344412D01*
X536304Y344335D01*
X536312Y344258D01*
X536316Y344181D01*
X536316Y344103D01*
X536312Y344026D01*
X536304Y343949D01*
X536292Y343872D01*
X536277Y343797D01*
X536258Y343722D01*
X536235Y343648D01*
X536209Y343575D01*
X536179Y343504D01*
X536145Y343434D01*
X536108Y343366D01*
X536068Y343300D01*
X536024Y343236D01*
X535977Y343174D01*
X535928Y343115D01*
X535875Y343058D01*
X535820Y343004D01*
X535762Y342953D01*
X535701Y342905D01*
X535638Y342860D01*
X535573Y342818D01*
X535506Y342779D01*
X535437Y342744D01*
X535367Y342712D01*
X535295Y342684D01*
X535221Y342659D01*
X535147Y342638D01*
X535072Y342621D01*
X534995Y342607D01*
X534919Y342598D01*
X534841Y342592D01*
X534764Y342590D01*
X533212Y342590D01*
X535074Y342590D02*
X536316Y340106D01*
X543268Y340106D02*
X543338Y340108D01*
X543407Y340114D01*
X543476Y340124D01*
X543544Y340137D01*
X543612Y340155D01*
X543678Y340176D01*
X543743Y340201D01*
X543807Y340229D01*
X543869Y340261D01*
X543929Y340296D01*
X543987Y340335D01*
X544042Y340377D01*
X544096Y340422D01*
X544146Y340470D01*
X544194Y340520D01*
X544239Y340574D01*
X544281Y340629D01*
X544320Y340687D01*
X544355Y340747D01*
X544387Y340809D01*
X544415Y340873D01*
X544440Y340938D01*
X544461Y341004D01*
X544479Y341072D01*
X544492Y341140D01*
X544502Y341209D01*
X544508Y341278D01*
X544510Y341348D01*
X543268Y340106D02*
X543169Y340108D01*
X543071Y340113D01*
X542973Y340123D01*
X542875Y340136D01*
X542778Y340152D01*
X542681Y340172D01*
X542586Y340196D01*
X542491Y340224D01*
X542397Y340255D01*
X542305Y340289D01*
X542214Y340327D01*
X542124Y340368D01*
X542036Y340413D01*
X541950Y340461D01*
X541866Y340512D01*
X541784Y340566D01*
X541703Y340624D01*
X541625Y340684D01*
X541550Y340747D01*
X541476Y340813D01*
X541406Y340882D01*
X541560Y344452D02*
X541562Y344522D01*
X541568Y344591D01*
X541578Y344660D01*
X541591Y344728D01*
X541609Y344796D01*
X541630Y344862D01*
X541655Y344927D01*
X541683Y344991D01*
X541715Y345053D01*
X541750Y345113D01*
X541789Y345171D01*
X541831Y345226D01*
X541876Y345280D01*
X541924Y345330D01*
X541974Y345378D01*
X542028Y345423D01*
X542083Y345465D01*
X542141Y345504D01*
X542201Y345539D01*
X542263Y345571D01*
X542327Y345599D01*
X542392Y345624D01*
X542458Y345645D01*
X542526Y345663D01*
X542594Y345676D01*
X542663Y345686D01*
X542732Y345692D01*
X542802Y345694D01*
X542896Y345692D01*
X542989Y345686D01*
X543082Y345677D01*
X543175Y345664D01*
X543267Y345647D01*
X543358Y345627D01*
X543449Y345602D01*
X543538Y345575D01*
X543626Y345543D01*
X543713Y345508D01*
X543799Y345470D01*
X543882Y345428D01*
X543964Y345383D01*
X544045Y345335D01*
X544123Y345283D01*
X544199Y345228D01*
X542182Y343366D02*
X542123Y343402D01*
X542067Y343442D01*
X542013Y343485D01*
X541961Y343530D01*
X541912Y343579D01*
X541866Y343630D01*
X541823Y343683D01*
X541782Y343739D01*
X541745Y343797D01*
X541710Y343857D01*
X541680Y343918D01*
X541652Y343981D01*
X541628Y344046D01*
X541608Y344112D01*
X541591Y344179D01*
X541578Y344246D01*
X541569Y344314D01*
X541563Y344383D01*
X541561Y344452D01*
X543888Y342434D02*
X543947Y342398D01*
X544003Y342358D01*
X544057Y342315D01*
X544109Y342270D01*
X544158Y342221D01*
X544204Y342170D01*
X544247Y342117D01*
X544288Y342061D01*
X544325Y342003D01*
X544360Y341943D01*
X544390Y341882D01*
X544418Y341819D01*
X544442Y341754D01*
X544462Y341688D01*
X544479Y341621D01*
X544492Y341554D01*
X544501Y341486D01*
X544507Y341417D01*
X544509Y341348D01*
X543889Y342434D02*
X542181Y343366D01*
X546903Y340106D02*
X549386Y340106D01*
X546903Y340106D02*
X546903Y345694D01*
X549386Y345694D01*
X548765Y343210D02*
X546903Y343210D01*
X551646Y345694D02*
X551646Y340106D01*
X554751Y340106D02*
X551646Y345694D01*
X554751Y345694D02*
X554751Y340106D01*
X558995Y340106D02*
X559065Y340108D01*
X559134Y340114D01*
X559203Y340124D01*
X559271Y340137D01*
X559339Y340155D01*
X559405Y340176D01*
X559470Y340201D01*
X559534Y340229D01*
X559596Y340261D01*
X559656Y340296D01*
X559714Y340335D01*
X559769Y340377D01*
X559823Y340422D01*
X559873Y340470D01*
X559921Y340520D01*
X559966Y340574D01*
X560008Y340629D01*
X560047Y340687D01*
X560082Y340747D01*
X560114Y340809D01*
X560142Y340873D01*
X560167Y340938D01*
X560188Y341004D01*
X560206Y341072D01*
X560219Y341140D01*
X560229Y341209D01*
X560235Y341278D01*
X560237Y341348D01*
X558995Y340106D02*
X558896Y340108D01*
X558798Y340113D01*
X558700Y340123D01*
X558602Y340136D01*
X558505Y340152D01*
X558408Y340172D01*
X558313Y340196D01*
X558218Y340224D01*
X558124Y340255D01*
X558032Y340289D01*
X557941Y340327D01*
X557851Y340368D01*
X557763Y340413D01*
X557677Y340461D01*
X557593Y340512D01*
X557511Y340566D01*
X557430Y340624D01*
X557352Y340684D01*
X557277Y340747D01*
X557203Y340813D01*
X557133Y340882D01*
X557288Y344452D02*
X557290Y344522D01*
X557296Y344591D01*
X557306Y344660D01*
X557319Y344728D01*
X557337Y344796D01*
X557358Y344862D01*
X557383Y344927D01*
X557411Y344991D01*
X557443Y345053D01*
X557478Y345113D01*
X557517Y345171D01*
X557559Y345226D01*
X557604Y345280D01*
X557652Y345330D01*
X557702Y345378D01*
X557756Y345423D01*
X557811Y345465D01*
X557869Y345504D01*
X557929Y345539D01*
X557991Y345571D01*
X558055Y345599D01*
X558120Y345624D01*
X558186Y345645D01*
X558254Y345663D01*
X558322Y345676D01*
X558391Y345686D01*
X558460Y345692D01*
X558530Y345694D01*
X558624Y345692D01*
X558717Y345686D01*
X558810Y345677D01*
X558903Y345664D01*
X558995Y345647D01*
X559086Y345627D01*
X559177Y345602D01*
X559266Y345575D01*
X559354Y345543D01*
X559441Y345508D01*
X559527Y345470D01*
X559610Y345428D01*
X559692Y345383D01*
X559773Y345335D01*
X559851Y345283D01*
X559927Y345228D01*
X557909Y343366D02*
X557850Y343402D01*
X557794Y343442D01*
X557740Y343485D01*
X557688Y343530D01*
X557639Y343579D01*
X557593Y343630D01*
X557550Y343683D01*
X557509Y343739D01*
X557472Y343797D01*
X557437Y343857D01*
X557407Y343918D01*
X557379Y343981D01*
X557355Y344046D01*
X557335Y344112D01*
X557318Y344179D01*
X557305Y344246D01*
X557296Y344314D01*
X557290Y344383D01*
X557288Y344452D01*
X559616Y342434D02*
X559675Y342398D01*
X559731Y342358D01*
X559785Y342315D01*
X559837Y342270D01*
X559886Y342221D01*
X559932Y342170D01*
X559975Y342117D01*
X560016Y342061D01*
X560053Y342003D01*
X560088Y341943D01*
X560118Y341882D01*
X560146Y341819D01*
X560170Y341754D01*
X560190Y341688D01*
X560207Y341621D01*
X560220Y341554D01*
X560229Y341486D01*
X560235Y341417D01*
X560237Y341348D01*
X559616Y342434D02*
X557909Y343366D01*
X562436Y344142D02*
X562436Y341658D01*
X562436Y344142D02*
X562438Y344219D01*
X562444Y344297D01*
X562453Y344373D01*
X562467Y344450D01*
X562484Y344525D01*
X562505Y344599D01*
X562530Y344673D01*
X562558Y344745D01*
X562590Y344815D01*
X562625Y344884D01*
X562664Y344951D01*
X562706Y345016D01*
X562751Y345079D01*
X562799Y345140D01*
X562850Y345198D01*
X562904Y345253D01*
X562961Y345306D01*
X563020Y345355D01*
X563082Y345402D01*
X563146Y345446D01*
X563212Y345486D01*
X563280Y345523D01*
X563350Y345557D01*
X563421Y345587D01*
X563494Y345613D01*
X563568Y345636D01*
X563643Y345655D01*
X563718Y345670D01*
X563795Y345682D01*
X563872Y345690D01*
X563949Y345694D01*
X564027Y345694D01*
X564104Y345690D01*
X564181Y345682D01*
X564258Y345670D01*
X564333Y345655D01*
X564408Y345636D01*
X564482Y345613D01*
X564555Y345587D01*
X564626Y345557D01*
X564696Y345523D01*
X564764Y345486D01*
X564830Y345446D01*
X564894Y345402D01*
X564956Y345355D01*
X565015Y345306D01*
X565072Y345253D01*
X565126Y345198D01*
X565177Y345140D01*
X565225Y345079D01*
X565270Y345016D01*
X565312Y344951D01*
X565351Y344884D01*
X565386Y344815D01*
X565418Y344745D01*
X565446Y344673D01*
X565471Y344599D01*
X565492Y344525D01*
X565509Y344450D01*
X565523Y344373D01*
X565532Y344297D01*
X565538Y344219D01*
X565540Y344142D01*
X565541Y344142D02*
X565541Y341658D01*
X565540Y341658D02*
X565538Y341581D01*
X565532Y341503D01*
X565523Y341427D01*
X565509Y341350D01*
X565492Y341275D01*
X565471Y341201D01*
X565446Y341127D01*
X565418Y341055D01*
X565386Y340985D01*
X565351Y340916D01*
X565312Y340849D01*
X565270Y340784D01*
X565225Y340721D01*
X565177Y340660D01*
X565126Y340602D01*
X565072Y340547D01*
X565015Y340494D01*
X564956Y340445D01*
X564894Y340398D01*
X564830Y340354D01*
X564764Y340314D01*
X564696Y340277D01*
X564626Y340243D01*
X564555Y340213D01*
X564482Y340187D01*
X564408Y340164D01*
X564333Y340145D01*
X564258Y340130D01*
X564181Y340118D01*
X564104Y340110D01*
X564027Y340106D01*
X563949Y340106D01*
X563872Y340110D01*
X563795Y340118D01*
X563718Y340130D01*
X563643Y340145D01*
X563568Y340164D01*
X563494Y340187D01*
X563421Y340213D01*
X563350Y340243D01*
X563280Y340277D01*
X563212Y340314D01*
X563146Y340354D01*
X563082Y340398D01*
X563020Y340445D01*
X562961Y340494D01*
X562904Y340547D01*
X562850Y340602D01*
X562799Y340660D01*
X562751Y340721D01*
X562706Y340784D01*
X562664Y340849D01*
X562625Y340916D01*
X562590Y340985D01*
X562558Y341055D01*
X562530Y341127D01*
X562505Y341201D01*
X562484Y341275D01*
X562467Y341350D01*
X562453Y341427D01*
X562444Y341503D01*
X562438Y341581D01*
X562436Y341658D01*
X568142Y340106D02*
X568142Y345694D01*
X569694Y345694D01*
X569771Y345692D01*
X569849Y345686D01*
X569925Y345677D01*
X570002Y345663D01*
X570077Y345646D01*
X570151Y345625D01*
X570225Y345600D01*
X570297Y345572D01*
X570367Y345540D01*
X570436Y345505D01*
X570503Y345466D01*
X570568Y345424D01*
X570631Y345379D01*
X570692Y345331D01*
X570750Y345280D01*
X570805Y345226D01*
X570858Y345169D01*
X570907Y345110D01*
X570954Y345048D01*
X570998Y344984D01*
X571038Y344918D01*
X571075Y344850D01*
X571109Y344780D01*
X571139Y344709D01*
X571165Y344636D01*
X571188Y344562D01*
X571207Y344487D01*
X571222Y344412D01*
X571234Y344335D01*
X571242Y344258D01*
X571246Y344181D01*
X571246Y344103D01*
X571242Y344026D01*
X571234Y343949D01*
X571222Y343872D01*
X571207Y343797D01*
X571188Y343722D01*
X571165Y343648D01*
X571139Y343575D01*
X571109Y343504D01*
X571075Y343434D01*
X571038Y343366D01*
X570998Y343300D01*
X570954Y343236D01*
X570907Y343174D01*
X570858Y343115D01*
X570805Y343058D01*
X570750Y343004D01*
X570692Y342953D01*
X570631Y342905D01*
X570568Y342860D01*
X570503Y342818D01*
X570436Y342779D01*
X570367Y342744D01*
X570297Y342712D01*
X570225Y342684D01*
X570151Y342659D01*
X570077Y342638D01*
X570002Y342621D01*
X569925Y342607D01*
X569849Y342598D01*
X569771Y342592D01*
X569694Y342590D01*
X568142Y342590D01*
X570004Y342590D02*
X571246Y340106D01*
X122552Y96266D02*
X122552Y90678D01*
X122552Y96266D02*
X124104Y96266D01*
X124181Y96264D01*
X124259Y96258D01*
X124335Y96249D01*
X124412Y96235D01*
X124487Y96218D01*
X124561Y96197D01*
X124635Y96172D01*
X124707Y96144D01*
X124777Y96112D01*
X124846Y96077D01*
X124913Y96038D01*
X124978Y95996D01*
X125041Y95951D01*
X125102Y95903D01*
X125160Y95852D01*
X125215Y95798D01*
X125268Y95741D01*
X125317Y95682D01*
X125364Y95620D01*
X125408Y95556D01*
X125448Y95490D01*
X125485Y95422D01*
X125519Y95352D01*
X125549Y95281D01*
X125575Y95208D01*
X125598Y95134D01*
X125617Y95059D01*
X125632Y94984D01*
X125644Y94907D01*
X125652Y94830D01*
X125656Y94753D01*
X125656Y94675D01*
X125652Y94598D01*
X125644Y94521D01*
X125632Y94444D01*
X125617Y94369D01*
X125598Y94294D01*
X125575Y94220D01*
X125549Y94147D01*
X125519Y94076D01*
X125485Y94006D01*
X125448Y93938D01*
X125408Y93872D01*
X125364Y93808D01*
X125317Y93746D01*
X125268Y93687D01*
X125215Y93630D01*
X125160Y93576D01*
X125102Y93525D01*
X125041Y93477D01*
X124978Y93432D01*
X124913Y93390D01*
X124846Y93351D01*
X124777Y93316D01*
X124707Y93284D01*
X124635Y93256D01*
X124561Y93231D01*
X124487Y93210D01*
X124412Y93193D01*
X124335Y93179D01*
X124259Y93170D01*
X124181Y93164D01*
X124104Y93162D01*
X122552Y93162D01*
X127772Y92230D02*
X127772Y94714D01*
X127773Y94714D02*
X127775Y94791D01*
X127781Y94869D01*
X127790Y94945D01*
X127804Y95022D01*
X127821Y95097D01*
X127842Y95171D01*
X127867Y95245D01*
X127895Y95317D01*
X127927Y95387D01*
X127962Y95456D01*
X128001Y95523D01*
X128043Y95588D01*
X128088Y95651D01*
X128136Y95712D01*
X128187Y95770D01*
X128241Y95825D01*
X128298Y95878D01*
X128357Y95927D01*
X128419Y95974D01*
X128483Y96018D01*
X128549Y96058D01*
X128617Y96095D01*
X128687Y96129D01*
X128758Y96159D01*
X128831Y96185D01*
X128905Y96208D01*
X128980Y96227D01*
X129055Y96242D01*
X129132Y96254D01*
X129209Y96262D01*
X129286Y96266D01*
X129364Y96266D01*
X129441Y96262D01*
X129518Y96254D01*
X129595Y96242D01*
X129670Y96227D01*
X129745Y96208D01*
X129819Y96185D01*
X129892Y96159D01*
X129963Y96129D01*
X130033Y96095D01*
X130101Y96058D01*
X130167Y96018D01*
X130231Y95974D01*
X130293Y95927D01*
X130352Y95878D01*
X130409Y95825D01*
X130463Y95770D01*
X130514Y95712D01*
X130562Y95651D01*
X130607Y95588D01*
X130649Y95523D01*
X130688Y95456D01*
X130723Y95387D01*
X130755Y95317D01*
X130783Y95245D01*
X130808Y95171D01*
X130829Y95097D01*
X130846Y95022D01*
X130860Y94945D01*
X130869Y94869D01*
X130875Y94791D01*
X130877Y94714D01*
X130877Y92230D01*
X130875Y92153D01*
X130869Y92075D01*
X130860Y91999D01*
X130846Y91922D01*
X130829Y91847D01*
X130808Y91773D01*
X130783Y91699D01*
X130755Y91627D01*
X130723Y91557D01*
X130688Y91488D01*
X130649Y91421D01*
X130607Y91356D01*
X130562Y91293D01*
X130514Y91232D01*
X130463Y91174D01*
X130409Y91119D01*
X130352Y91066D01*
X130293Y91017D01*
X130231Y90970D01*
X130167Y90926D01*
X130101Y90886D01*
X130033Y90849D01*
X129963Y90815D01*
X129892Y90785D01*
X129819Y90759D01*
X129745Y90736D01*
X129670Y90717D01*
X129595Y90702D01*
X129518Y90690D01*
X129441Y90682D01*
X129364Y90678D01*
X129286Y90678D01*
X129209Y90682D01*
X129132Y90690D01*
X129055Y90702D01*
X128980Y90717D01*
X128905Y90736D01*
X128831Y90759D01*
X128758Y90785D01*
X128687Y90815D01*
X128617Y90849D01*
X128549Y90886D01*
X128483Y90926D01*
X128419Y90970D01*
X128357Y91017D01*
X128298Y91066D01*
X128241Y91119D01*
X128187Y91174D01*
X128136Y91232D01*
X128088Y91293D01*
X128043Y91356D01*
X128001Y91421D01*
X127962Y91488D01*
X127927Y91557D01*
X127895Y91627D01*
X127867Y91699D01*
X127842Y91773D01*
X127821Y91847D01*
X127804Y91922D01*
X127790Y91999D01*
X127781Y92075D01*
X127775Y92153D01*
X127773Y92230D01*
X133059Y96266D02*
X134301Y90678D01*
X135542Y94403D01*
X136784Y90678D01*
X138026Y96266D01*
X140402Y90678D02*
X142886Y90678D01*
X140402Y90678D02*
X140402Y96266D01*
X142886Y96266D01*
X142265Y93782D02*
X140402Y93782D01*
X145182Y96266D02*
X145182Y90678D01*
X145182Y96266D02*
X146734Y96266D01*
X146811Y96264D01*
X146889Y96258D01*
X146965Y96249D01*
X147042Y96235D01*
X147117Y96218D01*
X147191Y96197D01*
X147265Y96172D01*
X147337Y96144D01*
X147407Y96112D01*
X147476Y96077D01*
X147543Y96038D01*
X147608Y95996D01*
X147671Y95951D01*
X147732Y95903D01*
X147790Y95852D01*
X147845Y95798D01*
X147898Y95741D01*
X147947Y95682D01*
X147994Y95620D01*
X148038Y95556D01*
X148078Y95490D01*
X148115Y95422D01*
X148149Y95352D01*
X148179Y95281D01*
X148205Y95208D01*
X148228Y95134D01*
X148247Y95059D01*
X148262Y94984D01*
X148274Y94907D01*
X148282Y94830D01*
X148286Y94753D01*
X148286Y94675D01*
X148282Y94598D01*
X148274Y94521D01*
X148262Y94444D01*
X148247Y94369D01*
X148228Y94294D01*
X148205Y94220D01*
X148179Y94147D01*
X148149Y94076D01*
X148115Y94006D01*
X148078Y93938D01*
X148038Y93872D01*
X147994Y93808D01*
X147947Y93746D01*
X147898Y93687D01*
X147845Y93630D01*
X147790Y93576D01*
X147732Y93525D01*
X147671Y93477D01*
X147608Y93432D01*
X147543Y93390D01*
X147476Y93351D01*
X147407Y93316D01*
X147337Y93284D01*
X147265Y93256D01*
X147191Y93231D01*
X147117Y93210D01*
X147042Y93193D01*
X146965Y93179D01*
X146889Y93170D01*
X146811Y93164D01*
X146734Y93162D01*
X145182Y93162D01*
X147045Y93162D02*
X148286Y90678D01*
X58206Y87122D02*
X58206Y81534D01*
X58206Y87122D02*
X59759Y87122D01*
X59835Y87120D01*
X59911Y87115D01*
X59987Y87105D01*
X60062Y87092D01*
X60136Y87075D01*
X60210Y87055D01*
X60282Y87031D01*
X60353Y87004D01*
X60423Y86973D01*
X60491Y86939D01*
X60557Y86901D01*
X60621Y86860D01*
X60684Y86817D01*
X60744Y86770D01*
X60801Y86720D01*
X60856Y86667D01*
X60909Y86612D01*
X60959Y86555D01*
X61006Y86495D01*
X61049Y86432D01*
X61090Y86368D01*
X61128Y86302D01*
X61162Y86234D01*
X61193Y86164D01*
X61220Y86093D01*
X61244Y86020D01*
X61264Y85947D01*
X61281Y85873D01*
X61294Y85798D01*
X61304Y85722D01*
X61309Y85646D01*
X61311Y85570D01*
X61311Y83086D01*
X61309Y83007D01*
X61303Y82929D01*
X61293Y82851D01*
X61279Y82774D01*
X61261Y82697D01*
X61240Y82621D01*
X61214Y82547D01*
X61185Y82474D01*
X61152Y82403D01*
X61116Y82333D01*
X61076Y82265D01*
X61033Y82199D01*
X60986Y82136D01*
X60937Y82075D01*
X60884Y82017D01*
X60828Y81961D01*
X60770Y81908D01*
X60709Y81859D01*
X60646Y81812D01*
X60580Y81769D01*
X60512Y81729D01*
X60443Y81693D01*
X60371Y81660D01*
X60298Y81631D01*
X60224Y81605D01*
X60148Y81584D01*
X60071Y81566D01*
X59994Y81552D01*
X59916Y81542D01*
X59838Y81536D01*
X59759Y81534D01*
X58206Y81534D01*
X65101Y81534D02*
X66343Y81534D01*
X65101Y81534D02*
X65031Y81536D01*
X64962Y81542D01*
X64893Y81552D01*
X64825Y81565D01*
X64757Y81583D01*
X64691Y81604D01*
X64626Y81629D01*
X64562Y81657D01*
X64500Y81689D01*
X64440Y81724D01*
X64382Y81763D01*
X64327Y81805D01*
X64273Y81850D01*
X64223Y81898D01*
X64175Y81948D01*
X64130Y82002D01*
X64088Y82057D01*
X64049Y82115D01*
X64014Y82175D01*
X63982Y82237D01*
X63954Y82301D01*
X63929Y82366D01*
X63908Y82432D01*
X63890Y82500D01*
X63877Y82568D01*
X63867Y82637D01*
X63861Y82706D01*
X63859Y82776D01*
X63859Y85880D01*
X63861Y85950D01*
X63867Y86019D01*
X63877Y86088D01*
X63890Y86156D01*
X63908Y86224D01*
X63929Y86290D01*
X63954Y86355D01*
X63982Y86419D01*
X64014Y86481D01*
X64049Y86541D01*
X64088Y86599D01*
X64130Y86654D01*
X64175Y86708D01*
X64223Y86758D01*
X64273Y86806D01*
X64327Y86851D01*
X64382Y86893D01*
X64440Y86932D01*
X64500Y86967D01*
X64562Y86999D01*
X64626Y87027D01*
X64691Y87052D01*
X64757Y87073D01*
X64825Y87091D01*
X64893Y87104D01*
X64962Y87114D01*
X65031Y87120D01*
X65101Y87122D01*
X66343Y87122D01*
X71639Y84638D02*
X73192Y84638D01*
X73269Y84636D01*
X73347Y84630D01*
X73423Y84621D01*
X73500Y84607D01*
X73575Y84590D01*
X73649Y84569D01*
X73723Y84544D01*
X73795Y84516D01*
X73865Y84484D01*
X73934Y84449D01*
X74001Y84410D01*
X74066Y84368D01*
X74129Y84323D01*
X74190Y84275D01*
X74248Y84224D01*
X74303Y84170D01*
X74356Y84113D01*
X74405Y84054D01*
X74452Y83992D01*
X74496Y83928D01*
X74536Y83862D01*
X74573Y83794D01*
X74607Y83724D01*
X74637Y83653D01*
X74663Y83580D01*
X74686Y83506D01*
X74705Y83431D01*
X74720Y83356D01*
X74732Y83279D01*
X74740Y83202D01*
X74744Y83125D01*
X74744Y83047D01*
X74740Y82970D01*
X74732Y82893D01*
X74720Y82816D01*
X74705Y82741D01*
X74686Y82666D01*
X74663Y82592D01*
X74637Y82519D01*
X74607Y82448D01*
X74573Y82378D01*
X74536Y82310D01*
X74496Y82244D01*
X74452Y82180D01*
X74405Y82118D01*
X74356Y82059D01*
X74303Y82002D01*
X74248Y81948D01*
X74190Y81897D01*
X74129Y81849D01*
X74066Y81804D01*
X74001Y81762D01*
X73934Y81723D01*
X73865Y81688D01*
X73795Y81656D01*
X73723Y81628D01*
X73649Y81603D01*
X73575Y81582D01*
X73500Y81565D01*
X73423Y81551D01*
X73347Y81542D01*
X73269Y81536D01*
X73192Y81534D01*
X71639Y81534D01*
X71639Y87122D01*
X73192Y87122D01*
X73262Y87120D01*
X73331Y87114D01*
X73400Y87104D01*
X73468Y87091D01*
X73536Y87073D01*
X73602Y87052D01*
X73667Y87027D01*
X73731Y86999D01*
X73793Y86967D01*
X73853Y86932D01*
X73911Y86893D01*
X73966Y86851D01*
X74020Y86806D01*
X74070Y86758D01*
X74118Y86708D01*
X74163Y86654D01*
X74205Y86599D01*
X74244Y86541D01*
X74279Y86481D01*
X74311Y86419D01*
X74339Y86355D01*
X74364Y86290D01*
X74385Y86224D01*
X74403Y86156D01*
X74416Y86088D01*
X74426Y86019D01*
X74432Y85950D01*
X74434Y85880D01*
X74432Y85810D01*
X74426Y85741D01*
X74416Y85672D01*
X74403Y85604D01*
X74385Y85536D01*
X74364Y85470D01*
X74339Y85405D01*
X74311Y85341D01*
X74279Y85279D01*
X74244Y85219D01*
X74205Y85161D01*
X74163Y85106D01*
X74118Y85052D01*
X74070Y85002D01*
X74020Y84954D01*
X73966Y84909D01*
X73911Y84867D01*
X73853Y84828D01*
X73793Y84793D01*
X73731Y84761D01*
X73667Y84733D01*
X73602Y84708D01*
X73536Y84687D01*
X73468Y84669D01*
X73400Y84656D01*
X73331Y84646D01*
X73262Y84640D01*
X73192Y84638D01*
X76549Y81534D02*
X78412Y87122D01*
X80275Y81534D01*
X79809Y82931D02*
X77015Y82931D01*
X82565Y81534D02*
X82565Y87122D01*
X84117Y87122D01*
X84194Y87120D01*
X84272Y87114D01*
X84348Y87105D01*
X84425Y87091D01*
X84500Y87074D01*
X84574Y87053D01*
X84648Y87028D01*
X84720Y87000D01*
X84790Y86968D01*
X84859Y86933D01*
X84926Y86894D01*
X84991Y86852D01*
X85054Y86807D01*
X85115Y86759D01*
X85173Y86708D01*
X85228Y86654D01*
X85281Y86597D01*
X85330Y86538D01*
X85377Y86476D01*
X85421Y86412D01*
X85461Y86346D01*
X85498Y86278D01*
X85532Y86208D01*
X85562Y86137D01*
X85588Y86064D01*
X85611Y85990D01*
X85630Y85915D01*
X85645Y85840D01*
X85657Y85763D01*
X85665Y85686D01*
X85669Y85609D01*
X85669Y85531D01*
X85665Y85454D01*
X85657Y85377D01*
X85645Y85300D01*
X85630Y85225D01*
X85611Y85150D01*
X85588Y85076D01*
X85562Y85003D01*
X85532Y84932D01*
X85498Y84862D01*
X85461Y84794D01*
X85421Y84728D01*
X85377Y84664D01*
X85330Y84602D01*
X85281Y84543D01*
X85228Y84486D01*
X85173Y84432D01*
X85115Y84381D01*
X85054Y84333D01*
X84991Y84288D01*
X84926Y84246D01*
X84859Y84207D01*
X84790Y84172D01*
X84720Y84140D01*
X84648Y84112D01*
X84574Y84087D01*
X84500Y84066D01*
X84425Y84049D01*
X84348Y84035D01*
X84272Y84026D01*
X84194Y84020D01*
X84117Y84018D01*
X82565Y84018D01*
X84428Y84018D02*
X85670Y81534D01*
X88234Y81534D02*
X88234Y87122D01*
X89787Y87122D01*
X89864Y87120D01*
X89942Y87114D01*
X90018Y87105D01*
X90095Y87091D01*
X90170Y87074D01*
X90244Y87053D01*
X90318Y87028D01*
X90390Y87000D01*
X90460Y86968D01*
X90529Y86933D01*
X90596Y86894D01*
X90661Y86852D01*
X90724Y86807D01*
X90785Y86759D01*
X90843Y86708D01*
X90898Y86654D01*
X90951Y86597D01*
X91000Y86538D01*
X91047Y86476D01*
X91091Y86412D01*
X91131Y86346D01*
X91168Y86278D01*
X91202Y86208D01*
X91232Y86137D01*
X91258Y86064D01*
X91281Y85990D01*
X91300Y85915D01*
X91315Y85840D01*
X91327Y85763D01*
X91335Y85686D01*
X91339Y85609D01*
X91339Y85531D01*
X91335Y85454D01*
X91327Y85377D01*
X91315Y85300D01*
X91300Y85225D01*
X91281Y85150D01*
X91258Y85076D01*
X91232Y85003D01*
X91202Y84932D01*
X91168Y84862D01*
X91131Y84794D01*
X91091Y84728D01*
X91047Y84664D01*
X91000Y84602D01*
X90951Y84543D01*
X90898Y84486D01*
X90843Y84432D01*
X90785Y84381D01*
X90724Y84333D01*
X90661Y84288D01*
X90596Y84246D01*
X90529Y84207D01*
X90460Y84172D01*
X90390Y84140D01*
X90318Y84112D01*
X90244Y84087D01*
X90170Y84066D01*
X90095Y84049D01*
X90018Y84035D01*
X89942Y84026D01*
X89864Y84020D01*
X89787Y84018D01*
X88234Y84018D01*
X90097Y84018D02*
X91339Y81534D01*
X93879Y81534D02*
X96362Y81534D01*
X93879Y81534D02*
X93879Y87122D01*
X96362Y87122D01*
X95741Y84638D02*
X93879Y84638D01*
X98634Y87122D02*
X98634Y81534D01*
X101117Y81534D01*
X107419Y82776D02*
X107419Y87122D01*
X107419Y82776D02*
X107417Y82706D01*
X107411Y82637D01*
X107401Y82568D01*
X107388Y82500D01*
X107370Y82432D01*
X107349Y82366D01*
X107324Y82301D01*
X107296Y82237D01*
X107264Y82175D01*
X107229Y82115D01*
X107190Y82057D01*
X107148Y82002D01*
X107103Y81948D01*
X107055Y81898D01*
X107005Y81850D01*
X106951Y81805D01*
X106896Y81763D01*
X106838Y81724D01*
X106778Y81689D01*
X106716Y81657D01*
X106652Y81629D01*
X106587Y81604D01*
X106521Y81583D01*
X106453Y81565D01*
X106385Y81552D01*
X106316Y81542D01*
X106247Y81536D01*
X106177Y81534D01*
X105556Y81534D01*
X109650Y81534D02*
X111513Y87122D01*
X113376Y81534D01*
X112910Y82931D02*
X110116Y82931D01*
X116673Y81534D02*
X117914Y81534D01*
X116673Y81534D02*
X116603Y81536D01*
X116534Y81542D01*
X116465Y81552D01*
X116397Y81565D01*
X116329Y81583D01*
X116263Y81604D01*
X116198Y81629D01*
X116134Y81657D01*
X116072Y81689D01*
X116012Y81724D01*
X115954Y81763D01*
X115899Y81805D01*
X115845Y81850D01*
X115795Y81898D01*
X115747Y81948D01*
X115702Y82002D01*
X115660Y82057D01*
X115621Y82115D01*
X115586Y82175D01*
X115554Y82237D01*
X115526Y82301D01*
X115501Y82366D01*
X115480Y82432D01*
X115462Y82500D01*
X115449Y82568D01*
X115439Y82637D01*
X115433Y82706D01*
X115431Y82776D01*
X115431Y85880D01*
X115433Y85950D01*
X115439Y86019D01*
X115449Y86088D01*
X115462Y86156D01*
X115480Y86224D01*
X115501Y86290D01*
X115526Y86355D01*
X115554Y86419D01*
X115586Y86481D01*
X115621Y86541D01*
X115660Y86599D01*
X115702Y86654D01*
X115747Y86708D01*
X115795Y86758D01*
X115845Y86806D01*
X115899Y86851D01*
X115954Y86893D01*
X116012Y86932D01*
X116072Y86967D01*
X116134Y86999D01*
X116198Y87027D01*
X116263Y87052D01*
X116329Y87073D01*
X116397Y87091D01*
X116465Y87104D01*
X116534Y87114D01*
X116603Y87120D01*
X116673Y87122D01*
X117914Y87122D01*
X120285Y87122D02*
X120285Y81534D01*
X120285Y83707D02*
X123389Y87122D01*
X121527Y84949D02*
X123389Y81534D01*
X130139Y87122D02*
X130212Y87120D01*
X130285Y87114D01*
X130358Y87105D01*
X130429Y87091D01*
X130501Y87074D01*
X130571Y87054D01*
X130640Y87029D01*
X130707Y87001D01*
X130773Y86970D01*
X130838Y86935D01*
X130900Y86897D01*
X130960Y86855D01*
X131018Y86811D01*
X131074Y86763D01*
X131127Y86713D01*
X131177Y86660D01*
X131225Y86604D01*
X131269Y86546D01*
X131311Y86486D01*
X131349Y86424D01*
X131384Y86359D01*
X131415Y86293D01*
X131443Y86226D01*
X131468Y86157D01*
X131488Y86087D01*
X131505Y86015D01*
X131519Y85944D01*
X131528Y85871D01*
X131534Y85798D01*
X131536Y85725D01*
X130139Y87122D02*
X130055Y87120D01*
X129972Y87114D01*
X129889Y87105D01*
X129807Y87091D01*
X129725Y87074D01*
X129644Y87052D01*
X129564Y87027D01*
X129486Y86999D01*
X129408Y86967D01*
X129333Y86931D01*
X129259Y86892D01*
X129187Y86849D01*
X129117Y86803D01*
X129050Y86754D01*
X128984Y86701D01*
X128922Y86646D01*
X128862Y86588D01*
X128804Y86527D01*
X128750Y86464D01*
X128698Y86398D01*
X128650Y86330D01*
X128605Y86259D01*
X128563Y86187D01*
X128525Y86112D01*
X128490Y86036D01*
X128459Y85959D01*
X128431Y85880D01*
X131070Y84639D02*
X131124Y84692D01*
X131175Y84749D01*
X131223Y84808D01*
X131268Y84869D01*
X131309Y84932D01*
X131348Y84998D01*
X131383Y85065D01*
X131415Y85134D01*
X131443Y85205D01*
X131467Y85276D01*
X131488Y85349D01*
X131505Y85423D01*
X131519Y85498D01*
X131528Y85573D01*
X131534Y85649D01*
X131536Y85725D01*
X131070Y84638D02*
X128432Y81534D01*
X131536Y81534D01*
X133669Y81534D02*
X133669Y81844D01*
X133979Y81844D01*
X133979Y81534D01*
X133669Y81534D01*
X136112Y85880D02*
X137665Y87122D01*
X137665Y81534D01*
X139217Y81534D02*
X136112Y81534D01*
X141837Y81534D02*
X141837Y85259D01*
X144631Y85259D01*
X144689Y85257D01*
X144748Y85252D01*
X144805Y85243D01*
X144863Y85230D01*
X144919Y85213D01*
X144974Y85194D01*
X145027Y85170D01*
X145080Y85144D01*
X145130Y85114D01*
X145178Y85081D01*
X145224Y85045D01*
X145268Y85007D01*
X145310Y84965D01*
X145348Y84921D01*
X145384Y84875D01*
X145417Y84827D01*
X145447Y84777D01*
X145473Y84724D01*
X145497Y84671D01*
X145516Y84616D01*
X145533Y84560D01*
X145546Y84502D01*
X145555Y84445D01*
X145560Y84386D01*
X145562Y84328D01*
X145562Y81534D01*
X143700Y81534D02*
X143700Y85259D01*
X148421Y85259D02*
X148421Y81534D01*
X148421Y85259D02*
X151215Y85259D01*
X151273Y85257D01*
X151332Y85252D01*
X151389Y85243D01*
X151447Y85230D01*
X151503Y85213D01*
X151558Y85194D01*
X151611Y85170D01*
X151664Y85144D01*
X151714Y85114D01*
X151762Y85081D01*
X151808Y85045D01*
X151852Y85007D01*
X151894Y84965D01*
X151932Y84921D01*
X151968Y84875D01*
X152001Y84827D01*
X152031Y84777D01*
X152057Y84724D01*
X152081Y84671D01*
X152100Y84616D01*
X152117Y84560D01*
X152130Y84502D01*
X152139Y84445D01*
X152144Y84386D01*
X152146Y84328D01*
X152146Y81534D01*
X150283Y81534D02*
X150283Y85259D01*
X310632Y50179D02*
X314357Y50179D01*
X312495Y48316D02*
X312495Y52042D01*
X316794Y52352D02*
X318347Y53594D01*
X318347Y48006D01*
X319899Y48006D02*
X316794Y48006D01*
X323988Y53594D02*
X324061Y53592D01*
X324134Y53586D01*
X324207Y53577D01*
X324278Y53563D01*
X324350Y53546D01*
X324420Y53526D01*
X324489Y53501D01*
X324556Y53473D01*
X324622Y53442D01*
X324687Y53407D01*
X324749Y53369D01*
X324809Y53327D01*
X324867Y53283D01*
X324923Y53235D01*
X324976Y53185D01*
X325026Y53132D01*
X325074Y53076D01*
X325118Y53018D01*
X325160Y52958D01*
X325198Y52896D01*
X325233Y52831D01*
X325264Y52765D01*
X325292Y52698D01*
X325317Y52629D01*
X325337Y52559D01*
X325354Y52487D01*
X325368Y52416D01*
X325377Y52343D01*
X325383Y52270D01*
X325385Y52197D01*
X323988Y53594D02*
X323904Y53592D01*
X323821Y53586D01*
X323738Y53577D01*
X323656Y53563D01*
X323574Y53546D01*
X323493Y53524D01*
X323413Y53499D01*
X323335Y53471D01*
X323257Y53439D01*
X323182Y53403D01*
X323108Y53364D01*
X323036Y53321D01*
X322966Y53275D01*
X322899Y53226D01*
X322833Y53173D01*
X322771Y53118D01*
X322711Y53060D01*
X322653Y52999D01*
X322599Y52936D01*
X322547Y52870D01*
X322499Y52802D01*
X322454Y52731D01*
X322412Y52659D01*
X322374Y52584D01*
X322339Y52508D01*
X322308Y52431D01*
X322280Y52352D01*
X324919Y51111D02*
X324973Y51164D01*
X325024Y51221D01*
X325072Y51280D01*
X325117Y51341D01*
X325158Y51404D01*
X325197Y51470D01*
X325232Y51537D01*
X325264Y51606D01*
X325292Y51677D01*
X325316Y51748D01*
X325337Y51821D01*
X325354Y51895D01*
X325368Y51970D01*
X325377Y52045D01*
X325383Y52121D01*
X325385Y52197D01*
X324920Y51110D02*
X322281Y48006D01*
X325385Y48006D01*
X329319Y48006D02*
X327457Y53594D01*
X331182Y53594D02*
X329319Y48006D01*
X336211Y50800D02*
X336213Y50943D01*
X336219Y51085D01*
X336228Y51227D01*
X336242Y51369D01*
X336259Y51511D01*
X336280Y51652D01*
X336304Y51792D01*
X336333Y51932D01*
X336365Y52071D01*
X336401Y52209D01*
X336441Y52346D01*
X336484Y52482D01*
X336531Y52617D01*
X336582Y52750D01*
X336636Y52882D01*
X336693Y53012D01*
X336754Y53141D01*
X336819Y53269D01*
X336887Y53394D01*
X336958Y53517D01*
X337033Y53639D01*
X337110Y53759D01*
X337191Y53876D01*
X337275Y53991D01*
X337363Y54104D01*
X337453Y54215D01*
X336211Y50800D02*
X336213Y50657D01*
X336219Y50515D01*
X336228Y50373D01*
X336242Y50231D01*
X336259Y50089D01*
X336280Y49948D01*
X336304Y49808D01*
X336333Y49668D01*
X336365Y49529D01*
X336401Y49391D01*
X336441Y49254D01*
X336484Y49118D01*
X336531Y48983D01*
X336582Y48850D01*
X336636Y48718D01*
X336693Y48588D01*
X336754Y48459D01*
X336819Y48331D01*
X336887Y48206D01*
X336958Y48083D01*
X337033Y47961D01*
X337110Y47841D01*
X337191Y47724D01*
X337275Y47609D01*
X337363Y47496D01*
X337453Y47385D01*
X341207Y48006D02*
X339344Y53594D01*
X343069Y53594D02*
X341207Y48006D01*
X345596Y48006D02*
X345596Y53594D01*
X344975Y48006D02*
X346217Y48006D01*
X346217Y53594D02*
X344975Y53594D01*
X348615Y53594D02*
X348615Y48006D01*
X351720Y48006D02*
X348615Y53594D01*
X351720Y53594D02*
X351720Y48006D01*
X354104Y47385D02*
X354194Y47496D01*
X354282Y47609D01*
X354366Y47724D01*
X354447Y47841D01*
X354524Y47961D01*
X354599Y48083D01*
X354670Y48206D01*
X354738Y48331D01*
X354803Y48459D01*
X354864Y48588D01*
X354921Y48718D01*
X354975Y48850D01*
X355026Y48983D01*
X355073Y49118D01*
X355116Y49254D01*
X355156Y49391D01*
X355192Y49529D01*
X355224Y49668D01*
X355253Y49808D01*
X355277Y49948D01*
X355298Y50089D01*
X355315Y50231D01*
X355329Y50373D01*
X355338Y50515D01*
X355344Y50657D01*
X355346Y50800D01*
X355344Y50943D01*
X355338Y51085D01*
X355329Y51227D01*
X355315Y51369D01*
X355298Y51511D01*
X355277Y51652D01*
X355253Y51792D01*
X355224Y51932D01*
X355192Y52071D01*
X355156Y52209D01*
X355116Y52346D01*
X355073Y52482D01*
X355026Y52617D01*
X354975Y52750D01*
X354921Y52882D01*
X354864Y53012D01*
X354803Y53141D01*
X354738Y53269D01*
X354670Y53394D01*
X354599Y53517D01*
X354524Y53639D01*
X354447Y53759D01*
X354366Y53876D01*
X354282Y53991D01*
X354194Y54104D01*
X354104Y54215D01*
X318242Y89210D02*
X317310Y89210D01*
X318242Y89210D02*
X318242Y86106D01*
X316379Y86106D01*
X316309Y86108D01*
X316240Y86114D01*
X316171Y86124D01*
X316103Y86137D01*
X316035Y86155D01*
X315969Y86176D01*
X315904Y86201D01*
X315840Y86229D01*
X315778Y86261D01*
X315718Y86296D01*
X315660Y86335D01*
X315605Y86377D01*
X315551Y86422D01*
X315501Y86470D01*
X315453Y86520D01*
X315408Y86574D01*
X315366Y86629D01*
X315327Y86687D01*
X315292Y86747D01*
X315260Y86809D01*
X315232Y86873D01*
X315207Y86938D01*
X315186Y87004D01*
X315168Y87072D01*
X315155Y87140D01*
X315145Y87209D01*
X315139Y87278D01*
X315137Y87348D01*
X315137Y90452D01*
X315139Y90522D01*
X315145Y90591D01*
X315155Y90660D01*
X315168Y90728D01*
X315186Y90796D01*
X315207Y90862D01*
X315232Y90927D01*
X315260Y90991D01*
X315292Y91053D01*
X315327Y91113D01*
X315366Y91171D01*
X315408Y91226D01*
X315453Y91280D01*
X315501Y91330D01*
X315551Y91378D01*
X315605Y91423D01*
X315660Y91465D01*
X315718Y91504D01*
X315778Y91539D01*
X315840Y91571D01*
X315904Y91599D01*
X315969Y91624D01*
X316035Y91645D01*
X316103Y91663D01*
X316171Y91676D01*
X316240Y91686D01*
X316309Y91692D01*
X316379Y91694D01*
X318242Y91694D01*
X320989Y91694D02*
X320989Y86106D01*
X324094Y86106D02*
X320989Y91694D01*
X324094Y91694D02*
X324094Y86106D01*
X326842Y86106D02*
X326842Y91694D01*
X328394Y91694D01*
X328470Y91692D01*
X328546Y91687D01*
X328622Y91677D01*
X328697Y91664D01*
X328771Y91647D01*
X328845Y91627D01*
X328917Y91603D01*
X328988Y91576D01*
X329058Y91545D01*
X329126Y91511D01*
X329192Y91473D01*
X329256Y91432D01*
X329319Y91389D01*
X329379Y91342D01*
X329436Y91292D01*
X329491Y91239D01*
X329544Y91184D01*
X329594Y91127D01*
X329641Y91067D01*
X329684Y91004D01*
X329725Y90940D01*
X329763Y90874D01*
X329797Y90806D01*
X329828Y90736D01*
X329855Y90665D01*
X329879Y90592D01*
X329899Y90519D01*
X329916Y90445D01*
X329929Y90370D01*
X329939Y90294D01*
X329944Y90218D01*
X329946Y90142D01*
X329946Y87658D01*
X329944Y87579D01*
X329938Y87501D01*
X329928Y87423D01*
X329914Y87346D01*
X329896Y87269D01*
X329875Y87193D01*
X329849Y87119D01*
X329820Y87046D01*
X329787Y86975D01*
X329751Y86905D01*
X329711Y86837D01*
X329668Y86771D01*
X329621Y86708D01*
X329572Y86647D01*
X329519Y86589D01*
X329463Y86533D01*
X329405Y86480D01*
X329344Y86431D01*
X329281Y86384D01*
X329215Y86341D01*
X329147Y86301D01*
X329078Y86265D01*
X329006Y86232D01*
X328933Y86203D01*
X328859Y86177D01*
X328783Y86156D01*
X328706Y86138D01*
X328629Y86124D01*
X328551Y86114D01*
X328473Y86108D01*
X328394Y86106D01*
X326842Y86106D01*
X298091Y111506D02*
X296229Y117094D01*
X299954Y117094D02*
X298091Y111506D01*
X302025Y113058D02*
X302025Y115542D01*
X302026Y115542D02*
X302028Y115619D01*
X302034Y115697D01*
X302043Y115773D01*
X302057Y115850D01*
X302074Y115925D01*
X302095Y115999D01*
X302120Y116073D01*
X302148Y116145D01*
X302180Y116215D01*
X302215Y116284D01*
X302254Y116351D01*
X302296Y116416D01*
X302341Y116479D01*
X302389Y116540D01*
X302440Y116598D01*
X302494Y116653D01*
X302551Y116706D01*
X302610Y116755D01*
X302672Y116802D01*
X302736Y116846D01*
X302802Y116886D01*
X302870Y116923D01*
X302940Y116957D01*
X303011Y116987D01*
X303084Y117013D01*
X303158Y117036D01*
X303233Y117055D01*
X303308Y117070D01*
X303385Y117082D01*
X303462Y117090D01*
X303539Y117094D01*
X303617Y117094D01*
X303694Y117090D01*
X303771Y117082D01*
X303848Y117070D01*
X303923Y117055D01*
X303998Y117036D01*
X304072Y117013D01*
X304145Y116987D01*
X304216Y116957D01*
X304286Y116923D01*
X304354Y116886D01*
X304420Y116846D01*
X304484Y116802D01*
X304546Y116755D01*
X304605Y116706D01*
X304662Y116653D01*
X304716Y116598D01*
X304767Y116540D01*
X304815Y116479D01*
X304860Y116416D01*
X304902Y116351D01*
X304941Y116284D01*
X304976Y116215D01*
X305008Y116145D01*
X305036Y116073D01*
X305061Y115999D01*
X305082Y115925D01*
X305099Y115850D01*
X305113Y115773D01*
X305122Y115697D01*
X305128Y115619D01*
X305130Y115542D01*
X305130Y113058D01*
X305128Y112981D01*
X305122Y112903D01*
X305113Y112827D01*
X305099Y112750D01*
X305082Y112675D01*
X305061Y112601D01*
X305036Y112527D01*
X305008Y112455D01*
X304976Y112385D01*
X304941Y112316D01*
X304902Y112249D01*
X304860Y112184D01*
X304815Y112121D01*
X304767Y112060D01*
X304716Y112002D01*
X304662Y111947D01*
X304605Y111894D01*
X304546Y111845D01*
X304484Y111798D01*
X304420Y111754D01*
X304354Y111714D01*
X304286Y111677D01*
X304216Y111643D01*
X304145Y111613D01*
X304072Y111587D01*
X303998Y111564D01*
X303923Y111545D01*
X303848Y111530D01*
X303771Y111518D01*
X303694Y111510D01*
X303617Y111506D01*
X303539Y111506D01*
X303462Y111510D01*
X303385Y111518D01*
X303308Y111530D01*
X303233Y111545D01*
X303158Y111564D01*
X303084Y111587D01*
X303011Y111613D01*
X302940Y111643D01*
X302870Y111677D01*
X302802Y111714D01*
X302736Y111754D01*
X302672Y111798D01*
X302610Y111845D01*
X302551Y111894D01*
X302494Y111947D01*
X302440Y112002D01*
X302389Y112060D01*
X302341Y112121D01*
X302296Y112184D01*
X302254Y112249D01*
X302215Y112316D01*
X302180Y112385D01*
X302148Y112455D01*
X302120Y112527D01*
X302095Y112601D01*
X302074Y112675D01*
X302057Y112750D01*
X302043Y112827D01*
X302034Y112903D01*
X302028Y112981D01*
X302026Y113058D01*
X307695Y113058D02*
X307695Y117094D01*
X307695Y113058D02*
X307697Y112981D01*
X307703Y112903D01*
X307712Y112827D01*
X307726Y112750D01*
X307743Y112675D01*
X307764Y112601D01*
X307789Y112527D01*
X307817Y112455D01*
X307849Y112385D01*
X307884Y112316D01*
X307923Y112249D01*
X307965Y112184D01*
X308010Y112121D01*
X308058Y112060D01*
X308109Y112002D01*
X308163Y111947D01*
X308220Y111894D01*
X308279Y111845D01*
X308341Y111798D01*
X308405Y111754D01*
X308471Y111714D01*
X308539Y111677D01*
X308609Y111643D01*
X308680Y111613D01*
X308753Y111587D01*
X308827Y111564D01*
X308902Y111545D01*
X308977Y111530D01*
X309054Y111518D01*
X309131Y111510D01*
X309208Y111506D01*
X309286Y111506D01*
X309363Y111510D01*
X309440Y111518D01*
X309517Y111530D01*
X309592Y111545D01*
X309667Y111564D01*
X309741Y111587D01*
X309814Y111613D01*
X309885Y111643D01*
X309955Y111677D01*
X310023Y111714D01*
X310089Y111754D01*
X310153Y111798D01*
X310215Y111845D01*
X310274Y111894D01*
X310331Y111947D01*
X310385Y112002D01*
X310436Y112060D01*
X310484Y112121D01*
X310529Y112184D01*
X310571Y112249D01*
X310610Y112316D01*
X310645Y112385D01*
X310677Y112455D01*
X310705Y112527D01*
X310730Y112601D01*
X310751Y112675D01*
X310768Y112750D01*
X310782Y112827D01*
X310791Y112903D01*
X310797Y112981D01*
X310799Y113058D01*
X310799Y117094D01*
X314550Y117094D02*
X314550Y111506D01*
X312998Y117094D02*
X316103Y117094D01*
X321045Y111506D02*
X322907Y111506D01*
X322977Y111508D01*
X323046Y111514D01*
X323115Y111524D01*
X323183Y111537D01*
X323251Y111555D01*
X323317Y111576D01*
X323382Y111601D01*
X323446Y111629D01*
X323508Y111661D01*
X323568Y111696D01*
X323626Y111735D01*
X323681Y111777D01*
X323735Y111822D01*
X323785Y111870D01*
X323833Y111920D01*
X323878Y111974D01*
X323920Y112029D01*
X323959Y112087D01*
X323994Y112147D01*
X324026Y112209D01*
X324054Y112273D01*
X324079Y112338D01*
X324100Y112404D01*
X324118Y112472D01*
X324131Y112540D01*
X324141Y112609D01*
X324147Y112678D01*
X324149Y112748D01*
X324149Y113369D01*
X324147Y113439D01*
X324141Y113508D01*
X324131Y113577D01*
X324118Y113645D01*
X324100Y113713D01*
X324079Y113779D01*
X324054Y113844D01*
X324026Y113908D01*
X323994Y113970D01*
X323959Y114030D01*
X323920Y114088D01*
X323878Y114143D01*
X323833Y114197D01*
X323785Y114247D01*
X323735Y114295D01*
X323681Y114340D01*
X323626Y114382D01*
X323568Y114421D01*
X323508Y114456D01*
X323446Y114488D01*
X323382Y114516D01*
X323317Y114541D01*
X323251Y114562D01*
X323183Y114580D01*
X323115Y114593D01*
X323046Y114603D01*
X322977Y114609D01*
X322907Y114611D01*
X322907Y114610D02*
X321045Y114610D01*
X321045Y117094D01*
X324149Y117094D01*
X326221Y117094D02*
X328083Y111506D01*
X329946Y117094D01*
X390906Y41000D02*
X396494Y42862D01*
X390906Y44725D01*
X392458Y46796D02*
X394942Y46796D01*
X392458Y46797D02*
X392381Y46799D01*
X392303Y46805D01*
X392227Y46814D01*
X392150Y46828D01*
X392075Y46845D01*
X392001Y46866D01*
X391927Y46891D01*
X391855Y46919D01*
X391785Y46951D01*
X391716Y46986D01*
X391649Y47025D01*
X391584Y47067D01*
X391521Y47112D01*
X391460Y47160D01*
X391402Y47211D01*
X391347Y47265D01*
X391294Y47322D01*
X391245Y47381D01*
X391198Y47443D01*
X391154Y47507D01*
X391114Y47573D01*
X391077Y47641D01*
X391043Y47711D01*
X391013Y47782D01*
X390987Y47855D01*
X390964Y47929D01*
X390945Y48004D01*
X390930Y48079D01*
X390918Y48156D01*
X390910Y48233D01*
X390906Y48310D01*
X390906Y48388D01*
X390910Y48465D01*
X390918Y48542D01*
X390930Y48619D01*
X390945Y48694D01*
X390964Y48769D01*
X390987Y48843D01*
X391013Y48916D01*
X391043Y48987D01*
X391077Y49057D01*
X391114Y49125D01*
X391154Y49191D01*
X391198Y49255D01*
X391245Y49317D01*
X391294Y49376D01*
X391347Y49433D01*
X391402Y49487D01*
X391460Y49538D01*
X391521Y49586D01*
X391584Y49631D01*
X391649Y49673D01*
X391716Y49712D01*
X391785Y49747D01*
X391855Y49779D01*
X391927Y49807D01*
X392001Y49832D01*
X392075Y49853D01*
X392150Y49870D01*
X392227Y49884D01*
X392303Y49893D01*
X392381Y49899D01*
X392458Y49901D01*
X394942Y49901D01*
X395019Y49899D01*
X395097Y49893D01*
X395173Y49884D01*
X395250Y49870D01*
X395325Y49853D01*
X395399Y49832D01*
X395473Y49807D01*
X395545Y49779D01*
X395615Y49747D01*
X395684Y49712D01*
X395751Y49673D01*
X395816Y49631D01*
X395879Y49586D01*
X395940Y49538D01*
X395998Y49487D01*
X396053Y49433D01*
X396106Y49376D01*
X396155Y49317D01*
X396202Y49255D01*
X396246Y49191D01*
X396286Y49125D01*
X396323Y49057D01*
X396357Y48987D01*
X396387Y48916D01*
X396413Y48843D01*
X396436Y48769D01*
X396455Y48694D01*
X396470Y48619D01*
X396482Y48542D01*
X396490Y48465D01*
X396494Y48388D01*
X396494Y48310D01*
X396490Y48233D01*
X396482Y48156D01*
X396470Y48079D01*
X396455Y48004D01*
X396436Y47929D01*
X396413Y47855D01*
X396387Y47782D01*
X396357Y47711D01*
X396323Y47641D01*
X396286Y47573D01*
X396246Y47507D01*
X396202Y47443D01*
X396155Y47381D01*
X396106Y47322D01*
X396053Y47265D01*
X395998Y47211D01*
X395940Y47160D01*
X395879Y47112D01*
X395816Y47067D01*
X395751Y47025D01*
X395684Y46986D01*
X395615Y46951D01*
X395545Y46919D01*
X395473Y46891D01*
X395399Y46866D01*
X395325Y46845D01*
X395250Y46828D01*
X395173Y46814D01*
X395097Y46805D01*
X395019Y46799D01*
X394942Y46797D01*
X396494Y52477D02*
X390906Y52477D01*
X396494Y52477D02*
X396494Y54960D01*
X396494Y58224D02*
X390906Y58224D01*
X390906Y56672D02*
X390906Y59776D01*
X390906Y63345D02*
X396494Y61482D01*
X396494Y65207D02*
X390906Y63345D01*
X395097Y64742D02*
X395097Y61948D01*
X393390Y69635D02*
X393390Y70566D01*
X396494Y70566D01*
X396494Y68704D01*
X396492Y68634D01*
X396486Y68565D01*
X396476Y68496D01*
X396463Y68428D01*
X396445Y68360D01*
X396424Y68294D01*
X396399Y68229D01*
X396371Y68165D01*
X396339Y68103D01*
X396304Y68043D01*
X396265Y67985D01*
X396223Y67930D01*
X396178Y67876D01*
X396130Y67826D01*
X396080Y67778D01*
X396026Y67733D01*
X395971Y67691D01*
X395913Y67652D01*
X395853Y67617D01*
X395791Y67585D01*
X395727Y67557D01*
X395662Y67532D01*
X395596Y67511D01*
X395528Y67493D01*
X395460Y67480D01*
X395391Y67470D01*
X395322Y67464D01*
X395252Y67462D01*
X392148Y67462D01*
X392078Y67464D01*
X392009Y67470D01*
X391940Y67480D01*
X391872Y67493D01*
X391804Y67511D01*
X391738Y67532D01*
X391673Y67557D01*
X391609Y67585D01*
X391547Y67617D01*
X391487Y67652D01*
X391429Y67691D01*
X391374Y67733D01*
X391320Y67778D01*
X391270Y67826D01*
X391222Y67876D01*
X391177Y67930D01*
X391135Y67985D01*
X391096Y68043D01*
X391061Y68103D01*
X391029Y68165D01*
X391001Y68229D01*
X390976Y68294D01*
X390955Y68360D01*
X390937Y68428D01*
X390924Y68496D01*
X390914Y68565D01*
X390908Y68634D01*
X390906Y68704D01*
X390906Y70566D01*
X396494Y73325D02*
X396494Y75808D01*
X396494Y73325D02*
X390906Y73325D01*
X390906Y75808D01*
X393390Y75188D02*
X393390Y73325D01*
X390906Y81031D02*
X396494Y81031D01*
X390906Y81031D02*
X390906Y82583D01*
X390908Y82660D01*
X390914Y82738D01*
X390923Y82814D01*
X390937Y82891D01*
X390954Y82966D01*
X390975Y83040D01*
X391000Y83114D01*
X391028Y83186D01*
X391060Y83256D01*
X391095Y83325D01*
X391134Y83392D01*
X391176Y83457D01*
X391221Y83520D01*
X391269Y83581D01*
X391320Y83639D01*
X391374Y83694D01*
X391431Y83747D01*
X391490Y83796D01*
X391552Y83843D01*
X391616Y83887D01*
X391682Y83927D01*
X391750Y83964D01*
X391820Y83998D01*
X391891Y84028D01*
X391964Y84054D01*
X392038Y84077D01*
X392113Y84096D01*
X392188Y84111D01*
X392265Y84123D01*
X392342Y84131D01*
X392419Y84135D01*
X392497Y84135D01*
X392574Y84131D01*
X392651Y84123D01*
X392728Y84111D01*
X392803Y84096D01*
X392878Y84077D01*
X392952Y84054D01*
X393025Y84028D01*
X393096Y83998D01*
X393166Y83964D01*
X393234Y83927D01*
X393300Y83887D01*
X393364Y83843D01*
X393426Y83796D01*
X393485Y83747D01*
X393542Y83694D01*
X393596Y83639D01*
X393647Y83581D01*
X393695Y83520D01*
X393740Y83457D01*
X393782Y83392D01*
X393821Y83325D01*
X393856Y83256D01*
X393888Y83186D01*
X393916Y83114D01*
X393941Y83040D01*
X393962Y82966D01*
X393979Y82891D01*
X393993Y82814D01*
X394002Y82738D01*
X394008Y82660D01*
X394010Y82583D01*
X394010Y81031D01*
X394010Y82893D02*
X396494Y84135D01*
X396494Y86675D02*
X396494Y89159D01*
X396494Y86675D02*
X390906Y86675D01*
X390906Y89159D01*
X393390Y88538D02*
X393390Y86675D01*
X393390Y93592D02*
X393390Y94523D01*
X396494Y94523D01*
X396494Y92661D01*
X396492Y92591D01*
X396486Y92522D01*
X396476Y92453D01*
X396463Y92385D01*
X396445Y92317D01*
X396424Y92251D01*
X396399Y92186D01*
X396371Y92122D01*
X396339Y92060D01*
X396304Y92000D01*
X396265Y91942D01*
X396223Y91887D01*
X396178Y91833D01*
X396130Y91783D01*
X396080Y91735D01*
X396026Y91690D01*
X395971Y91648D01*
X395913Y91609D01*
X395853Y91574D01*
X395791Y91542D01*
X395727Y91514D01*
X395662Y91489D01*
X395596Y91468D01*
X395528Y91450D01*
X395460Y91437D01*
X395391Y91427D01*
X395322Y91421D01*
X395252Y91419D01*
X392148Y91419D01*
X392078Y91421D01*
X392009Y91427D01*
X391940Y91437D01*
X391872Y91450D01*
X391804Y91468D01*
X391738Y91489D01*
X391673Y91514D01*
X391609Y91542D01*
X391547Y91574D01*
X391487Y91609D01*
X391429Y91648D01*
X391374Y91690D01*
X391320Y91735D01*
X391270Y91783D01*
X391222Y91833D01*
X391177Y91887D01*
X391135Y91942D01*
X391096Y92000D01*
X391061Y92060D01*
X391029Y92122D01*
X391001Y92186D01*
X390976Y92251D01*
X390955Y92317D01*
X390937Y92385D01*
X390924Y92453D01*
X390914Y92522D01*
X390908Y92591D01*
X390906Y92661D01*
X390906Y94523D01*
X390906Y97271D02*
X394942Y97271D01*
X395019Y97273D01*
X395097Y97279D01*
X395173Y97288D01*
X395250Y97302D01*
X395325Y97319D01*
X395399Y97340D01*
X395473Y97365D01*
X395545Y97393D01*
X395615Y97425D01*
X395684Y97460D01*
X395751Y97499D01*
X395816Y97541D01*
X395879Y97586D01*
X395940Y97634D01*
X395998Y97685D01*
X396053Y97739D01*
X396106Y97796D01*
X396155Y97855D01*
X396202Y97917D01*
X396246Y97981D01*
X396286Y98047D01*
X396323Y98115D01*
X396357Y98185D01*
X396387Y98256D01*
X396413Y98329D01*
X396436Y98403D01*
X396455Y98478D01*
X396470Y98553D01*
X396482Y98630D01*
X396490Y98707D01*
X396494Y98784D01*
X396494Y98862D01*
X396490Y98939D01*
X396482Y99016D01*
X396470Y99093D01*
X396455Y99168D01*
X396436Y99243D01*
X396413Y99317D01*
X396387Y99390D01*
X396357Y99461D01*
X396323Y99531D01*
X396286Y99599D01*
X396246Y99665D01*
X396202Y99729D01*
X396155Y99791D01*
X396106Y99850D01*
X396053Y99907D01*
X395998Y99961D01*
X395940Y100012D01*
X395879Y100060D01*
X395816Y100105D01*
X395751Y100147D01*
X395684Y100186D01*
X395615Y100221D01*
X395545Y100253D01*
X395473Y100281D01*
X395399Y100306D01*
X395325Y100327D01*
X395250Y100344D01*
X395173Y100358D01*
X395097Y100367D01*
X395019Y100373D01*
X394942Y100375D01*
X390906Y100375D01*
X390906Y103134D02*
X396494Y103134D01*
X396494Y105618D01*
X396494Y107385D02*
X390906Y109247D01*
X396494Y111110D01*
X395097Y110644D02*
X395097Y107850D01*
X396494Y114368D02*
X390906Y114368D01*
X390906Y112816D02*
X390906Y115920D01*
X392458Y117936D02*
X394942Y117936D01*
X392458Y117936D02*
X392381Y117938D01*
X392303Y117944D01*
X392227Y117953D01*
X392150Y117967D01*
X392075Y117984D01*
X392001Y118005D01*
X391927Y118030D01*
X391855Y118058D01*
X391785Y118090D01*
X391716Y118125D01*
X391649Y118164D01*
X391584Y118206D01*
X391521Y118251D01*
X391460Y118299D01*
X391402Y118350D01*
X391347Y118404D01*
X391294Y118461D01*
X391245Y118520D01*
X391198Y118582D01*
X391154Y118646D01*
X391114Y118712D01*
X391077Y118780D01*
X391043Y118850D01*
X391013Y118921D01*
X390987Y118994D01*
X390964Y119068D01*
X390945Y119143D01*
X390930Y119218D01*
X390918Y119295D01*
X390910Y119372D01*
X390906Y119449D01*
X390906Y119527D01*
X390910Y119604D01*
X390918Y119681D01*
X390930Y119758D01*
X390945Y119833D01*
X390964Y119908D01*
X390987Y119982D01*
X391013Y120055D01*
X391043Y120126D01*
X391077Y120196D01*
X391114Y120264D01*
X391154Y120330D01*
X391198Y120394D01*
X391245Y120456D01*
X391294Y120515D01*
X391347Y120572D01*
X391402Y120626D01*
X391460Y120677D01*
X391521Y120725D01*
X391584Y120770D01*
X391649Y120812D01*
X391716Y120851D01*
X391785Y120886D01*
X391855Y120918D01*
X391927Y120946D01*
X392001Y120971D01*
X392075Y120992D01*
X392150Y121009D01*
X392227Y121023D01*
X392303Y121032D01*
X392381Y121038D01*
X392458Y121040D01*
X392458Y121041D02*
X394942Y121041D01*
X394942Y121040D02*
X395019Y121038D01*
X395097Y121032D01*
X395173Y121023D01*
X395250Y121009D01*
X395325Y120992D01*
X395399Y120971D01*
X395473Y120946D01*
X395545Y120918D01*
X395615Y120886D01*
X395684Y120851D01*
X395751Y120812D01*
X395816Y120770D01*
X395879Y120725D01*
X395940Y120677D01*
X395998Y120626D01*
X396053Y120572D01*
X396106Y120515D01*
X396155Y120456D01*
X396202Y120394D01*
X396246Y120330D01*
X396286Y120264D01*
X396323Y120196D01*
X396357Y120126D01*
X396387Y120055D01*
X396413Y119982D01*
X396436Y119908D01*
X396455Y119833D01*
X396470Y119758D01*
X396482Y119681D01*
X396490Y119604D01*
X396494Y119527D01*
X396494Y119449D01*
X396490Y119372D01*
X396482Y119295D01*
X396470Y119218D01*
X396455Y119143D01*
X396436Y119068D01*
X396413Y118994D01*
X396387Y118921D01*
X396357Y118850D01*
X396323Y118780D01*
X396286Y118712D01*
X396246Y118646D01*
X396202Y118582D01*
X396155Y118520D01*
X396106Y118461D01*
X396053Y118404D01*
X395998Y118350D01*
X395940Y118299D01*
X395879Y118251D01*
X395816Y118206D01*
X395751Y118164D01*
X395684Y118125D01*
X395615Y118090D01*
X395545Y118058D01*
X395473Y118030D01*
X395399Y118005D01*
X395325Y117984D01*
X395250Y117967D01*
X395173Y117953D01*
X395097Y117944D01*
X395019Y117938D01*
X394942Y117936D01*
X396494Y123642D02*
X390906Y123642D01*
X390906Y125194D01*
X390908Y125271D01*
X390914Y125349D01*
X390923Y125425D01*
X390937Y125502D01*
X390954Y125577D01*
X390975Y125651D01*
X391000Y125725D01*
X391028Y125797D01*
X391060Y125867D01*
X391095Y125936D01*
X391134Y126003D01*
X391176Y126068D01*
X391221Y126131D01*
X391269Y126192D01*
X391320Y126250D01*
X391374Y126305D01*
X391431Y126358D01*
X391490Y126407D01*
X391552Y126454D01*
X391616Y126498D01*
X391682Y126538D01*
X391750Y126575D01*
X391820Y126609D01*
X391891Y126639D01*
X391964Y126665D01*
X392038Y126688D01*
X392113Y126707D01*
X392188Y126722D01*
X392265Y126734D01*
X392342Y126742D01*
X392419Y126746D01*
X392497Y126746D01*
X392574Y126742D01*
X392651Y126734D01*
X392728Y126722D01*
X392803Y126707D01*
X392878Y126688D01*
X392952Y126665D01*
X393025Y126639D01*
X393096Y126609D01*
X393166Y126575D01*
X393234Y126538D01*
X393300Y126498D01*
X393364Y126454D01*
X393426Y126407D01*
X393485Y126358D01*
X393542Y126305D01*
X393596Y126250D01*
X393647Y126192D01*
X393695Y126131D01*
X393740Y126068D01*
X393782Y126003D01*
X393821Y125936D01*
X393856Y125867D01*
X393888Y125797D01*
X393916Y125725D01*
X393941Y125651D01*
X393962Y125577D01*
X393979Y125502D01*
X393993Y125425D01*
X394002Y125349D01*
X394008Y125271D01*
X394010Y125194D01*
X394010Y123642D01*
X394010Y125504D02*
X396494Y126746D01*
X422681Y619506D02*
X422681Y625094D01*
X424233Y625094D01*
X424310Y625092D01*
X424388Y625086D01*
X424464Y625077D01*
X424541Y625063D01*
X424616Y625046D01*
X424690Y625025D01*
X424764Y625000D01*
X424836Y624972D01*
X424906Y624940D01*
X424975Y624905D01*
X425042Y624866D01*
X425107Y624824D01*
X425170Y624779D01*
X425231Y624731D01*
X425289Y624680D01*
X425344Y624626D01*
X425397Y624569D01*
X425446Y624510D01*
X425493Y624448D01*
X425537Y624384D01*
X425577Y624318D01*
X425614Y624250D01*
X425648Y624180D01*
X425678Y624109D01*
X425704Y624036D01*
X425727Y623962D01*
X425746Y623887D01*
X425761Y623812D01*
X425773Y623735D01*
X425781Y623658D01*
X425785Y623581D01*
X425785Y623503D01*
X425781Y623426D01*
X425773Y623349D01*
X425761Y623272D01*
X425746Y623197D01*
X425727Y623122D01*
X425704Y623048D01*
X425678Y622975D01*
X425648Y622904D01*
X425614Y622834D01*
X425577Y622766D01*
X425537Y622700D01*
X425493Y622636D01*
X425446Y622574D01*
X425397Y622515D01*
X425344Y622458D01*
X425289Y622404D01*
X425231Y622353D01*
X425170Y622305D01*
X425107Y622260D01*
X425042Y622218D01*
X424975Y622179D01*
X424906Y622144D01*
X424836Y622112D01*
X424764Y622084D01*
X424690Y622059D01*
X424616Y622038D01*
X424541Y622021D01*
X424464Y622007D01*
X424388Y621998D01*
X424310Y621992D01*
X424233Y621990D01*
X422681Y621990D01*
X424544Y621990D02*
X425785Y619506D01*
X427821Y619506D02*
X431546Y625094D01*
X427821Y625094D02*
X431546Y619506D01*
X424563Y599694D02*
X424563Y594106D01*
X423011Y599694D02*
X426115Y599694D01*
X431546Y599694D02*
X427821Y594106D01*
X431546Y594106D02*
X427821Y599694D01*
X419842Y546410D02*
X418910Y546410D01*
X419842Y546410D02*
X419842Y543306D01*
X417979Y543306D01*
X417909Y543308D01*
X417840Y543314D01*
X417771Y543324D01*
X417703Y543337D01*
X417635Y543355D01*
X417569Y543376D01*
X417504Y543401D01*
X417440Y543429D01*
X417378Y543461D01*
X417318Y543496D01*
X417260Y543535D01*
X417205Y543577D01*
X417151Y543622D01*
X417101Y543670D01*
X417053Y543720D01*
X417008Y543774D01*
X416966Y543829D01*
X416927Y543887D01*
X416892Y543947D01*
X416860Y544009D01*
X416832Y544073D01*
X416807Y544138D01*
X416786Y544204D01*
X416768Y544272D01*
X416755Y544340D01*
X416745Y544409D01*
X416739Y544478D01*
X416737Y544548D01*
X416737Y547652D01*
X416739Y547722D01*
X416745Y547791D01*
X416755Y547860D01*
X416768Y547928D01*
X416786Y547996D01*
X416807Y548062D01*
X416832Y548127D01*
X416860Y548191D01*
X416892Y548253D01*
X416927Y548313D01*
X416966Y548371D01*
X417008Y548426D01*
X417053Y548480D01*
X417101Y548530D01*
X417151Y548578D01*
X417205Y548623D01*
X417260Y548665D01*
X417318Y548704D01*
X417378Y548739D01*
X417440Y548771D01*
X417504Y548799D01*
X417569Y548824D01*
X417635Y548845D01*
X417703Y548863D01*
X417771Y548876D01*
X417840Y548886D01*
X417909Y548892D01*
X417979Y548894D01*
X419842Y548894D01*
X422589Y548894D02*
X422589Y543306D01*
X425694Y543306D02*
X422589Y548894D01*
X425694Y548894D02*
X425694Y543306D01*
X428442Y543306D02*
X428442Y548894D01*
X429994Y548894D01*
X430070Y548892D01*
X430146Y548887D01*
X430222Y548877D01*
X430297Y548864D01*
X430371Y548847D01*
X430445Y548827D01*
X430517Y548803D01*
X430588Y548776D01*
X430658Y548745D01*
X430726Y548711D01*
X430792Y548673D01*
X430856Y548632D01*
X430919Y548589D01*
X430979Y548542D01*
X431036Y548492D01*
X431091Y548439D01*
X431144Y548384D01*
X431194Y548327D01*
X431241Y548267D01*
X431284Y548204D01*
X431325Y548140D01*
X431363Y548074D01*
X431397Y548006D01*
X431428Y547936D01*
X431455Y547865D01*
X431479Y547792D01*
X431499Y547719D01*
X431516Y547645D01*
X431529Y547570D01*
X431539Y547494D01*
X431544Y547418D01*
X431546Y547342D01*
X431546Y544858D01*
X431544Y544779D01*
X431538Y544701D01*
X431528Y544623D01*
X431514Y544546D01*
X431496Y544469D01*
X431475Y544393D01*
X431449Y544319D01*
X431420Y544246D01*
X431387Y544175D01*
X431351Y544105D01*
X431311Y544037D01*
X431268Y543971D01*
X431221Y543908D01*
X431172Y543847D01*
X431119Y543789D01*
X431063Y543733D01*
X431005Y543680D01*
X430944Y543631D01*
X430881Y543584D01*
X430815Y543541D01*
X430747Y543501D01*
X430678Y543465D01*
X430606Y543432D01*
X430533Y543403D01*
X430459Y543377D01*
X430383Y543356D01*
X430306Y543338D01*
X430229Y543324D01*
X430151Y543314D01*
X430073Y543308D01*
X429994Y543306D01*
X428442Y543306D01*
X229708Y240679D02*
X225982Y240679D01*
X227845Y238816D02*
X227845Y242542D01*
X232145Y238506D02*
X234007Y238506D01*
X234077Y238508D01*
X234146Y238514D01*
X234215Y238524D01*
X234283Y238537D01*
X234351Y238555D01*
X234417Y238576D01*
X234482Y238601D01*
X234546Y238629D01*
X234608Y238661D01*
X234668Y238696D01*
X234726Y238735D01*
X234781Y238777D01*
X234835Y238822D01*
X234885Y238870D01*
X234933Y238920D01*
X234978Y238974D01*
X235020Y239029D01*
X235059Y239087D01*
X235094Y239147D01*
X235126Y239209D01*
X235154Y239273D01*
X235179Y239338D01*
X235200Y239404D01*
X235218Y239472D01*
X235231Y239540D01*
X235241Y239609D01*
X235247Y239678D01*
X235249Y239748D01*
X235249Y240369D01*
X235247Y240439D01*
X235241Y240508D01*
X235231Y240577D01*
X235218Y240645D01*
X235200Y240713D01*
X235179Y240779D01*
X235154Y240844D01*
X235126Y240908D01*
X235094Y240970D01*
X235059Y241030D01*
X235020Y241088D01*
X234978Y241143D01*
X234933Y241197D01*
X234885Y241247D01*
X234835Y241295D01*
X234781Y241340D01*
X234726Y241382D01*
X234668Y241421D01*
X234608Y241456D01*
X234546Y241488D01*
X234482Y241516D01*
X234417Y241541D01*
X234351Y241562D01*
X234283Y241580D01*
X234215Y241593D01*
X234146Y241603D01*
X234077Y241609D01*
X234007Y241611D01*
X234007Y241610D02*
X232145Y241610D01*
X232145Y244094D01*
X235249Y244094D01*
X237321Y244094D02*
X239183Y238506D01*
X241046Y244094D01*
D11*
X463734Y146939D02*
X463734Y137541D01*
X466866Y141718D02*
X463734Y146939D01*
X466866Y141718D02*
X469999Y146939D01*
X469999Y137541D01*
X473792Y137541D02*
X476925Y146939D01*
X480057Y137541D01*
X479274Y139891D02*
X474575Y139891D01*
X483763Y137541D02*
X483763Y146939D01*
X486373Y146939D01*
X486473Y146937D01*
X486573Y146931D01*
X486672Y146922D01*
X486772Y146908D01*
X486870Y146891D01*
X486968Y146870D01*
X487065Y146846D01*
X487161Y146817D01*
X487256Y146785D01*
X487349Y146750D01*
X487441Y146711D01*
X487532Y146668D01*
X487620Y146622D01*
X487707Y146572D01*
X487792Y146520D01*
X487875Y146464D01*
X487956Y146405D01*
X488034Y146342D01*
X488110Y146277D01*
X488184Y146209D01*
X488254Y146139D01*
X488322Y146065D01*
X488387Y145989D01*
X488450Y145911D01*
X488509Y145830D01*
X488565Y145747D01*
X488617Y145662D01*
X488667Y145575D01*
X488713Y145487D01*
X488756Y145396D01*
X488795Y145304D01*
X488830Y145211D01*
X488862Y145116D01*
X488891Y145020D01*
X488915Y144923D01*
X488936Y144825D01*
X488953Y144727D01*
X488967Y144627D01*
X488976Y144528D01*
X488982Y144428D01*
X488984Y144328D01*
X488984Y140152D01*
X488982Y140052D01*
X488976Y139952D01*
X488967Y139853D01*
X488953Y139753D01*
X488936Y139655D01*
X488915Y139557D01*
X488891Y139460D01*
X488862Y139364D01*
X488830Y139269D01*
X488795Y139176D01*
X488756Y139084D01*
X488713Y138993D01*
X488667Y138905D01*
X488617Y138818D01*
X488565Y138733D01*
X488509Y138650D01*
X488450Y138569D01*
X488387Y138491D01*
X488322Y138415D01*
X488254Y138341D01*
X488184Y138271D01*
X488110Y138203D01*
X488034Y138138D01*
X487956Y138075D01*
X487875Y138016D01*
X487792Y137960D01*
X487707Y137908D01*
X487620Y137858D01*
X487532Y137812D01*
X487441Y137769D01*
X487349Y137730D01*
X487256Y137695D01*
X487161Y137663D01*
X487065Y137634D01*
X486968Y137610D01*
X486870Y137589D01*
X486772Y137572D01*
X486672Y137558D01*
X486573Y137549D01*
X486473Y137543D01*
X486373Y137541D01*
X483763Y137541D01*
X493534Y137541D02*
X497711Y137541D01*
X493534Y137541D02*
X493534Y146939D01*
X497711Y146939D01*
X496667Y142762D02*
X493534Y142762D01*
X506449Y142762D02*
X509060Y142762D01*
X509060Y142763D02*
X509161Y142761D01*
X509262Y142755D01*
X509363Y142745D01*
X509463Y142732D01*
X509563Y142714D01*
X509662Y142693D01*
X509760Y142667D01*
X509857Y142638D01*
X509953Y142606D01*
X510047Y142569D01*
X510140Y142529D01*
X510232Y142485D01*
X510321Y142438D01*
X510409Y142387D01*
X510495Y142333D01*
X510578Y142276D01*
X510660Y142216D01*
X510738Y142152D01*
X510815Y142086D01*
X510888Y142016D01*
X510959Y141944D01*
X511027Y141869D01*
X511092Y141791D01*
X511154Y141711D01*
X511213Y141629D01*
X511269Y141544D01*
X511321Y141457D01*
X511370Y141369D01*
X511416Y141278D01*
X511457Y141186D01*
X511496Y141092D01*
X511530Y140997D01*
X511561Y140901D01*
X511588Y140803D01*
X511612Y140705D01*
X511631Y140605D01*
X511647Y140505D01*
X511659Y140405D01*
X511667Y140304D01*
X511671Y140203D01*
X511671Y140101D01*
X511667Y140000D01*
X511659Y139899D01*
X511647Y139799D01*
X511631Y139699D01*
X511612Y139599D01*
X511588Y139501D01*
X511561Y139403D01*
X511530Y139307D01*
X511496Y139212D01*
X511457Y139118D01*
X511416Y139026D01*
X511370Y138935D01*
X511321Y138846D01*
X511269Y138760D01*
X511213Y138675D01*
X511154Y138593D01*
X511092Y138513D01*
X511027Y138435D01*
X510959Y138360D01*
X510888Y138288D01*
X510815Y138218D01*
X510738Y138152D01*
X510660Y138088D01*
X510578Y138028D01*
X510495Y137971D01*
X510409Y137917D01*
X510321Y137866D01*
X510232Y137819D01*
X510140Y137775D01*
X510047Y137735D01*
X509953Y137698D01*
X509857Y137666D01*
X509760Y137637D01*
X509662Y137611D01*
X509563Y137590D01*
X509463Y137572D01*
X509363Y137559D01*
X509262Y137549D01*
X509161Y137543D01*
X509060Y137541D01*
X506449Y137541D01*
X506449Y146939D01*
X509060Y146939D01*
X509150Y146937D01*
X509239Y146931D01*
X509329Y146922D01*
X509418Y146908D01*
X509506Y146891D01*
X509593Y146870D01*
X509680Y146845D01*
X509765Y146816D01*
X509849Y146784D01*
X509931Y146749D01*
X510012Y146709D01*
X510091Y146667D01*
X510168Y146621D01*
X510243Y146571D01*
X510316Y146519D01*
X510387Y146463D01*
X510455Y146405D01*
X510520Y146343D01*
X510583Y146279D01*
X510643Y146212D01*
X510700Y146143D01*
X510754Y146071D01*
X510805Y145997D01*
X510853Y145921D01*
X510897Y145843D01*
X510938Y145763D01*
X510976Y145681D01*
X511010Y145598D01*
X511040Y145513D01*
X511067Y145427D01*
X511090Y145341D01*
X511109Y145253D01*
X511124Y145164D01*
X511136Y145075D01*
X511144Y144986D01*
X511148Y144896D01*
X511148Y144806D01*
X511144Y144716D01*
X511136Y144627D01*
X511124Y144538D01*
X511109Y144449D01*
X511090Y144361D01*
X511067Y144275D01*
X511040Y144189D01*
X511010Y144104D01*
X510976Y144021D01*
X510938Y143939D01*
X510897Y143859D01*
X510853Y143781D01*
X510805Y143705D01*
X510754Y143631D01*
X510700Y143559D01*
X510643Y143490D01*
X510583Y143423D01*
X510520Y143359D01*
X510455Y143297D01*
X510387Y143239D01*
X510316Y143183D01*
X510243Y143131D01*
X510168Y143081D01*
X510091Y143035D01*
X510012Y142993D01*
X509931Y142953D01*
X509849Y142918D01*
X509765Y142886D01*
X509680Y142857D01*
X509593Y142832D01*
X509506Y142811D01*
X509418Y142794D01*
X509329Y142780D01*
X509239Y142771D01*
X509150Y142765D01*
X509060Y142763D01*
X514635Y146939D02*
X517768Y142501D01*
X520900Y146939D01*
X517768Y142501D02*
X517768Y137541D01*
X477121Y131699D02*
X473988Y122301D01*
X480253Y122301D02*
X477121Y131699D01*
X479470Y124651D02*
X474771Y124651D01*
X483132Y131699D02*
X486265Y127261D01*
X489397Y131699D01*
X486265Y127261D02*
X486265Y122301D01*
X493103Y124912D02*
X493103Y131699D01*
X493102Y124912D02*
X493104Y124811D01*
X493110Y124710D01*
X493120Y124609D01*
X493133Y124509D01*
X493151Y124409D01*
X493172Y124310D01*
X493198Y124212D01*
X493227Y124115D01*
X493259Y124019D01*
X493296Y123925D01*
X493336Y123832D01*
X493380Y123740D01*
X493427Y123651D01*
X493478Y123563D01*
X493532Y123477D01*
X493589Y123394D01*
X493649Y123312D01*
X493713Y123234D01*
X493779Y123157D01*
X493849Y123084D01*
X493921Y123013D01*
X493996Y122945D01*
X494074Y122880D01*
X494154Y122818D01*
X494236Y122759D01*
X494321Y122703D01*
X494408Y122651D01*
X494496Y122602D01*
X494587Y122556D01*
X494679Y122515D01*
X494773Y122476D01*
X494868Y122442D01*
X494964Y122411D01*
X495062Y122384D01*
X495160Y122360D01*
X495260Y122341D01*
X495360Y122325D01*
X495460Y122313D01*
X495561Y122305D01*
X495662Y122301D01*
X495764Y122301D01*
X495865Y122305D01*
X495966Y122313D01*
X496066Y122325D01*
X496166Y122341D01*
X496266Y122360D01*
X496364Y122384D01*
X496462Y122411D01*
X496558Y122442D01*
X496653Y122476D01*
X496747Y122515D01*
X496839Y122556D01*
X496930Y122602D01*
X497018Y122651D01*
X497105Y122703D01*
X497190Y122759D01*
X497272Y122818D01*
X497352Y122880D01*
X497430Y122945D01*
X497505Y123013D01*
X497577Y123084D01*
X497647Y123157D01*
X497713Y123234D01*
X497777Y123312D01*
X497837Y123394D01*
X497894Y123477D01*
X497948Y123563D01*
X497999Y123651D01*
X498046Y123740D01*
X498090Y123832D01*
X498130Y123925D01*
X498167Y124019D01*
X498199Y124115D01*
X498228Y124212D01*
X498254Y124310D01*
X498275Y124409D01*
X498293Y124509D01*
X498306Y124609D01*
X498316Y124710D01*
X498322Y124811D01*
X498324Y124912D01*
X498324Y131699D01*
X507468Y124389D02*
X507466Y124300D01*
X507460Y124212D01*
X507451Y124124D01*
X507438Y124036D01*
X507421Y123949D01*
X507401Y123863D01*
X507376Y123778D01*
X507349Y123693D01*
X507317Y123610D01*
X507283Y123529D01*
X507244Y123449D01*
X507203Y123371D01*
X507158Y123294D01*
X507110Y123220D01*
X507059Y123147D01*
X507005Y123077D01*
X506947Y123010D01*
X506887Y122944D01*
X506825Y122882D01*
X506759Y122822D01*
X506692Y122764D01*
X506622Y122710D01*
X506549Y122659D01*
X506475Y122611D01*
X506398Y122566D01*
X506320Y122525D01*
X506240Y122486D01*
X506159Y122452D01*
X506076Y122420D01*
X505991Y122393D01*
X505906Y122368D01*
X505820Y122348D01*
X505733Y122331D01*
X505645Y122318D01*
X505557Y122309D01*
X505469Y122303D01*
X505380Y122301D01*
X505251Y122303D01*
X505122Y122309D01*
X504993Y122318D01*
X504865Y122331D01*
X504737Y122348D01*
X504610Y122369D01*
X504483Y122393D01*
X504357Y122421D01*
X504232Y122453D01*
X504108Y122488D01*
X503985Y122527D01*
X503863Y122570D01*
X503743Y122616D01*
X503624Y122666D01*
X503506Y122719D01*
X503390Y122775D01*
X503276Y122835D01*
X503163Y122898D01*
X503053Y122965D01*
X502944Y123034D01*
X502838Y123107D01*
X502733Y123183D01*
X502631Y123262D01*
X502532Y123344D01*
X502434Y123428D01*
X502339Y123516D01*
X502247Y123606D01*
X502508Y129611D02*
X502510Y129700D01*
X502516Y129788D01*
X502525Y129876D01*
X502538Y129964D01*
X502555Y130051D01*
X502575Y130137D01*
X502600Y130222D01*
X502627Y130307D01*
X502659Y130390D01*
X502693Y130471D01*
X502732Y130551D01*
X502773Y130629D01*
X502818Y130706D01*
X502866Y130780D01*
X502917Y130853D01*
X502971Y130923D01*
X503029Y130990D01*
X503089Y131056D01*
X503151Y131118D01*
X503217Y131178D01*
X503284Y131236D01*
X503354Y131290D01*
X503427Y131341D01*
X503501Y131389D01*
X503578Y131434D01*
X503656Y131475D01*
X503736Y131514D01*
X503817Y131548D01*
X503900Y131580D01*
X503985Y131607D01*
X504070Y131632D01*
X504156Y131652D01*
X504243Y131669D01*
X504331Y131682D01*
X504419Y131691D01*
X504507Y131697D01*
X504596Y131699D01*
X504716Y131697D01*
X504836Y131692D01*
X504956Y131682D01*
X505075Y131670D01*
X505194Y131653D01*
X505312Y131633D01*
X505430Y131609D01*
X505546Y131582D01*
X505662Y131551D01*
X505777Y131517D01*
X505891Y131479D01*
X506004Y131437D01*
X506115Y131392D01*
X506225Y131344D01*
X506333Y131293D01*
X506440Y131238D01*
X506545Y131180D01*
X506648Y131118D01*
X506749Y131054D01*
X506849Y130986D01*
X506946Y130916D01*
X503552Y127784D02*
X503474Y127832D01*
X503398Y127884D01*
X503325Y127938D01*
X503254Y127996D01*
X503185Y128057D01*
X503119Y128121D01*
X503056Y128188D01*
X502996Y128257D01*
X502939Y128329D01*
X502885Y128403D01*
X502835Y128480D01*
X502787Y128559D01*
X502744Y128639D01*
X502703Y128722D01*
X502667Y128806D01*
X502634Y128891D01*
X502605Y128978D01*
X502579Y129067D01*
X502557Y129156D01*
X502540Y129246D01*
X502526Y129336D01*
X502516Y129428D01*
X502510Y129519D01*
X502508Y129611D01*
X506424Y126216D02*
X506502Y126168D01*
X506578Y126116D01*
X506651Y126062D01*
X506722Y126004D01*
X506791Y125943D01*
X506857Y125879D01*
X506920Y125812D01*
X506980Y125743D01*
X507037Y125671D01*
X507091Y125597D01*
X507141Y125520D01*
X507189Y125441D01*
X507232Y125361D01*
X507273Y125278D01*
X507309Y125194D01*
X507342Y125109D01*
X507371Y125022D01*
X507397Y124933D01*
X507419Y124844D01*
X507436Y124754D01*
X507450Y124664D01*
X507460Y124572D01*
X507466Y124481D01*
X507468Y124389D01*
X506424Y126217D02*
X503552Y127783D01*
X511391Y131699D02*
X511391Y122301D01*
X511391Y127522D02*
X516612Y127522D01*
X516612Y131699D02*
X516612Y122301D01*
X442285Y112282D02*
X440719Y112282D01*
X442285Y112282D02*
X442285Y107061D01*
X439152Y107061D01*
X439063Y107063D01*
X438975Y107069D01*
X438887Y107078D01*
X438799Y107091D01*
X438712Y107108D01*
X438626Y107128D01*
X438541Y107153D01*
X438456Y107180D01*
X438373Y107212D01*
X438292Y107246D01*
X438212Y107285D01*
X438134Y107326D01*
X438057Y107371D01*
X437983Y107419D01*
X437910Y107470D01*
X437840Y107524D01*
X437773Y107582D01*
X437707Y107642D01*
X437645Y107704D01*
X437585Y107770D01*
X437527Y107837D01*
X437473Y107907D01*
X437422Y107980D01*
X437374Y108054D01*
X437329Y108131D01*
X437288Y108209D01*
X437249Y108289D01*
X437215Y108370D01*
X437183Y108453D01*
X437156Y108538D01*
X437131Y108623D01*
X437111Y108709D01*
X437094Y108796D01*
X437081Y108884D01*
X437072Y108972D01*
X437066Y109060D01*
X437064Y109149D01*
X437064Y114371D01*
X437066Y114462D01*
X437072Y114553D01*
X437082Y114644D01*
X437096Y114734D01*
X437113Y114823D01*
X437135Y114911D01*
X437161Y114999D01*
X437190Y115085D01*
X437223Y115170D01*
X437260Y115253D01*
X437300Y115335D01*
X437344Y115415D01*
X437391Y115493D01*
X437442Y115569D01*
X437495Y115642D01*
X437552Y115713D01*
X437613Y115782D01*
X437676Y115847D01*
X437741Y115910D01*
X437810Y115970D01*
X437881Y116028D01*
X437954Y116081D01*
X438030Y116132D01*
X438108Y116179D01*
X438188Y116223D01*
X438270Y116263D01*
X438353Y116300D01*
X438438Y116333D01*
X438524Y116362D01*
X438612Y116388D01*
X438700Y116410D01*
X438789Y116427D01*
X438879Y116441D01*
X438970Y116451D01*
X439061Y116457D01*
X439152Y116459D01*
X442285Y116459D01*
X446835Y116459D02*
X446835Y107061D01*
X451012Y107061D01*
X454437Y109672D02*
X454437Y113848D01*
X454439Y113949D01*
X454445Y114050D01*
X454455Y114151D01*
X454468Y114251D01*
X454486Y114351D01*
X454507Y114450D01*
X454533Y114548D01*
X454562Y114645D01*
X454594Y114741D01*
X454631Y114835D01*
X454671Y114928D01*
X454715Y115020D01*
X454762Y115109D01*
X454813Y115197D01*
X454867Y115283D01*
X454924Y115366D01*
X454984Y115448D01*
X455048Y115526D01*
X455114Y115603D01*
X455184Y115676D01*
X455256Y115747D01*
X455331Y115815D01*
X455409Y115880D01*
X455489Y115942D01*
X455571Y116001D01*
X455656Y116057D01*
X455743Y116109D01*
X455831Y116158D01*
X455922Y116204D01*
X456014Y116245D01*
X456108Y116284D01*
X456203Y116318D01*
X456299Y116349D01*
X456397Y116376D01*
X456495Y116400D01*
X456595Y116419D01*
X456695Y116435D01*
X456795Y116447D01*
X456896Y116455D01*
X456997Y116459D01*
X457099Y116459D01*
X457200Y116455D01*
X457301Y116447D01*
X457401Y116435D01*
X457501Y116419D01*
X457601Y116400D01*
X457699Y116376D01*
X457797Y116349D01*
X457893Y116318D01*
X457988Y116284D01*
X458082Y116245D01*
X458174Y116204D01*
X458265Y116158D01*
X458354Y116109D01*
X458440Y116057D01*
X458525Y116001D01*
X458607Y115942D01*
X458687Y115880D01*
X458765Y115815D01*
X458840Y115747D01*
X458912Y115676D01*
X458982Y115603D01*
X459048Y115526D01*
X459112Y115448D01*
X459172Y115366D01*
X459229Y115283D01*
X459283Y115197D01*
X459334Y115109D01*
X459381Y115020D01*
X459425Y114928D01*
X459465Y114835D01*
X459502Y114741D01*
X459534Y114645D01*
X459563Y114548D01*
X459589Y114450D01*
X459610Y114351D01*
X459628Y114251D01*
X459641Y114151D01*
X459651Y114050D01*
X459657Y113949D01*
X459659Y113848D01*
X459658Y113848D02*
X459658Y109672D01*
X459659Y109672D02*
X459657Y109571D01*
X459651Y109470D01*
X459641Y109369D01*
X459628Y109269D01*
X459610Y109169D01*
X459589Y109070D01*
X459563Y108972D01*
X459534Y108875D01*
X459502Y108779D01*
X459465Y108685D01*
X459425Y108592D01*
X459381Y108500D01*
X459334Y108411D01*
X459283Y108323D01*
X459229Y108237D01*
X459172Y108154D01*
X459112Y108072D01*
X459048Y107994D01*
X458982Y107917D01*
X458912Y107844D01*
X458840Y107773D01*
X458765Y107705D01*
X458687Y107640D01*
X458607Y107578D01*
X458525Y107519D01*
X458440Y107463D01*
X458353Y107411D01*
X458265Y107362D01*
X458174Y107316D01*
X458082Y107275D01*
X457988Y107236D01*
X457893Y107202D01*
X457797Y107171D01*
X457699Y107144D01*
X457601Y107120D01*
X457501Y107101D01*
X457401Y107085D01*
X457301Y107073D01*
X457200Y107065D01*
X457099Y107061D01*
X456997Y107061D01*
X456896Y107065D01*
X456795Y107073D01*
X456695Y107085D01*
X456595Y107101D01*
X456495Y107120D01*
X456397Y107144D01*
X456299Y107171D01*
X456203Y107202D01*
X456108Y107236D01*
X456014Y107275D01*
X455922Y107316D01*
X455831Y107362D01*
X455743Y107411D01*
X455656Y107463D01*
X455571Y107519D01*
X455489Y107578D01*
X455409Y107640D01*
X455331Y107705D01*
X455256Y107773D01*
X455184Y107844D01*
X455114Y107917D01*
X455048Y107994D01*
X454984Y108072D01*
X454924Y108154D01*
X454867Y108237D01*
X454813Y108323D01*
X454762Y108411D01*
X454715Y108500D01*
X454671Y108592D01*
X454631Y108685D01*
X454594Y108779D01*
X454562Y108875D01*
X454533Y108972D01*
X454507Y109070D01*
X454486Y109169D01*
X454468Y109269D01*
X454455Y109369D01*
X454445Y109470D01*
X454439Y109571D01*
X454437Y109672D01*
X464017Y112282D02*
X466628Y112282D01*
X466628Y112283D02*
X466729Y112281D01*
X466830Y112275D01*
X466931Y112265D01*
X467031Y112252D01*
X467131Y112234D01*
X467230Y112213D01*
X467328Y112187D01*
X467425Y112158D01*
X467521Y112126D01*
X467615Y112089D01*
X467708Y112049D01*
X467800Y112005D01*
X467889Y111958D01*
X467977Y111907D01*
X468063Y111853D01*
X468146Y111796D01*
X468228Y111736D01*
X468306Y111672D01*
X468383Y111606D01*
X468456Y111536D01*
X468527Y111464D01*
X468595Y111389D01*
X468660Y111311D01*
X468722Y111231D01*
X468781Y111149D01*
X468837Y111064D01*
X468889Y110977D01*
X468938Y110889D01*
X468984Y110798D01*
X469025Y110706D01*
X469064Y110612D01*
X469098Y110517D01*
X469129Y110421D01*
X469156Y110323D01*
X469180Y110225D01*
X469199Y110125D01*
X469215Y110025D01*
X469227Y109925D01*
X469235Y109824D01*
X469239Y109723D01*
X469239Y109621D01*
X469235Y109520D01*
X469227Y109419D01*
X469215Y109319D01*
X469199Y109219D01*
X469180Y109119D01*
X469156Y109021D01*
X469129Y108923D01*
X469098Y108827D01*
X469064Y108732D01*
X469025Y108638D01*
X468984Y108546D01*
X468938Y108455D01*
X468889Y108366D01*
X468837Y108280D01*
X468781Y108195D01*
X468722Y108113D01*
X468660Y108033D01*
X468595Y107955D01*
X468527Y107880D01*
X468456Y107808D01*
X468383Y107738D01*
X468306Y107672D01*
X468228Y107608D01*
X468146Y107548D01*
X468063Y107491D01*
X467977Y107437D01*
X467889Y107386D01*
X467800Y107339D01*
X467708Y107295D01*
X467615Y107255D01*
X467521Y107218D01*
X467425Y107186D01*
X467328Y107157D01*
X467230Y107131D01*
X467131Y107110D01*
X467031Y107092D01*
X466931Y107079D01*
X466830Y107069D01*
X466729Y107063D01*
X466628Y107061D01*
X464017Y107061D01*
X464017Y116459D01*
X466628Y116459D01*
X466718Y116457D01*
X466807Y116451D01*
X466897Y116442D01*
X466986Y116428D01*
X467074Y116411D01*
X467161Y116390D01*
X467248Y116365D01*
X467333Y116336D01*
X467417Y116304D01*
X467499Y116269D01*
X467580Y116229D01*
X467659Y116187D01*
X467736Y116141D01*
X467811Y116091D01*
X467884Y116039D01*
X467955Y115983D01*
X468023Y115925D01*
X468088Y115863D01*
X468151Y115799D01*
X468211Y115732D01*
X468268Y115663D01*
X468322Y115591D01*
X468373Y115517D01*
X468421Y115441D01*
X468465Y115363D01*
X468506Y115283D01*
X468544Y115201D01*
X468578Y115118D01*
X468608Y115033D01*
X468635Y114947D01*
X468658Y114861D01*
X468677Y114773D01*
X468692Y114684D01*
X468704Y114595D01*
X468712Y114506D01*
X468716Y114416D01*
X468716Y114326D01*
X468712Y114236D01*
X468704Y114147D01*
X468692Y114058D01*
X468677Y113969D01*
X468658Y113881D01*
X468635Y113795D01*
X468608Y113709D01*
X468578Y113624D01*
X468544Y113541D01*
X468506Y113459D01*
X468465Y113379D01*
X468421Y113301D01*
X468373Y113225D01*
X468322Y113151D01*
X468268Y113079D01*
X468211Y113010D01*
X468151Y112943D01*
X468088Y112879D01*
X468023Y112817D01*
X467955Y112759D01*
X467884Y112703D01*
X467811Y112651D01*
X467736Y112601D01*
X467659Y112555D01*
X467580Y112513D01*
X467499Y112473D01*
X467417Y112438D01*
X467333Y112406D01*
X467248Y112377D01*
X467161Y112352D01*
X467074Y112331D01*
X466986Y112314D01*
X466897Y112300D01*
X466807Y112291D01*
X466718Y112285D01*
X466628Y112283D01*
X472203Y107061D02*
X475336Y116459D01*
X478468Y107061D01*
X477685Y109411D02*
X472986Y109411D01*
X482191Y107061D02*
X482191Y116459D01*
X482191Y107061D02*
X486368Y107061D01*
X497499Y107061D02*
X497588Y107063D01*
X497676Y107069D01*
X497764Y107078D01*
X497852Y107091D01*
X497939Y107108D01*
X498025Y107128D01*
X498110Y107153D01*
X498195Y107180D01*
X498278Y107212D01*
X498359Y107246D01*
X498439Y107285D01*
X498517Y107326D01*
X498594Y107371D01*
X498668Y107419D01*
X498741Y107470D01*
X498811Y107524D01*
X498878Y107582D01*
X498944Y107642D01*
X499006Y107704D01*
X499066Y107770D01*
X499124Y107837D01*
X499178Y107907D01*
X499229Y107980D01*
X499277Y108054D01*
X499322Y108131D01*
X499363Y108209D01*
X499402Y108289D01*
X499436Y108370D01*
X499468Y108453D01*
X499495Y108538D01*
X499520Y108623D01*
X499540Y108709D01*
X499557Y108796D01*
X499570Y108884D01*
X499579Y108972D01*
X499585Y109060D01*
X499587Y109149D01*
X497499Y107061D02*
X497370Y107063D01*
X497241Y107069D01*
X497112Y107078D01*
X496984Y107091D01*
X496856Y107108D01*
X496729Y107129D01*
X496602Y107153D01*
X496476Y107181D01*
X496351Y107213D01*
X496227Y107248D01*
X496104Y107287D01*
X495982Y107330D01*
X495862Y107376D01*
X495743Y107426D01*
X495625Y107479D01*
X495509Y107535D01*
X495395Y107595D01*
X495282Y107658D01*
X495172Y107725D01*
X495063Y107794D01*
X494957Y107867D01*
X494852Y107943D01*
X494750Y108022D01*
X494651Y108104D01*
X494553Y108188D01*
X494458Y108276D01*
X494366Y108366D01*
X494627Y114371D02*
X494629Y114460D01*
X494635Y114548D01*
X494644Y114636D01*
X494657Y114724D01*
X494674Y114811D01*
X494694Y114897D01*
X494719Y114982D01*
X494746Y115067D01*
X494778Y115150D01*
X494812Y115231D01*
X494851Y115311D01*
X494892Y115389D01*
X494937Y115466D01*
X494985Y115540D01*
X495036Y115613D01*
X495090Y115683D01*
X495148Y115750D01*
X495208Y115816D01*
X495270Y115878D01*
X495336Y115938D01*
X495403Y115996D01*
X495473Y116050D01*
X495546Y116101D01*
X495620Y116149D01*
X495697Y116194D01*
X495775Y116235D01*
X495855Y116274D01*
X495936Y116308D01*
X496019Y116340D01*
X496104Y116367D01*
X496189Y116392D01*
X496275Y116412D01*
X496362Y116429D01*
X496450Y116442D01*
X496538Y116451D01*
X496626Y116457D01*
X496715Y116459D01*
X496835Y116457D01*
X496955Y116452D01*
X497075Y116442D01*
X497194Y116430D01*
X497313Y116413D01*
X497431Y116393D01*
X497549Y116369D01*
X497665Y116342D01*
X497781Y116311D01*
X497896Y116277D01*
X498010Y116239D01*
X498123Y116197D01*
X498234Y116152D01*
X498344Y116104D01*
X498452Y116053D01*
X498559Y115998D01*
X498664Y115940D01*
X498767Y115878D01*
X498868Y115814D01*
X498968Y115746D01*
X499065Y115676D01*
X495671Y112544D02*
X495593Y112592D01*
X495517Y112644D01*
X495444Y112698D01*
X495373Y112756D01*
X495304Y112817D01*
X495238Y112881D01*
X495175Y112948D01*
X495115Y113017D01*
X495058Y113089D01*
X495004Y113163D01*
X494954Y113240D01*
X494906Y113319D01*
X494863Y113399D01*
X494822Y113482D01*
X494786Y113566D01*
X494753Y113651D01*
X494724Y113738D01*
X494698Y113827D01*
X494676Y113916D01*
X494659Y114006D01*
X494645Y114096D01*
X494635Y114188D01*
X494629Y114279D01*
X494627Y114371D01*
X498543Y110976D02*
X498621Y110928D01*
X498697Y110876D01*
X498770Y110822D01*
X498841Y110764D01*
X498910Y110703D01*
X498976Y110639D01*
X499039Y110572D01*
X499099Y110503D01*
X499156Y110431D01*
X499210Y110357D01*
X499260Y110280D01*
X499308Y110201D01*
X499351Y110121D01*
X499392Y110038D01*
X499428Y109954D01*
X499461Y109869D01*
X499490Y109782D01*
X499516Y109693D01*
X499538Y109604D01*
X499555Y109514D01*
X499569Y109424D01*
X499579Y109332D01*
X499585Y109241D01*
X499587Y109149D01*
X498543Y110977D02*
X495671Y112543D01*
X503510Y116459D02*
X503510Y107061D01*
X503510Y112282D02*
X508731Y112282D01*
X508731Y116459D02*
X508731Y107061D01*
X512436Y107061D02*
X515569Y116459D01*
X518702Y107061D01*
X517919Y109411D02*
X513220Y109411D01*
X522539Y107061D02*
X522539Y116459D01*
X525149Y116459D01*
X525250Y116457D01*
X525351Y116451D01*
X525452Y116441D01*
X525552Y116428D01*
X525652Y116410D01*
X525751Y116389D01*
X525849Y116363D01*
X525946Y116334D01*
X526042Y116302D01*
X526136Y116265D01*
X526229Y116225D01*
X526321Y116181D01*
X526410Y116134D01*
X526498Y116083D01*
X526584Y116029D01*
X526667Y115972D01*
X526749Y115912D01*
X526827Y115848D01*
X526904Y115782D01*
X526977Y115712D01*
X527048Y115640D01*
X527116Y115565D01*
X527181Y115487D01*
X527243Y115407D01*
X527302Y115325D01*
X527358Y115240D01*
X527410Y115153D01*
X527459Y115065D01*
X527505Y114974D01*
X527546Y114882D01*
X527585Y114788D01*
X527619Y114693D01*
X527650Y114597D01*
X527677Y114499D01*
X527701Y114401D01*
X527720Y114301D01*
X527736Y114201D01*
X527748Y114101D01*
X527756Y114000D01*
X527760Y113899D01*
X527760Y113797D01*
X527756Y113696D01*
X527748Y113595D01*
X527736Y113495D01*
X527720Y113395D01*
X527701Y113295D01*
X527677Y113197D01*
X527650Y113099D01*
X527619Y113003D01*
X527585Y112908D01*
X527546Y112814D01*
X527505Y112722D01*
X527459Y112631D01*
X527410Y112542D01*
X527358Y112456D01*
X527302Y112371D01*
X527243Y112289D01*
X527181Y112209D01*
X527116Y112131D01*
X527048Y112056D01*
X526977Y111984D01*
X526904Y111914D01*
X526827Y111848D01*
X526749Y111784D01*
X526667Y111724D01*
X526584Y111667D01*
X526498Y111613D01*
X526410Y111562D01*
X526321Y111515D01*
X526229Y111471D01*
X526136Y111431D01*
X526042Y111394D01*
X525946Y111362D01*
X525849Y111333D01*
X525751Y111307D01*
X525652Y111286D01*
X525552Y111268D01*
X525452Y111255D01*
X525351Y111245D01*
X525250Y111239D01*
X525149Y111237D01*
X525149Y111238D02*
X522539Y111238D01*
X531569Y107061D02*
X535746Y107061D01*
X531569Y107061D02*
X531569Y116459D01*
X535746Y116459D01*
X534701Y112282D02*
X531569Y112282D01*
X539533Y116459D02*
X539533Y107061D01*
X539533Y116459D02*
X542144Y116459D01*
X542245Y116457D01*
X542346Y116451D01*
X542447Y116441D01*
X542547Y116428D01*
X542647Y116410D01*
X542746Y116389D01*
X542844Y116363D01*
X542941Y116334D01*
X543037Y116302D01*
X543131Y116265D01*
X543224Y116225D01*
X543316Y116181D01*
X543405Y116134D01*
X543493Y116083D01*
X543579Y116029D01*
X543662Y115972D01*
X543744Y115912D01*
X543822Y115848D01*
X543899Y115782D01*
X543972Y115712D01*
X544043Y115640D01*
X544111Y115565D01*
X544176Y115487D01*
X544238Y115407D01*
X544297Y115325D01*
X544353Y115240D01*
X544405Y115153D01*
X544454Y115065D01*
X544500Y114974D01*
X544541Y114882D01*
X544580Y114788D01*
X544614Y114693D01*
X544645Y114597D01*
X544672Y114499D01*
X544696Y114401D01*
X544715Y114301D01*
X544731Y114201D01*
X544743Y114101D01*
X544751Y114000D01*
X544755Y113899D01*
X544755Y113797D01*
X544751Y113696D01*
X544743Y113595D01*
X544731Y113495D01*
X544715Y113395D01*
X544696Y113295D01*
X544672Y113197D01*
X544645Y113099D01*
X544614Y113003D01*
X544580Y112908D01*
X544541Y112814D01*
X544500Y112722D01*
X544454Y112631D01*
X544405Y112542D01*
X544353Y112456D01*
X544297Y112371D01*
X544238Y112289D01*
X544176Y112209D01*
X544111Y112131D01*
X544043Y112056D01*
X543972Y111984D01*
X543899Y111914D01*
X543822Y111848D01*
X543744Y111784D01*
X543662Y111724D01*
X543579Y111667D01*
X543493Y111613D01*
X543405Y111562D01*
X543316Y111515D01*
X543224Y111471D01*
X543131Y111431D01*
X543037Y111394D01*
X542941Y111362D01*
X542844Y111333D01*
X542746Y111307D01*
X542647Y111286D01*
X542547Y111268D01*
X542447Y111255D01*
X542346Y111245D01*
X542245Y111239D01*
X542144Y111237D01*
X542144Y111238D02*
X539533Y111238D01*
X542666Y111238D02*
X544754Y107061D01*
X551448Y107061D02*
X551537Y107063D01*
X551625Y107069D01*
X551713Y107078D01*
X551801Y107091D01*
X551888Y107108D01*
X551974Y107128D01*
X552059Y107153D01*
X552144Y107180D01*
X552227Y107212D01*
X552308Y107246D01*
X552388Y107285D01*
X552466Y107326D01*
X552543Y107371D01*
X552617Y107419D01*
X552690Y107470D01*
X552760Y107524D01*
X552827Y107582D01*
X552893Y107642D01*
X552955Y107704D01*
X553015Y107770D01*
X553073Y107837D01*
X553127Y107907D01*
X553178Y107980D01*
X553226Y108054D01*
X553271Y108131D01*
X553312Y108209D01*
X553351Y108289D01*
X553385Y108370D01*
X553417Y108453D01*
X553444Y108538D01*
X553469Y108623D01*
X553489Y108709D01*
X553506Y108796D01*
X553519Y108884D01*
X553528Y108972D01*
X553534Y109060D01*
X553536Y109149D01*
X551448Y107061D02*
X551319Y107063D01*
X551190Y107069D01*
X551061Y107078D01*
X550933Y107091D01*
X550805Y107108D01*
X550678Y107129D01*
X550551Y107153D01*
X550425Y107181D01*
X550300Y107213D01*
X550176Y107248D01*
X550053Y107287D01*
X549931Y107330D01*
X549811Y107376D01*
X549692Y107426D01*
X549574Y107479D01*
X549458Y107535D01*
X549344Y107595D01*
X549231Y107658D01*
X549121Y107725D01*
X549012Y107794D01*
X548906Y107867D01*
X548801Y107943D01*
X548699Y108022D01*
X548600Y108104D01*
X548502Y108188D01*
X548407Y108276D01*
X548315Y108366D01*
X548577Y114371D02*
X548579Y114460D01*
X548585Y114548D01*
X548594Y114636D01*
X548607Y114724D01*
X548624Y114811D01*
X548644Y114897D01*
X548669Y114982D01*
X548696Y115067D01*
X548728Y115150D01*
X548762Y115231D01*
X548801Y115311D01*
X548842Y115389D01*
X548887Y115466D01*
X548935Y115540D01*
X548986Y115613D01*
X549040Y115683D01*
X549098Y115750D01*
X549158Y115816D01*
X549220Y115878D01*
X549286Y115938D01*
X549353Y115996D01*
X549423Y116050D01*
X549496Y116101D01*
X549570Y116149D01*
X549647Y116194D01*
X549725Y116235D01*
X549805Y116274D01*
X549886Y116308D01*
X549969Y116340D01*
X550054Y116367D01*
X550139Y116392D01*
X550225Y116412D01*
X550312Y116429D01*
X550400Y116442D01*
X550488Y116451D01*
X550576Y116457D01*
X550665Y116459D01*
X550785Y116457D01*
X550905Y116452D01*
X551025Y116442D01*
X551144Y116430D01*
X551263Y116413D01*
X551381Y116393D01*
X551499Y116369D01*
X551615Y116342D01*
X551731Y116311D01*
X551846Y116277D01*
X551960Y116239D01*
X552073Y116197D01*
X552184Y116152D01*
X552294Y116104D01*
X552402Y116053D01*
X552509Y115998D01*
X552614Y115940D01*
X552717Y115878D01*
X552818Y115814D01*
X552918Y115746D01*
X553015Y115676D01*
X549620Y112544D02*
X549542Y112592D01*
X549466Y112644D01*
X549393Y112698D01*
X549322Y112756D01*
X549253Y112817D01*
X549187Y112881D01*
X549124Y112948D01*
X549064Y113017D01*
X549007Y113089D01*
X548953Y113163D01*
X548903Y113240D01*
X548855Y113319D01*
X548812Y113399D01*
X548771Y113482D01*
X548735Y113566D01*
X548702Y113651D01*
X548673Y113738D01*
X548647Y113827D01*
X548625Y113916D01*
X548608Y114006D01*
X548594Y114096D01*
X548584Y114188D01*
X548578Y114279D01*
X548576Y114371D01*
X552492Y110976D02*
X552570Y110928D01*
X552646Y110876D01*
X552719Y110822D01*
X552790Y110764D01*
X552859Y110703D01*
X552925Y110639D01*
X552988Y110572D01*
X553048Y110503D01*
X553105Y110431D01*
X553159Y110357D01*
X553209Y110280D01*
X553257Y110201D01*
X553300Y110121D01*
X553341Y110038D01*
X553377Y109954D01*
X553410Y109869D01*
X553439Y109782D01*
X553465Y109693D01*
X553487Y109604D01*
X553504Y109514D01*
X553518Y109424D01*
X553528Y109332D01*
X553534Y109241D01*
X553536Y109149D01*
X552492Y110977D02*
X549620Y112543D01*
X434604Y160401D02*
X437736Y169799D01*
X440869Y160401D01*
X440086Y162751D02*
X435387Y162751D01*
X445051Y160401D02*
X445051Y169799D01*
X444007Y160401D02*
X446096Y160401D01*
X446096Y169799D02*
X444007Y169799D01*
X450118Y169799D02*
X450118Y160401D01*
X450118Y169799D02*
X452728Y169799D01*
X452829Y169797D01*
X452930Y169791D01*
X453031Y169781D01*
X453131Y169768D01*
X453231Y169750D01*
X453330Y169729D01*
X453428Y169703D01*
X453525Y169674D01*
X453621Y169642D01*
X453715Y169605D01*
X453808Y169565D01*
X453900Y169521D01*
X453989Y169474D01*
X454077Y169423D01*
X454163Y169369D01*
X454246Y169312D01*
X454328Y169252D01*
X454406Y169188D01*
X454483Y169122D01*
X454556Y169052D01*
X454627Y168980D01*
X454695Y168905D01*
X454760Y168827D01*
X454822Y168747D01*
X454881Y168665D01*
X454937Y168580D01*
X454989Y168493D01*
X455038Y168405D01*
X455084Y168314D01*
X455125Y168222D01*
X455164Y168128D01*
X455198Y168033D01*
X455229Y167937D01*
X455256Y167839D01*
X455280Y167741D01*
X455299Y167641D01*
X455315Y167541D01*
X455327Y167441D01*
X455335Y167340D01*
X455339Y167239D01*
X455339Y167137D01*
X455335Y167036D01*
X455327Y166935D01*
X455315Y166835D01*
X455299Y166735D01*
X455280Y166635D01*
X455256Y166537D01*
X455229Y166439D01*
X455198Y166343D01*
X455164Y166248D01*
X455125Y166154D01*
X455084Y166062D01*
X455038Y165971D01*
X454989Y165882D01*
X454937Y165796D01*
X454881Y165711D01*
X454822Y165629D01*
X454760Y165549D01*
X454695Y165471D01*
X454627Y165396D01*
X454556Y165324D01*
X454483Y165254D01*
X454406Y165188D01*
X454328Y165124D01*
X454246Y165064D01*
X454163Y165007D01*
X454077Y164953D01*
X453989Y164902D01*
X453900Y164855D01*
X453808Y164811D01*
X453715Y164771D01*
X453621Y164734D01*
X453525Y164702D01*
X453428Y164673D01*
X453330Y164647D01*
X453231Y164626D01*
X453131Y164608D01*
X453031Y164595D01*
X452930Y164585D01*
X452829Y164579D01*
X452728Y164577D01*
X452728Y164578D02*
X450118Y164578D01*
X453250Y164578D02*
X455339Y160401D01*
X464517Y160401D02*
X464517Y169799D01*
X467128Y169799D01*
X467229Y169797D01*
X467330Y169791D01*
X467431Y169781D01*
X467531Y169768D01*
X467631Y169750D01*
X467730Y169729D01*
X467828Y169703D01*
X467925Y169674D01*
X468021Y169642D01*
X468115Y169605D01*
X468208Y169565D01*
X468300Y169521D01*
X468389Y169474D01*
X468477Y169423D01*
X468563Y169369D01*
X468646Y169312D01*
X468728Y169252D01*
X468806Y169188D01*
X468883Y169122D01*
X468956Y169052D01*
X469027Y168980D01*
X469095Y168905D01*
X469160Y168827D01*
X469222Y168747D01*
X469281Y168665D01*
X469337Y168580D01*
X469389Y168493D01*
X469438Y168405D01*
X469484Y168314D01*
X469525Y168222D01*
X469564Y168128D01*
X469598Y168033D01*
X469629Y167937D01*
X469656Y167839D01*
X469680Y167741D01*
X469699Y167641D01*
X469715Y167541D01*
X469727Y167441D01*
X469735Y167340D01*
X469739Y167239D01*
X469739Y167137D01*
X469735Y167036D01*
X469727Y166935D01*
X469715Y166835D01*
X469699Y166735D01*
X469680Y166635D01*
X469656Y166537D01*
X469629Y166439D01*
X469598Y166343D01*
X469564Y166248D01*
X469525Y166154D01*
X469484Y166062D01*
X469438Y165971D01*
X469389Y165882D01*
X469337Y165796D01*
X469281Y165711D01*
X469222Y165629D01*
X469160Y165549D01*
X469095Y165471D01*
X469027Y165396D01*
X468956Y165324D01*
X468883Y165254D01*
X468806Y165188D01*
X468728Y165124D01*
X468646Y165064D01*
X468563Y165007D01*
X468477Y164953D01*
X468389Y164902D01*
X468300Y164855D01*
X468208Y164811D01*
X468115Y164771D01*
X468021Y164734D01*
X467925Y164702D01*
X467828Y164673D01*
X467730Y164647D01*
X467631Y164626D01*
X467531Y164608D01*
X467431Y164595D01*
X467330Y164585D01*
X467229Y164579D01*
X467128Y164577D01*
X467128Y164578D02*
X464517Y164578D01*
X473530Y163012D02*
X473530Y169799D01*
X473530Y163012D02*
X473532Y162911D01*
X473538Y162810D01*
X473548Y162709D01*
X473561Y162609D01*
X473579Y162509D01*
X473600Y162410D01*
X473626Y162312D01*
X473655Y162215D01*
X473687Y162119D01*
X473724Y162025D01*
X473764Y161932D01*
X473808Y161840D01*
X473855Y161751D01*
X473906Y161663D01*
X473960Y161577D01*
X474017Y161494D01*
X474077Y161412D01*
X474141Y161334D01*
X474207Y161257D01*
X474277Y161184D01*
X474349Y161113D01*
X474424Y161045D01*
X474502Y160980D01*
X474582Y160918D01*
X474664Y160859D01*
X474749Y160803D01*
X474836Y160751D01*
X474924Y160702D01*
X475015Y160656D01*
X475107Y160615D01*
X475201Y160576D01*
X475296Y160542D01*
X475392Y160511D01*
X475490Y160484D01*
X475588Y160460D01*
X475688Y160441D01*
X475788Y160425D01*
X475888Y160413D01*
X475989Y160405D01*
X476090Y160401D01*
X476192Y160401D01*
X476293Y160405D01*
X476394Y160413D01*
X476494Y160425D01*
X476594Y160441D01*
X476694Y160460D01*
X476792Y160484D01*
X476890Y160511D01*
X476986Y160542D01*
X477081Y160576D01*
X477175Y160615D01*
X477267Y160656D01*
X477358Y160702D01*
X477446Y160751D01*
X477533Y160803D01*
X477618Y160859D01*
X477700Y160918D01*
X477780Y160980D01*
X477858Y161045D01*
X477933Y161113D01*
X478005Y161184D01*
X478075Y161257D01*
X478141Y161334D01*
X478205Y161412D01*
X478265Y161494D01*
X478322Y161577D01*
X478376Y161663D01*
X478427Y161751D01*
X478474Y161840D01*
X478518Y161932D01*
X478558Y162025D01*
X478595Y162119D01*
X478627Y162215D01*
X478656Y162312D01*
X478682Y162410D01*
X478703Y162509D01*
X478721Y162609D01*
X478734Y162709D01*
X478744Y162810D01*
X478750Y162911D01*
X478752Y163012D01*
X478751Y163012D02*
X478751Y169799D01*
X483341Y169799D02*
X483341Y160401D01*
X483341Y169799D02*
X485951Y169799D01*
X486052Y169797D01*
X486153Y169791D01*
X486254Y169781D01*
X486354Y169768D01*
X486454Y169750D01*
X486553Y169729D01*
X486651Y169703D01*
X486748Y169674D01*
X486844Y169642D01*
X486938Y169605D01*
X487031Y169565D01*
X487123Y169521D01*
X487212Y169474D01*
X487300Y169423D01*
X487386Y169369D01*
X487469Y169312D01*
X487551Y169252D01*
X487629Y169188D01*
X487706Y169122D01*
X487779Y169052D01*
X487850Y168980D01*
X487918Y168905D01*
X487983Y168827D01*
X488045Y168747D01*
X488104Y168665D01*
X488160Y168580D01*
X488212Y168493D01*
X488261Y168405D01*
X488307Y168314D01*
X488348Y168222D01*
X488387Y168128D01*
X488421Y168033D01*
X488452Y167937D01*
X488479Y167839D01*
X488503Y167741D01*
X488522Y167641D01*
X488538Y167541D01*
X488550Y167441D01*
X488558Y167340D01*
X488562Y167239D01*
X488562Y167137D01*
X488558Y167036D01*
X488550Y166935D01*
X488538Y166835D01*
X488522Y166735D01*
X488503Y166635D01*
X488479Y166537D01*
X488452Y166439D01*
X488421Y166343D01*
X488387Y166248D01*
X488348Y166154D01*
X488307Y166062D01*
X488261Y165971D01*
X488212Y165882D01*
X488160Y165796D01*
X488104Y165711D01*
X488045Y165629D01*
X487983Y165549D01*
X487918Y165471D01*
X487850Y165396D01*
X487779Y165324D01*
X487706Y165254D01*
X487629Y165188D01*
X487551Y165124D01*
X487469Y165064D01*
X487386Y165007D01*
X487300Y164953D01*
X487212Y164902D01*
X487123Y164855D01*
X487031Y164811D01*
X486938Y164771D01*
X486844Y164734D01*
X486748Y164702D01*
X486651Y164673D01*
X486553Y164647D01*
X486454Y164626D01*
X486354Y164608D01*
X486254Y164595D01*
X486153Y164585D01*
X486052Y164579D01*
X485951Y164577D01*
X485951Y164578D02*
X483341Y164578D01*
X486474Y164578D02*
X488562Y160401D01*
X493210Y160401D02*
X493210Y169799D01*
X492165Y160401D02*
X494254Y160401D01*
X494254Y169799D02*
X492165Y169799D01*
X498236Y169799D02*
X498236Y160401D01*
X498236Y169799D02*
X502413Y169799D01*
X502413Y165622D02*
X498236Y165622D01*
X506621Y169799D02*
X506621Y160401D01*
X507665Y160401D02*
X505576Y160401D01*
X505576Y169799D02*
X507665Y169799D01*
X511648Y160401D02*
X515824Y160401D01*
X511648Y160401D02*
X511648Y169799D01*
X515824Y169799D01*
X514780Y165622D02*
X511648Y165622D01*
X519612Y169799D02*
X519612Y160401D01*
X519612Y169799D02*
X522222Y169799D01*
X522323Y169797D01*
X522424Y169791D01*
X522525Y169781D01*
X522625Y169768D01*
X522725Y169750D01*
X522824Y169729D01*
X522922Y169703D01*
X523019Y169674D01*
X523115Y169642D01*
X523209Y169605D01*
X523302Y169565D01*
X523394Y169521D01*
X523483Y169474D01*
X523571Y169423D01*
X523657Y169369D01*
X523740Y169312D01*
X523822Y169252D01*
X523900Y169188D01*
X523977Y169122D01*
X524050Y169052D01*
X524121Y168980D01*
X524189Y168905D01*
X524254Y168827D01*
X524316Y168747D01*
X524375Y168665D01*
X524431Y168580D01*
X524483Y168493D01*
X524532Y168405D01*
X524578Y168314D01*
X524619Y168222D01*
X524658Y168128D01*
X524692Y168033D01*
X524723Y167937D01*
X524750Y167839D01*
X524774Y167741D01*
X524793Y167641D01*
X524809Y167541D01*
X524821Y167441D01*
X524829Y167340D01*
X524833Y167239D01*
X524833Y167137D01*
X524829Y167036D01*
X524821Y166935D01*
X524809Y166835D01*
X524793Y166735D01*
X524774Y166635D01*
X524750Y166537D01*
X524723Y166439D01*
X524692Y166343D01*
X524658Y166248D01*
X524619Y166154D01*
X524578Y166062D01*
X524532Y165971D01*
X524483Y165882D01*
X524431Y165796D01*
X524375Y165711D01*
X524316Y165629D01*
X524254Y165549D01*
X524189Y165471D01*
X524121Y165396D01*
X524050Y165324D01*
X523977Y165254D01*
X523900Y165188D01*
X523822Y165124D01*
X523740Y165064D01*
X523657Y165007D01*
X523571Y164953D01*
X523483Y164902D01*
X523394Y164855D01*
X523302Y164811D01*
X523209Y164771D01*
X523115Y164734D01*
X523019Y164702D01*
X522922Y164673D01*
X522824Y164647D01*
X522725Y164626D01*
X522625Y164608D01*
X522525Y164595D01*
X522424Y164585D01*
X522323Y164579D01*
X522222Y164577D01*
X522222Y164578D02*
X519612Y164578D01*
X522745Y164578D02*
X524833Y160401D01*
X534012Y160401D02*
X534012Y169799D01*
X536622Y169799D01*
X536723Y169797D01*
X536824Y169791D01*
X536925Y169781D01*
X537025Y169768D01*
X537125Y169750D01*
X537224Y169729D01*
X537322Y169703D01*
X537419Y169674D01*
X537515Y169642D01*
X537609Y169605D01*
X537702Y169565D01*
X537794Y169521D01*
X537883Y169474D01*
X537971Y169423D01*
X538057Y169369D01*
X538140Y169312D01*
X538222Y169252D01*
X538300Y169188D01*
X538377Y169122D01*
X538450Y169052D01*
X538521Y168980D01*
X538589Y168905D01*
X538654Y168827D01*
X538716Y168747D01*
X538775Y168665D01*
X538831Y168580D01*
X538883Y168493D01*
X538932Y168405D01*
X538978Y168314D01*
X539019Y168222D01*
X539058Y168128D01*
X539092Y168033D01*
X539123Y167937D01*
X539150Y167839D01*
X539174Y167741D01*
X539193Y167641D01*
X539209Y167541D01*
X539221Y167441D01*
X539229Y167340D01*
X539233Y167239D01*
X539233Y167137D01*
X539229Y167036D01*
X539221Y166935D01*
X539209Y166835D01*
X539193Y166735D01*
X539174Y166635D01*
X539150Y166537D01*
X539123Y166439D01*
X539092Y166343D01*
X539058Y166248D01*
X539019Y166154D01*
X538978Y166062D01*
X538932Y165971D01*
X538883Y165882D01*
X538831Y165796D01*
X538775Y165711D01*
X538716Y165629D01*
X538654Y165549D01*
X538589Y165471D01*
X538521Y165396D01*
X538450Y165324D01*
X538377Y165254D01*
X538300Y165188D01*
X538222Y165124D01*
X538140Y165064D01*
X538057Y165007D01*
X537971Y164953D01*
X537883Y164902D01*
X537794Y164855D01*
X537702Y164811D01*
X537609Y164771D01*
X537515Y164734D01*
X537419Y164702D01*
X537322Y164673D01*
X537224Y164647D01*
X537125Y164626D01*
X537025Y164608D01*
X536925Y164595D01*
X536824Y164585D01*
X536723Y164579D01*
X536622Y164577D01*
X536622Y164578D02*
X534012Y164578D01*
X544782Y160401D02*
X546871Y160401D01*
X544782Y160401D02*
X544693Y160403D01*
X544605Y160409D01*
X544517Y160418D01*
X544429Y160431D01*
X544342Y160448D01*
X544256Y160468D01*
X544171Y160493D01*
X544086Y160520D01*
X544003Y160552D01*
X543922Y160586D01*
X543842Y160625D01*
X543764Y160666D01*
X543687Y160711D01*
X543613Y160759D01*
X543540Y160810D01*
X543470Y160864D01*
X543403Y160922D01*
X543337Y160982D01*
X543275Y161044D01*
X543215Y161110D01*
X543157Y161177D01*
X543103Y161247D01*
X543052Y161320D01*
X543004Y161394D01*
X542959Y161471D01*
X542918Y161549D01*
X542879Y161629D01*
X542845Y161710D01*
X542813Y161793D01*
X542786Y161878D01*
X542761Y161963D01*
X542741Y162049D01*
X542724Y162136D01*
X542711Y162224D01*
X542702Y162312D01*
X542696Y162400D01*
X542694Y162489D01*
X542694Y167711D01*
X542696Y167802D01*
X542702Y167893D01*
X542712Y167984D01*
X542726Y168074D01*
X542743Y168163D01*
X542765Y168251D01*
X542791Y168339D01*
X542820Y168425D01*
X542853Y168510D01*
X542890Y168593D01*
X542930Y168675D01*
X542974Y168755D01*
X543021Y168833D01*
X543072Y168909D01*
X543125Y168982D01*
X543182Y169053D01*
X543243Y169122D01*
X543306Y169187D01*
X543371Y169250D01*
X543440Y169310D01*
X543511Y169368D01*
X543584Y169421D01*
X543660Y169472D01*
X543738Y169519D01*
X543818Y169563D01*
X543900Y169603D01*
X543983Y169640D01*
X544068Y169673D01*
X544154Y169702D01*
X544242Y169728D01*
X544330Y169750D01*
X544419Y169767D01*
X544509Y169781D01*
X544600Y169791D01*
X544691Y169797D01*
X544782Y169799D01*
X546871Y169799D01*
X550775Y165622D02*
X553386Y165622D01*
X553386Y165623D02*
X553487Y165621D01*
X553588Y165615D01*
X553689Y165605D01*
X553789Y165592D01*
X553889Y165574D01*
X553988Y165553D01*
X554086Y165527D01*
X554183Y165498D01*
X554279Y165466D01*
X554373Y165429D01*
X554466Y165389D01*
X554558Y165345D01*
X554647Y165298D01*
X554735Y165247D01*
X554821Y165193D01*
X554904Y165136D01*
X554986Y165076D01*
X555064Y165012D01*
X555141Y164946D01*
X555214Y164876D01*
X555285Y164804D01*
X555353Y164729D01*
X555418Y164651D01*
X555480Y164571D01*
X555539Y164489D01*
X555595Y164404D01*
X555647Y164317D01*
X555696Y164229D01*
X555742Y164138D01*
X555783Y164046D01*
X555822Y163952D01*
X555856Y163857D01*
X555887Y163761D01*
X555914Y163663D01*
X555938Y163565D01*
X555957Y163465D01*
X555973Y163365D01*
X555985Y163265D01*
X555993Y163164D01*
X555997Y163063D01*
X555997Y162961D01*
X555993Y162860D01*
X555985Y162759D01*
X555973Y162659D01*
X555957Y162559D01*
X555938Y162459D01*
X555914Y162361D01*
X555887Y162263D01*
X555856Y162167D01*
X555822Y162072D01*
X555783Y161978D01*
X555742Y161886D01*
X555696Y161795D01*
X555647Y161706D01*
X555595Y161620D01*
X555539Y161535D01*
X555480Y161453D01*
X555418Y161373D01*
X555353Y161295D01*
X555285Y161220D01*
X555214Y161148D01*
X555141Y161078D01*
X555064Y161012D01*
X554986Y160948D01*
X554904Y160888D01*
X554821Y160831D01*
X554735Y160777D01*
X554647Y160726D01*
X554558Y160679D01*
X554466Y160635D01*
X554373Y160595D01*
X554279Y160558D01*
X554183Y160526D01*
X554086Y160497D01*
X553988Y160471D01*
X553889Y160450D01*
X553789Y160432D01*
X553689Y160419D01*
X553588Y160409D01*
X553487Y160403D01*
X553386Y160401D01*
X550775Y160401D01*
X550775Y169799D01*
X553386Y169799D01*
X553476Y169797D01*
X553565Y169791D01*
X553655Y169782D01*
X553744Y169768D01*
X553832Y169751D01*
X553919Y169730D01*
X554006Y169705D01*
X554091Y169676D01*
X554175Y169644D01*
X554257Y169609D01*
X554338Y169569D01*
X554417Y169527D01*
X554494Y169481D01*
X554569Y169431D01*
X554642Y169379D01*
X554713Y169323D01*
X554781Y169265D01*
X554846Y169203D01*
X554909Y169139D01*
X554969Y169072D01*
X555026Y169003D01*
X555080Y168931D01*
X555131Y168857D01*
X555179Y168781D01*
X555223Y168703D01*
X555264Y168623D01*
X555302Y168541D01*
X555336Y168458D01*
X555366Y168373D01*
X555393Y168287D01*
X555416Y168201D01*
X555435Y168113D01*
X555450Y168024D01*
X555462Y167935D01*
X555470Y167846D01*
X555474Y167756D01*
X555474Y167666D01*
X555470Y167576D01*
X555462Y167487D01*
X555450Y167398D01*
X555435Y167309D01*
X555416Y167221D01*
X555393Y167135D01*
X555366Y167049D01*
X555336Y166964D01*
X555302Y166881D01*
X555264Y166799D01*
X555223Y166719D01*
X555179Y166641D01*
X555131Y166565D01*
X555080Y166491D01*
X555026Y166419D01*
X554969Y166350D01*
X554909Y166283D01*
X554846Y166219D01*
X554781Y166157D01*
X554713Y166099D01*
X554642Y166043D01*
X554569Y165991D01*
X554494Y165941D01*
X554417Y165895D01*
X554338Y165853D01*
X554257Y165813D01*
X554175Y165778D01*
X554091Y165746D01*
X554006Y165717D01*
X553919Y165692D01*
X553832Y165671D01*
X553744Y165654D01*
X553655Y165640D01*
X553565Y165631D01*
X553476Y165625D01*
X553386Y165623D01*
D12*
X558800Y438150D02*
X558800Y450850D01*
X565150Y457200D01*
X577850Y457200D02*
X584200Y450850D01*
X565150Y457200D02*
X558800Y463550D01*
X558800Y476250D01*
X565150Y482600D01*
X577850Y482600D02*
X584200Y476250D01*
X584200Y463550D01*
X577850Y457200D01*
X558800Y412750D02*
X565150Y406400D01*
X558800Y412750D02*
X558800Y425450D01*
X565150Y431800D01*
X577850Y431800D02*
X584200Y425450D01*
X584200Y412750D01*
X577850Y406400D01*
X565150Y431800D02*
X558800Y438150D01*
X577850Y431800D02*
X584200Y438150D01*
X584200Y450850D01*
X558800Y374650D02*
X558800Y361950D01*
X558800Y374650D02*
X565150Y381000D01*
X577850Y381000D02*
X584200Y374650D01*
X565150Y381000D02*
X558800Y387350D01*
X558800Y400050D01*
X565150Y406400D01*
X577850Y406400D02*
X584200Y400050D01*
X584200Y387350D01*
X577850Y381000D01*
X577850Y355600D02*
X565150Y355600D01*
X558800Y361950D01*
X577850Y355600D02*
X584200Y361950D01*
X584200Y374650D01*
X577850Y482600D02*
X565150Y482600D01*
D13*
X552069Y357844D02*
X556895Y356235D01*
X556895Y359452D02*
X552069Y357844D01*
X555689Y359050D02*
X555689Y356637D01*
X555554Y362567D02*
X553410Y362567D01*
X553410Y362566D02*
X553339Y362568D01*
X553267Y362574D01*
X553197Y362583D01*
X553127Y362596D01*
X553057Y362613D01*
X552989Y362634D01*
X552922Y362658D01*
X552856Y362686D01*
X552792Y362717D01*
X552729Y362752D01*
X552669Y362790D01*
X552610Y362831D01*
X552554Y362875D01*
X552500Y362922D01*
X552449Y362971D01*
X552401Y363024D01*
X552355Y363079D01*
X552313Y363136D01*
X552273Y363196D01*
X552237Y363257D01*
X552204Y363321D01*
X552175Y363386D01*
X552149Y363452D01*
X552126Y363520D01*
X552107Y363589D01*
X552092Y363659D01*
X552081Y363729D01*
X552073Y363800D01*
X552069Y363871D01*
X552069Y363943D01*
X552073Y364014D01*
X552081Y364085D01*
X552092Y364155D01*
X552107Y364225D01*
X552126Y364294D01*
X552149Y364362D01*
X552175Y364428D01*
X552204Y364493D01*
X552237Y364557D01*
X552273Y364618D01*
X552313Y364678D01*
X552355Y364735D01*
X552401Y364790D01*
X552449Y364843D01*
X552500Y364892D01*
X552554Y364939D01*
X552610Y364983D01*
X552669Y365024D01*
X552729Y365062D01*
X552792Y365097D01*
X552856Y365128D01*
X552922Y365156D01*
X552989Y365180D01*
X553057Y365201D01*
X553127Y365218D01*
X553197Y365231D01*
X553267Y365240D01*
X553339Y365246D01*
X553410Y365248D01*
X555554Y365248D01*
X555625Y365246D01*
X555697Y365240D01*
X555767Y365231D01*
X555837Y365218D01*
X555907Y365201D01*
X555975Y365180D01*
X556042Y365156D01*
X556108Y365128D01*
X556172Y365097D01*
X556235Y365062D01*
X556295Y365024D01*
X556354Y364983D01*
X556410Y364939D01*
X556464Y364892D01*
X556515Y364843D01*
X556563Y364790D01*
X556609Y364735D01*
X556651Y364678D01*
X556691Y364618D01*
X556727Y364557D01*
X556760Y364493D01*
X556789Y364428D01*
X556815Y364362D01*
X556838Y364294D01*
X556857Y364225D01*
X556872Y364155D01*
X556883Y364085D01*
X556891Y364014D01*
X556895Y363943D01*
X556895Y363871D01*
X556891Y363800D01*
X556883Y363729D01*
X556872Y363659D01*
X556857Y363589D01*
X556838Y363520D01*
X556815Y363452D01*
X556789Y363386D01*
X556760Y363321D01*
X556727Y363257D01*
X556691Y363196D01*
X556651Y363136D01*
X556609Y363079D01*
X556563Y363024D01*
X556515Y362971D01*
X556464Y362922D01*
X556410Y362875D01*
X556354Y362831D01*
X556295Y362790D01*
X556235Y362752D01*
X556172Y362717D01*
X556108Y362686D01*
X556042Y362658D01*
X555975Y362634D01*
X555907Y362613D01*
X555837Y362596D01*
X555767Y362583D01*
X555697Y362574D01*
X555625Y362568D01*
X555554Y362566D01*
X555823Y364711D02*
X556895Y365784D01*
X556895Y367902D02*
X552069Y367902D01*
X556895Y367366D02*
X556895Y368438D01*
X552069Y368438D02*
X552069Y367366D01*
X557431Y370670D02*
X557431Y372815D01*
X556895Y376765D02*
X556893Y376830D01*
X556887Y376894D01*
X556877Y376958D01*
X556864Y377022D01*
X556846Y377084D01*
X556825Y377145D01*
X556801Y377205D01*
X556772Y377263D01*
X556740Y377320D01*
X556705Y377374D01*
X556667Y377426D01*
X556625Y377476D01*
X556581Y377523D01*
X556534Y377567D01*
X556484Y377609D01*
X556432Y377647D01*
X556378Y377682D01*
X556321Y377714D01*
X556263Y377743D01*
X556203Y377767D01*
X556142Y377788D01*
X556080Y377806D01*
X556016Y377819D01*
X555952Y377829D01*
X555888Y377835D01*
X555823Y377837D01*
X556895Y376765D02*
X556893Y376671D01*
X556887Y376577D01*
X556877Y376483D01*
X556864Y376390D01*
X556846Y376298D01*
X556825Y376206D01*
X556800Y376115D01*
X556771Y376025D01*
X556738Y375937D01*
X556702Y375850D01*
X556662Y375765D01*
X556619Y375681D01*
X556572Y375600D01*
X556522Y375520D01*
X556469Y375442D01*
X556412Y375367D01*
X556353Y375294D01*
X556290Y375224D01*
X556225Y375156D01*
X553141Y375291D02*
X553076Y375293D01*
X553012Y375299D01*
X552948Y375309D01*
X552884Y375322D01*
X552822Y375340D01*
X552761Y375361D01*
X552701Y375385D01*
X552643Y375414D01*
X552586Y375446D01*
X552532Y375481D01*
X552480Y375519D01*
X552430Y375561D01*
X552383Y375605D01*
X552339Y375652D01*
X552297Y375702D01*
X552259Y375754D01*
X552224Y375808D01*
X552192Y375865D01*
X552163Y375923D01*
X552139Y375983D01*
X552118Y376044D01*
X552100Y376106D01*
X552087Y376170D01*
X552077Y376234D01*
X552071Y376298D01*
X552069Y376363D01*
X552071Y376449D01*
X552076Y376535D01*
X552086Y376621D01*
X552099Y376706D01*
X552115Y376791D01*
X552135Y376875D01*
X552159Y376958D01*
X552186Y377040D01*
X552217Y377120D01*
X552251Y377200D01*
X552289Y377277D01*
X552330Y377353D01*
X552374Y377427D01*
X552421Y377500D01*
X552471Y377570D01*
X554079Y375827D02*
X554046Y375774D01*
X554009Y375723D01*
X553970Y375674D01*
X553928Y375627D01*
X553883Y375583D01*
X553836Y375542D01*
X553787Y375503D01*
X553735Y375467D01*
X553681Y375434D01*
X553626Y375405D01*
X553569Y375379D01*
X553510Y375356D01*
X553451Y375336D01*
X553390Y375320D01*
X553329Y375307D01*
X553266Y375298D01*
X553204Y375293D01*
X553141Y375291D01*
X554885Y377302D02*
X554918Y377355D01*
X554955Y377406D01*
X554994Y377455D01*
X555036Y377502D01*
X555081Y377546D01*
X555128Y377587D01*
X555177Y377626D01*
X555229Y377662D01*
X555283Y377695D01*
X555338Y377724D01*
X555395Y377750D01*
X555454Y377773D01*
X555513Y377793D01*
X555574Y377809D01*
X555635Y377822D01*
X555698Y377831D01*
X555760Y377836D01*
X555823Y377838D01*
X554884Y377302D02*
X554080Y375827D01*
X556895Y380663D02*
X556895Y382807D01*
X556895Y380663D02*
X552069Y380663D01*
X552069Y382807D01*
X554214Y382271D02*
X554214Y380663D01*
X552069Y385398D02*
X556895Y385398D01*
X556895Y388079D02*
X552069Y385398D01*
X552069Y388079D02*
X556895Y388079D01*
X556895Y392493D02*
X556893Y392558D01*
X556887Y392622D01*
X556877Y392686D01*
X556864Y392750D01*
X556846Y392812D01*
X556825Y392873D01*
X556801Y392933D01*
X556772Y392991D01*
X556740Y393048D01*
X556705Y393102D01*
X556667Y393154D01*
X556625Y393204D01*
X556581Y393251D01*
X556534Y393295D01*
X556484Y393337D01*
X556432Y393375D01*
X556378Y393410D01*
X556321Y393442D01*
X556263Y393471D01*
X556203Y393495D01*
X556142Y393516D01*
X556080Y393534D01*
X556016Y393547D01*
X555952Y393557D01*
X555888Y393563D01*
X555823Y393565D01*
X556895Y392493D02*
X556893Y392399D01*
X556887Y392305D01*
X556877Y392211D01*
X556864Y392118D01*
X556846Y392026D01*
X556825Y391934D01*
X556800Y391843D01*
X556771Y391753D01*
X556738Y391665D01*
X556702Y391578D01*
X556662Y391493D01*
X556619Y391409D01*
X556572Y391328D01*
X556522Y391248D01*
X556469Y391170D01*
X556412Y391095D01*
X556353Y391022D01*
X556290Y390952D01*
X556225Y390884D01*
X553141Y391019D02*
X553076Y391021D01*
X553012Y391027D01*
X552948Y391037D01*
X552884Y391050D01*
X552822Y391068D01*
X552761Y391089D01*
X552701Y391113D01*
X552643Y391142D01*
X552586Y391174D01*
X552532Y391209D01*
X552480Y391247D01*
X552430Y391289D01*
X552383Y391333D01*
X552339Y391380D01*
X552297Y391430D01*
X552259Y391482D01*
X552224Y391536D01*
X552192Y391593D01*
X552163Y391651D01*
X552139Y391711D01*
X552118Y391772D01*
X552100Y391834D01*
X552087Y391898D01*
X552077Y391962D01*
X552071Y392026D01*
X552069Y392091D01*
X552071Y392177D01*
X552076Y392263D01*
X552086Y392349D01*
X552099Y392434D01*
X552115Y392519D01*
X552135Y392603D01*
X552159Y392686D01*
X552186Y392768D01*
X552217Y392848D01*
X552251Y392928D01*
X552289Y393005D01*
X552330Y393081D01*
X552374Y393155D01*
X552421Y393228D01*
X552471Y393298D01*
X554079Y391554D02*
X554046Y391501D01*
X554009Y391450D01*
X553970Y391401D01*
X553928Y391354D01*
X553883Y391310D01*
X553836Y391269D01*
X553787Y391230D01*
X553735Y391194D01*
X553681Y391161D01*
X553626Y391132D01*
X553569Y391106D01*
X553510Y391083D01*
X553451Y391063D01*
X553390Y391047D01*
X553329Y391034D01*
X553266Y391025D01*
X553204Y391020D01*
X553141Y391018D01*
X554885Y393029D02*
X554918Y393082D01*
X554955Y393133D01*
X554994Y393182D01*
X555036Y393229D01*
X555081Y393273D01*
X555128Y393314D01*
X555177Y393353D01*
X555229Y393389D01*
X555283Y393422D01*
X555338Y393451D01*
X555395Y393477D01*
X555454Y393500D01*
X555513Y393520D01*
X555574Y393536D01*
X555635Y393549D01*
X555698Y393558D01*
X555760Y393563D01*
X555823Y393565D01*
X554884Y393029D02*
X554080Y391555D01*
X553410Y396188D02*
X555554Y396188D01*
X553410Y396187D02*
X553339Y396189D01*
X553267Y396195D01*
X553197Y396204D01*
X553127Y396217D01*
X553057Y396234D01*
X552989Y396255D01*
X552922Y396279D01*
X552856Y396307D01*
X552792Y396338D01*
X552729Y396373D01*
X552669Y396411D01*
X552610Y396452D01*
X552554Y396496D01*
X552500Y396543D01*
X552449Y396592D01*
X552401Y396645D01*
X552355Y396700D01*
X552313Y396757D01*
X552273Y396817D01*
X552237Y396878D01*
X552204Y396942D01*
X552175Y397007D01*
X552149Y397073D01*
X552126Y397141D01*
X552107Y397210D01*
X552092Y397280D01*
X552081Y397350D01*
X552073Y397421D01*
X552069Y397492D01*
X552069Y397564D01*
X552073Y397635D01*
X552081Y397706D01*
X552092Y397776D01*
X552107Y397846D01*
X552126Y397915D01*
X552149Y397983D01*
X552175Y398049D01*
X552204Y398114D01*
X552237Y398178D01*
X552273Y398239D01*
X552313Y398299D01*
X552355Y398356D01*
X552401Y398411D01*
X552449Y398464D01*
X552500Y398513D01*
X552554Y398560D01*
X552610Y398604D01*
X552669Y398645D01*
X552729Y398683D01*
X552792Y398718D01*
X552856Y398749D01*
X552922Y398777D01*
X552989Y398801D01*
X553057Y398822D01*
X553127Y398839D01*
X553197Y398852D01*
X553267Y398861D01*
X553339Y398867D01*
X553410Y398869D01*
X555554Y398869D01*
X555625Y398867D01*
X555697Y398861D01*
X555767Y398852D01*
X555837Y398839D01*
X555907Y398822D01*
X555975Y398801D01*
X556042Y398777D01*
X556108Y398749D01*
X556172Y398718D01*
X556235Y398683D01*
X556295Y398645D01*
X556354Y398604D01*
X556410Y398560D01*
X556464Y398513D01*
X556515Y398464D01*
X556563Y398411D01*
X556609Y398356D01*
X556651Y398299D01*
X556691Y398239D01*
X556727Y398178D01*
X556760Y398114D01*
X556789Y398049D01*
X556815Y397983D01*
X556838Y397915D01*
X556857Y397846D01*
X556872Y397776D01*
X556883Y397706D01*
X556891Y397635D01*
X556895Y397564D01*
X556895Y397492D01*
X556891Y397421D01*
X556883Y397350D01*
X556872Y397280D01*
X556857Y397210D01*
X556838Y397141D01*
X556815Y397073D01*
X556789Y397007D01*
X556760Y396942D01*
X556727Y396878D01*
X556691Y396817D01*
X556651Y396757D01*
X556609Y396700D01*
X556563Y396645D01*
X556515Y396592D01*
X556464Y396543D01*
X556410Y396496D01*
X556354Y396452D01*
X556295Y396411D01*
X556235Y396373D01*
X556172Y396338D01*
X556108Y396307D01*
X556042Y396279D01*
X555975Y396255D01*
X555907Y396234D01*
X555837Y396217D01*
X555767Y396204D01*
X555697Y396195D01*
X555625Y396189D01*
X555554Y396187D01*
X556895Y401921D02*
X552069Y401921D01*
X552069Y403261D01*
X552071Y403332D01*
X552077Y403404D01*
X552086Y403474D01*
X552099Y403544D01*
X552116Y403614D01*
X552137Y403682D01*
X552161Y403749D01*
X552189Y403815D01*
X552220Y403879D01*
X552255Y403942D01*
X552293Y404002D01*
X552334Y404061D01*
X552378Y404117D01*
X552425Y404171D01*
X552474Y404222D01*
X552527Y404270D01*
X552582Y404316D01*
X552639Y404358D01*
X552699Y404398D01*
X552760Y404434D01*
X552824Y404467D01*
X552889Y404496D01*
X552955Y404522D01*
X553023Y404545D01*
X553092Y404564D01*
X553162Y404579D01*
X553232Y404590D01*
X553303Y404598D01*
X553374Y404602D01*
X553446Y404602D01*
X553517Y404598D01*
X553588Y404590D01*
X553658Y404579D01*
X553728Y404564D01*
X553797Y404545D01*
X553865Y404522D01*
X553931Y404496D01*
X553996Y404467D01*
X554060Y404434D01*
X554121Y404398D01*
X554181Y404358D01*
X554238Y404316D01*
X554293Y404270D01*
X554346Y404222D01*
X554395Y404171D01*
X554442Y404117D01*
X554486Y404061D01*
X554527Y404002D01*
X554565Y403942D01*
X554600Y403879D01*
X554631Y403815D01*
X554659Y403749D01*
X554683Y403682D01*
X554704Y403614D01*
X554721Y403544D01*
X554734Y403474D01*
X554743Y403404D01*
X554749Y403332D01*
X554751Y403261D01*
X554750Y403261D02*
X554750Y401921D01*
X554750Y403529D02*
X556895Y404602D01*
D12*
X50800Y654050D02*
X50800Y666750D01*
X57150Y673100D01*
X69850Y673100D02*
X76200Y666750D01*
X50800Y628650D02*
X57150Y622300D01*
X50800Y628650D02*
X50800Y641350D01*
X57150Y647700D01*
X69850Y647700D02*
X76200Y641350D01*
X76200Y628650D01*
X69850Y622300D01*
X57150Y647700D02*
X50800Y654050D01*
X69850Y647700D02*
X76200Y654050D01*
X76200Y666750D01*
X50800Y590550D02*
X50800Y577850D01*
X50800Y590550D02*
X57150Y596900D01*
X69850Y596900D02*
X76200Y590550D01*
X57150Y596900D02*
X50800Y603250D01*
X50800Y615950D01*
X57150Y622300D01*
X69850Y622300D02*
X76200Y615950D01*
X76200Y603250D01*
X69850Y596900D01*
X69850Y571500D02*
X57150Y571500D01*
X50800Y577850D01*
X69850Y571500D02*
X76200Y577850D01*
X76200Y590550D01*
X69850Y673100D02*
X57150Y673100D01*
D13*
X48895Y572135D02*
X44069Y572135D01*
X46750Y573744D01*
X44069Y575352D01*
X48895Y575352D01*
X47554Y578438D02*
X45410Y578438D01*
X45339Y578440D01*
X45267Y578446D01*
X45197Y578455D01*
X45127Y578468D01*
X45057Y578485D01*
X44989Y578506D01*
X44922Y578530D01*
X44856Y578558D01*
X44792Y578589D01*
X44729Y578624D01*
X44669Y578662D01*
X44610Y578703D01*
X44554Y578747D01*
X44500Y578794D01*
X44449Y578843D01*
X44401Y578896D01*
X44355Y578951D01*
X44313Y579008D01*
X44273Y579068D01*
X44237Y579129D01*
X44204Y579193D01*
X44175Y579258D01*
X44149Y579324D01*
X44126Y579392D01*
X44107Y579461D01*
X44092Y579531D01*
X44081Y579601D01*
X44073Y579672D01*
X44069Y579743D01*
X44069Y579815D01*
X44073Y579886D01*
X44081Y579957D01*
X44092Y580027D01*
X44107Y580097D01*
X44126Y580166D01*
X44149Y580234D01*
X44175Y580300D01*
X44204Y580365D01*
X44237Y580429D01*
X44273Y580490D01*
X44313Y580550D01*
X44355Y580607D01*
X44401Y580662D01*
X44449Y580715D01*
X44500Y580764D01*
X44554Y580811D01*
X44610Y580855D01*
X44669Y580896D01*
X44729Y580934D01*
X44792Y580969D01*
X44856Y581000D01*
X44922Y581028D01*
X44989Y581052D01*
X45057Y581073D01*
X45127Y581090D01*
X45197Y581103D01*
X45267Y581112D01*
X45339Y581118D01*
X45410Y581120D01*
X45410Y581119D02*
X47554Y581119D01*
X47554Y581120D02*
X47625Y581118D01*
X47697Y581112D01*
X47767Y581103D01*
X47837Y581090D01*
X47907Y581073D01*
X47975Y581052D01*
X48042Y581028D01*
X48108Y581000D01*
X48172Y580969D01*
X48235Y580934D01*
X48295Y580896D01*
X48354Y580855D01*
X48410Y580811D01*
X48464Y580764D01*
X48515Y580715D01*
X48563Y580662D01*
X48609Y580607D01*
X48651Y580550D01*
X48691Y580490D01*
X48727Y580429D01*
X48760Y580365D01*
X48789Y580300D01*
X48815Y580234D01*
X48838Y580166D01*
X48857Y580097D01*
X48872Y580027D01*
X48883Y579957D01*
X48891Y579886D01*
X48895Y579815D01*
X48895Y579743D01*
X48891Y579672D01*
X48883Y579601D01*
X48872Y579531D01*
X48857Y579461D01*
X48838Y579392D01*
X48815Y579324D01*
X48789Y579258D01*
X48760Y579193D01*
X48727Y579129D01*
X48691Y579068D01*
X48651Y579008D01*
X48609Y578951D01*
X48563Y578896D01*
X48515Y578843D01*
X48464Y578794D01*
X48410Y578747D01*
X48354Y578703D01*
X48295Y578662D01*
X48235Y578624D01*
X48172Y578589D01*
X48108Y578558D01*
X48042Y578530D01*
X47975Y578506D01*
X47907Y578485D01*
X47837Y578468D01*
X47767Y578455D01*
X47697Y578446D01*
X47625Y578440D01*
X47554Y578438D01*
X48895Y584899D02*
X44069Y584899D01*
X44069Y583559D02*
X44069Y586240D01*
X45410Y588679D02*
X47554Y588679D01*
X45410Y588679D02*
X45339Y588681D01*
X45267Y588687D01*
X45197Y588696D01*
X45127Y588709D01*
X45057Y588726D01*
X44989Y588747D01*
X44922Y588771D01*
X44856Y588799D01*
X44792Y588830D01*
X44729Y588865D01*
X44669Y588903D01*
X44610Y588944D01*
X44554Y588988D01*
X44500Y589035D01*
X44449Y589084D01*
X44401Y589137D01*
X44355Y589192D01*
X44313Y589249D01*
X44273Y589309D01*
X44237Y589370D01*
X44204Y589434D01*
X44175Y589499D01*
X44149Y589565D01*
X44126Y589633D01*
X44107Y589702D01*
X44092Y589772D01*
X44081Y589842D01*
X44073Y589913D01*
X44069Y589984D01*
X44069Y590056D01*
X44073Y590127D01*
X44081Y590198D01*
X44092Y590268D01*
X44107Y590338D01*
X44126Y590407D01*
X44149Y590475D01*
X44175Y590541D01*
X44204Y590606D01*
X44237Y590670D01*
X44273Y590731D01*
X44313Y590791D01*
X44355Y590848D01*
X44401Y590903D01*
X44449Y590956D01*
X44500Y591005D01*
X44554Y591052D01*
X44610Y591096D01*
X44669Y591137D01*
X44729Y591175D01*
X44792Y591210D01*
X44856Y591241D01*
X44922Y591269D01*
X44989Y591293D01*
X45057Y591314D01*
X45127Y591331D01*
X45197Y591344D01*
X45267Y591353D01*
X45339Y591359D01*
X45410Y591361D01*
X45410Y591360D02*
X47554Y591360D01*
X47554Y591361D02*
X47625Y591359D01*
X47697Y591353D01*
X47767Y591344D01*
X47837Y591331D01*
X47907Y591314D01*
X47975Y591293D01*
X48042Y591269D01*
X48108Y591241D01*
X48172Y591210D01*
X48235Y591175D01*
X48295Y591137D01*
X48354Y591096D01*
X48410Y591052D01*
X48464Y591005D01*
X48515Y590956D01*
X48563Y590903D01*
X48609Y590848D01*
X48651Y590791D01*
X48691Y590731D01*
X48727Y590670D01*
X48760Y590606D01*
X48789Y590541D01*
X48815Y590475D01*
X48838Y590407D01*
X48857Y590338D01*
X48872Y590268D01*
X48883Y590198D01*
X48891Y590127D01*
X48895Y590056D01*
X48895Y589984D01*
X48891Y589913D01*
X48883Y589842D01*
X48872Y589772D01*
X48857Y589702D01*
X48838Y589633D01*
X48815Y589565D01*
X48789Y589499D01*
X48760Y589434D01*
X48727Y589370D01*
X48691Y589309D01*
X48651Y589249D01*
X48609Y589192D01*
X48563Y589137D01*
X48515Y589084D01*
X48464Y589035D01*
X48410Y588988D01*
X48354Y588944D01*
X48295Y588903D01*
X48235Y588865D01*
X48172Y588830D01*
X48108Y588799D01*
X48042Y588771D01*
X47975Y588747D01*
X47907Y588726D01*
X47837Y588709D01*
X47767Y588696D01*
X47697Y588687D01*
X47625Y588681D01*
X47554Y588679D01*
X48895Y594412D02*
X44069Y594412D01*
X44069Y595753D01*
X44071Y595824D01*
X44077Y595896D01*
X44086Y595966D01*
X44099Y596036D01*
X44116Y596106D01*
X44137Y596174D01*
X44161Y596241D01*
X44189Y596307D01*
X44220Y596371D01*
X44255Y596434D01*
X44293Y596494D01*
X44334Y596553D01*
X44378Y596609D01*
X44425Y596663D01*
X44474Y596714D01*
X44527Y596762D01*
X44582Y596808D01*
X44639Y596850D01*
X44699Y596890D01*
X44760Y596926D01*
X44824Y596959D01*
X44889Y596988D01*
X44955Y597014D01*
X45023Y597037D01*
X45092Y597056D01*
X45162Y597071D01*
X45232Y597082D01*
X45303Y597090D01*
X45374Y597094D01*
X45446Y597094D01*
X45517Y597090D01*
X45588Y597082D01*
X45658Y597071D01*
X45728Y597056D01*
X45797Y597037D01*
X45865Y597014D01*
X45931Y596988D01*
X45996Y596959D01*
X46060Y596926D01*
X46121Y596890D01*
X46181Y596850D01*
X46238Y596808D01*
X46293Y596762D01*
X46346Y596714D01*
X46395Y596663D01*
X46442Y596609D01*
X46486Y596553D01*
X46527Y596494D01*
X46565Y596434D01*
X46600Y596371D01*
X46631Y596307D01*
X46659Y596241D01*
X46683Y596174D01*
X46704Y596106D01*
X46721Y596036D01*
X46734Y595966D01*
X46743Y595896D01*
X46749Y595824D01*
X46751Y595753D01*
X46750Y595753D02*
X46750Y594412D01*
X46750Y596021D02*
X48895Y597093D01*
X55600Y259900D02*
X145600Y259900D01*
X145600Y113900D01*
X55600Y113900D01*
X55600Y259900D01*
X190200Y194900D02*
X190200Y744900D01*
X470200Y744900D01*
X470200Y194900D01*
X190200Y194900D01*
D14*
X188208Y761154D02*
X188208Y769592D01*
X188208Y761154D02*
X188210Y761041D01*
X188216Y760928D01*
X188226Y760815D01*
X188240Y760702D01*
X188257Y760590D01*
X188279Y760479D01*
X188304Y760369D01*
X188334Y760259D01*
X188367Y760151D01*
X188404Y760044D01*
X188444Y759938D01*
X188489Y759834D01*
X188537Y759731D01*
X188588Y759630D01*
X188643Y759531D01*
X188701Y759434D01*
X188763Y759339D01*
X188828Y759246D01*
X188896Y759156D01*
X188967Y759068D01*
X189042Y758982D01*
X189119Y758899D01*
X189199Y758819D01*
X189282Y758742D01*
X189368Y758667D01*
X189456Y758596D01*
X189546Y758528D01*
X189639Y758463D01*
X189734Y758401D01*
X189831Y758343D01*
X189930Y758288D01*
X190031Y758237D01*
X190134Y758189D01*
X190238Y758144D01*
X190344Y758104D01*
X190451Y758067D01*
X190559Y758034D01*
X190669Y758004D01*
X190779Y757979D01*
X190890Y757957D01*
X191002Y757940D01*
X191115Y757926D01*
X191228Y757916D01*
X191341Y757910D01*
X191454Y757908D01*
X191567Y757910D01*
X191680Y757916D01*
X191793Y757926D01*
X191906Y757940D01*
X192018Y757957D01*
X192129Y757979D01*
X192239Y758004D01*
X192349Y758034D01*
X192457Y758067D01*
X192564Y758104D01*
X192670Y758144D01*
X192774Y758189D01*
X192877Y758237D01*
X192978Y758288D01*
X193077Y758343D01*
X193174Y758401D01*
X193269Y758463D01*
X193362Y758528D01*
X193452Y758596D01*
X193540Y758667D01*
X193626Y758742D01*
X193709Y758819D01*
X193789Y758899D01*
X193866Y758982D01*
X193941Y759068D01*
X194012Y759156D01*
X194080Y759246D01*
X194145Y759339D01*
X194207Y759434D01*
X194265Y759531D01*
X194320Y759630D01*
X194371Y759731D01*
X194419Y759834D01*
X194464Y759938D01*
X194504Y760044D01*
X194541Y760151D01*
X194574Y760259D01*
X194604Y760369D01*
X194629Y760479D01*
X194651Y760590D01*
X194668Y760702D01*
X194682Y760815D01*
X194692Y760928D01*
X194698Y761041D01*
X194700Y761154D01*
X194699Y761154D02*
X194699Y769592D01*
X200019Y766996D02*
X203265Y769592D01*
X203265Y757908D01*
X206510Y757908D02*
X200019Y757908D01*
D13*
X277915Y147394D02*
X277915Y31394D01*
X362915Y31394D01*
X362915Y147394D01*
X277915Y147394D01*
D14*
X268192Y41902D02*
X259753Y41902D01*
X268192Y41902D02*
X268305Y41904D01*
X268418Y41910D01*
X268531Y41920D01*
X268644Y41934D01*
X268756Y41951D01*
X268867Y41973D01*
X268977Y41998D01*
X269087Y42028D01*
X269195Y42061D01*
X269302Y42098D01*
X269408Y42138D01*
X269512Y42183D01*
X269615Y42231D01*
X269716Y42282D01*
X269815Y42337D01*
X269912Y42395D01*
X270007Y42457D01*
X270100Y42522D01*
X270190Y42590D01*
X270278Y42661D01*
X270364Y42736D01*
X270447Y42813D01*
X270527Y42893D01*
X270604Y42976D01*
X270679Y43062D01*
X270750Y43150D01*
X270818Y43240D01*
X270883Y43333D01*
X270945Y43428D01*
X271003Y43525D01*
X271058Y43624D01*
X271109Y43725D01*
X271157Y43828D01*
X271202Y43932D01*
X271242Y44038D01*
X271279Y44145D01*
X271312Y44253D01*
X271342Y44363D01*
X271367Y44473D01*
X271389Y44584D01*
X271406Y44696D01*
X271420Y44809D01*
X271430Y44922D01*
X271436Y45035D01*
X271438Y45148D01*
X271436Y45261D01*
X271430Y45374D01*
X271420Y45487D01*
X271406Y45600D01*
X271389Y45712D01*
X271367Y45823D01*
X271342Y45933D01*
X271312Y46043D01*
X271279Y46151D01*
X271242Y46258D01*
X271202Y46364D01*
X271157Y46468D01*
X271109Y46571D01*
X271058Y46672D01*
X271003Y46771D01*
X270945Y46868D01*
X270883Y46963D01*
X270818Y47056D01*
X270750Y47146D01*
X270679Y47234D01*
X270604Y47320D01*
X270527Y47403D01*
X270447Y47483D01*
X270364Y47560D01*
X270278Y47635D01*
X270190Y47706D01*
X270100Y47774D01*
X270007Y47839D01*
X269912Y47901D01*
X269815Y47959D01*
X269716Y48014D01*
X269615Y48065D01*
X269512Y48113D01*
X269408Y48158D01*
X269302Y48198D01*
X269195Y48235D01*
X269087Y48268D01*
X268977Y48298D01*
X268867Y48323D01*
X268756Y48345D01*
X268644Y48362D01*
X268531Y48376D01*
X268418Y48386D01*
X268305Y48392D01*
X268192Y48394D01*
X259753Y48394D01*
X259753Y57283D02*
X259755Y57390D01*
X259761Y57496D01*
X259771Y57602D01*
X259784Y57708D01*
X259802Y57814D01*
X259823Y57918D01*
X259848Y58022D01*
X259877Y58125D01*
X259909Y58226D01*
X259946Y58326D01*
X259986Y58425D01*
X260029Y58523D01*
X260076Y58619D01*
X260127Y58713D01*
X260181Y58805D01*
X260238Y58895D01*
X260298Y58983D01*
X260362Y59068D01*
X260429Y59151D01*
X260499Y59232D01*
X260571Y59310D01*
X260647Y59386D01*
X260725Y59458D01*
X260806Y59528D01*
X260889Y59595D01*
X260974Y59659D01*
X261062Y59719D01*
X261152Y59776D01*
X261244Y59830D01*
X261338Y59881D01*
X261434Y59928D01*
X261532Y59971D01*
X261631Y60011D01*
X261731Y60048D01*
X261832Y60080D01*
X261935Y60109D01*
X262039Y60134D01*
X262143Y60155D01*
X262249Y60173D01*
X262355Y60186D01*
X262461Y60196D01*
X262567Y60202D01*
X262674Y60204D01*
X259753Y57283D02*
X259755Y57162D01*
X259761Y57041D01*
X259771Y56921D01*
X259784Y56800D01*
X259802Y56681D01*
X259823Y56561D01*
X259848Y56443D01*
X259877Y56326D01*
X259910Y56209D01*
X259946Y56094D01*
X259987Y55980D01*
X260030Y55867D01*
X260078Y55755D01*
X260129Y55646D01*
X260184Y55538D01*
X260242Y55431D01*
X260303Y55327D01*
X260368Y55225D01*
X260436Y55125D01*
X260507Y55027D01*
X260581Y54931D01*
X260658Y54838D01*
X260739Y54748D01*
X260822Y54660D01*
X260908Y54575D01*
X260997Y54492D01*
X261088Y54413D01*
X261182Y54336D01*
X261278Y54263D01*
X261376Y54193D01*
X261477Y54126D01*
X261580Y54062D01*
X261685Y54002D01*
X261792Y53944D01*
X261900Y53891D01*
X262010Y53841D01*
X262122Y53795D01*
X262235Y53752D01*
X262350Y53713D01*
X264946Y59230D02*
X264868Y59309D01*
X264788Y59385D01*
X264705Y59458D01*
X264619Y59528D01*
X264532Y59595D01*
X264441Y59659D01*
X264349Y59719D01*
X264255Y59777D01*
X264158Y59831D01*
X264060Y59881D01*
X263960Y59928D01*
X263859Y59972D01*
X263756Y60012D01*
X263651Y60048D01*
X263546Y60080D01*
X263439Y60109D01*
X263332Y60134D01*
X263223Y60156D01*
X263114Y60173D01*
X263005Y60187D01*
X262895Y60196D01*
X262784Y60202D01*
X262674Y60204D01*
X264946Y59231D02*
X271437Y53713D01*
X271437Y60204D01*
M02*
