M48
;GenerationSoftware,Autodesk,EAGLE,9.6.2*%
;CreationDate,2026-05-04T04:30:00Z*%
FMAT,2
ICI,OFF
METRIC,TZ,000.000
T6C0.800
T5C1.016
T4C1.020
T3C2.250
T2C3.000
T1C3.200
%
G90
M71
T1
X3810Y76200
X3810Y3810
X57150Y3810
X57150Y76200
T2
X5560Y15300
X10260Y12300
X10260Y18200
T3
X45520Y20990
X20520Y72990
X45520Y72990
X20520Y20990
T4
X45720Y49530
X45720Y52070
X45720Y54610
X45720Y57150
X45720Y59690
X45720Y62230
X45720Y64770
X45720Y67310
X45720Y69850
X20320Y69850
X20320Y67310
X20320Y24130
X20320Y64770
X20320Y62230
X20320Y59690
X20320Y57150
X20320Y54610
X20320Y52070
X20320Y49530
X20320Y46990
X20320Y44450
X20320Y41910
X20320Y39370
X20320Y36830
X20320Y34290
X20320Y31750
X20320Y29210
X20320Y26670
X45720Y24130
X45720Y26670
X45720Y29210
X45720Y31750
X45720Y34290
X45720Y36830
X45720Y39370
X45720Y41910
X45720Y44450
X45720Y46990
T5
X57150Y36830
X57150Y39370
X57150Y41910
X57150Y44450
X57150Y46990
X6350Y58420
X6350Y60960
X6350Y63500
X6350Y66040
T6
X34290Y6350
X34290Y8890
X34290Y11430
M30